<svg xmlns="http://www.w3.org/2000/svg" height="512pt" version="1.1" viewBox="0 0 512 512" width="512pt">
<g id="surface1">
<path d="M 512 256 C 512 397.386719 397.386719 512 256 512 C 114.613281 512 0 397.386719 0 256 C 0 114.613281 114.613281 0 256 0 C 397.386719 0 512 114.613281 512 256 Z M 512 256 " style=" stroke:none;fill-rule:nonzero;fill:rgb(32.54902%,95.686275%,85.098039%);fill-opacity:1;" />
<path d="M 512 256 C 512 282.050781 508.109375 307.191406 500.871094 330.871094 C 498.421875 338.898438 495.578125 346.769531 492.371094 354.449219 C 489.019531 362.511719 485.261719 370.359375 481.121094 377.980469 C 472.871094 393.179688 463.121094 407.441406 452.070312 420.589844 C 451.488281 421.28125 450.910156 421.96875 450.320312 422.648438 C 403.378906 477.351562 333.730469 512 256 512 C 178.269531 512 108.621094 477.351562 61.691406 422.648438 C 61.101562 421.960938 60.511719 421.269531 59.941406 420.578125 C 48.878906 407.441406 39.128906 393.179688 30.890625 377.980469 C 27.601562 371.949219 24.558594 365.769531 21.769531 359.449219 C 21.039062 357.789062 20.320312 356.128906 19.628906 354.449219 C 6.980469 324.148438 0 290.890625 0 256 C 0 209.78125 12.25 166.429688 33.679688 129 C 77.800781 206.070312 160.839844 258 256 258 C 351.160156 258 434.210938 206.070312 478.320312 129 C 499.75 166.429688 512 209.78125 512 256 Z M 512 256 " style=" stroke:none;fill-rule:nonzero;fill:rgb(6.27451%,88.627451%,76.862745%);fill-opacity:1;" />
<path d="M 430.9375 135.144531 C 431.574219 134.464844 431.886719 134.132812 432.523438 133.453125 C 431.757812 122.234375 422.410156 113.375 410.996094 113.375 C 408.609375 113.375 406.3125 113.765625 404.164062 114.484375 C 403.488281 114.710938 402.734375 114.449219 402.359375 113.84375 C 397.425781 105.863281 388.601562 100.542969 378.535156 100.542969 C 365.347656 100.542969 354.292969 109.667969 351.328125 121.945312 C 351.148438 122.6875 350.449219 123.164062 349.6875 123.121094 C 349.390625 123.101562 349.09375 123.09375 348.792969 123.09375 C 342.164062 123.09375 336.5 127.1875 334.175781 132.984375 C 333.761719 134.019531 334.535156 135.144531 335.648438 135.144531 Z M 430.9375 135.144531 " style=" stroke:none;fill-rule:nonzero;fill:rgb(100%,100%,100%);fill-opacity:1;" />
<path d="M 409.835938 135.144531 C 410.5 134.367188 410.738281 134.089844 411.402344 133.308594 C 410.5625 127.273438 405.378906 122.625 399.113281 122.625 C 397.90625 122.625 396.738281 122.800781 395.636719 123.121094 C 394.976562 123.316406 394.265625 123.070312 393.890625 122.496094 C 391.011719 118.132812 386.066406 115.246094 380.445312 115.246094 C 373.035156 115.246094 366.800781 120.253906 364.925781 127.066406 C 364.734375 127.769531 364.082031 128.214844 363.355469 128.214844 C 363.351562 128.214844 363.34375 128.214844 363.339844 128.214844 C 359.960938 128.214844 357.015625 130.066406 355.460938 132.808594 C 354.871094 133.851562 355.65625 135.144531 356.851562 135.144531 Z M 409.835938 135.144531 " style=" stroke:none;fill-rule:nonzero;fill:rgb(81.568627%,96.470588%,100%);fill-opacity:1;" />
<path d="M 384.027344 234.449219 C 383.277344 233.652344 382.914062 233.261719 382.164062 232.464844 C 383.066406 219.308594 394.023438 208.917969 407.40625 208.917969 C 410.210938 208.917969 412.902344 209.378906 415.421875 210.21875 C 416.214844 210.484375 417.101562 210.179688 417.539062 209.46875 C 423.324219 200.109375 433.667969 193.871094 445.476562 193.871094 C 460.941406 193.871094 473.902344 204.570312 477.378906 218.96875 C 477.585938 219.835938 478.410156 220.398438 479.300781 220.347656 C 479.648438 220.324219 480 220.316406 480.351562 220.316406 C 488.121094 220.316406 494.765625 225.113281 497.492188 231.910156 C 497.976562 233.125 497.070312 234.449219 495.761719 234.449219 Z M 384.027344 234.449219 " style=" stroke:none;fill-rule:nonzero;fill:rgb(100%,100%,100%);fill-opacity:1;" />
<path d="M 408.769531 234.449219 C 407.992188 233.535156 407.710938 233.207031 406.933594 232.296875 C 407.917969 225.21875 413.996094 219.769531 421.34375 219.769531 C 422.761719 219.769531 424.128906 219.972656 425.417969 220.351562 C 426.191406 220.574219 427.023438 220.289062 427.46875 219.617188 C 430.84375 214.496094 436.644531 211.117188 443.234375 211.117188 C 451.921875 211.117188 459.234375 216.984375 461.429688 224.976562 C 461.65625 225.796875 462.421875 226.324219 463.273438 226.320312 C 463.277344 226.320312 463.285156 226.320312 463.289062 226.320312 C 467.253906 226.320312 470.707031 228.492188 472.53125 231.710938 C 473.222656 232.933594 472.300781 234.449219 470.898438 234.449219 Z M 408.769531 234.449219 " style=" stroke:none;fill-rule:nonzero;fill:rgb(81.568627%,96.470588%,100%);fill-opacity:1;" />
<path d="M 21.59375 234.449219 C 20.847656 233.652344 20.480469 233.261719 19.734375 232.464844 C 20.636719 219.308594 31.59375 208.917969 44.976562 208.917969 C 47.777344 208.917969 50.472656 209.378906 52.988281 210.21875 C 53.785156 210.484375 54.667969 210.179688 55.109375 209.46875 C 60.890625 200.109375 71.238281 193.871094 83.046875 193.871094 C 98.511719 193.871094 111.46875 204.570312 114.945312 218.96875 C 115.15625 219.835938 115.976562 220.398438 116.871094 220.347656 C 117.21875 220.324219 117.566406 220.316406 117.921875 220.316406 C 125.691406 220.316406 132.335938 225.113281 135.058594 231.910156 C 135.546875 233.125 134.640625 234.449219 133.332031 234.449219 Z M 21.59375 234.449219 " style=" stroke:none;fill-rule:nonzero;fill:rgb(100%,100%,100%);fill-opacity:1;" />
<path d="M 46.339844 234.449219 C 45.5625 233.535156 45.28125 233.207031 44.503906 232.296875 C 45.488281 225.21875 51.566406 219.769531 58.914062 219.769531 C 60.328125 219.769531 61.695312 219.972656 62.988281 220.351562 C 63.761719 220.574219 64.59375 220.289062 65.039062 219.617188 C 68.414062 214.496094 74.214844 211.117188 80.804688 211.117188 C 89.492188 211.117188 96.804688 216.984375 99 224.976562 C 99.226562 225.796875 99.988281 226.324219 100.84375 226.320312 C 100.847656 226.320312 100.851562 226.320312 100.859375 226.320312 C 104.820312 226.320312 108.273438 228.492188 110.097656 231.710938 C 110.789062 232.933594 109.871094 234.449219 108.464844 234.449219 Z M 46.339844 234.449219 " style=" stroke:none;fill-rule:nonzero;fill:rgb(81.568627%,96.470588%,100%);fill-opacity:1;" />
<path d="M 93.757812 131.394531 C 93.304688 130.910156 93.082031 130.671875 92.628906 130.1875 C 93.175781 122.207031 99.824219 115.902344 107.945312 115.902344 C 109.644531 115.902344 111.277344 116.179688 112.808594 116.691406 C 113.289062 116.851562 113.824219 116.667969 114.09375 116.234375 C 117.601562 110.558594 123.878906 106.773438 131.042969 106.773438 C 140.429688 106.773438 148.292969 113.265625 150.402344 122 C 150.527344 122.527344 151.027344 122.867188 151.570312 122.835938 C 151.78125 122.824219 151.992188 122.816406 152.207031 122.816406 C 156.921875 122.816406 160.953125 125.730469 162.605469 129.851562 C 162.902344 130.589844 162.351562 131.390625 161.558594 131.390625 Z M 93.757812 131.394531 " style=" stroke:none;fill-rule:nonzero;fill:rgb(100%,100%,100%);fill-opacity:1;" />
<path d="M 108.769531 131.394531 C 108.300781 130.839844 108.128906 130.640625 107.65625 130.085938 C 108.253906 125.792969 111.941406 122.484375 116.402344 122.484375 C 117.261719 122.484375 118.089844 122.609375 118.871094 122.839844 C 119.34375 122.976562 119.847656 122.800781 120.117188 122.394531 C 122.164062 119.285156 125.683594 117.234375 129.683594 117.234375 C 134.953125 117.234375 139.390625 120.796875 140.722656 125.644531 C 140.859375 126.144531 141.324219 126.460938 141.84375 126.460938 C 141.84375 126.460938 141.847656 126.460938 141.851562 126.460938 C 144.253906 126.460938 146.351562 127.777344 147.457031 129.730469 C 147.878906 130.472656 147.316406 131.390625 146.464844 131.390625 Z M 108.769531 131.394531 " style=" stroke:none;fill-rule:nonzero;fill:rgb(81.568627%,96.470588%,100%);fill-opacity:1;" />
<path d="M 31.058594 378.28125 C 39.261719 393.367188 48.953125 407.527344 59.941406 420.578125 C 60.511719 421.269531 61.101562 421.960938 61.691406 422.648438 C 108.621094 477.351562 178.269531 512 256 512 C 333.730469 512 403.378906 477.351562 450.320312 422.648438 C 450.910156 421.96875 451.488281 421.28125 452.070312 420.589844 C 463.046875 407.527344 472.738281 393.367188 480.953125 378.28125 Z M 31.058594 378.28125 " style=" stroke:none;fill-rule:nonzero;fill:rgb(51.764706%,76.470588%,96.862745%);fill-opacity:1;" />
<path d="M 376 241.398438 L 376 284.460938 C 376 339.398438 338.878906 385.828125 288.398438 400 C 280.179688 402.308594 272 396.230469 272 387.691406 L 272 210.761719 C 272 203.671875 277.738281 197.929688 284.828125 197.929688 L 299 197.929688 C 307.839844 197.929688 315 190.769531 315 181.929688 C 315 177.511719 313.210938 173.511719 310.320312 170.609375 C 307.421875 167.71875 303.421875 165.929688 299 165.929688 L 284.828125 165.929688 C 277.738281 165.929688 272 160.191406 272 153.101562 L 272 129 C 287.828125 122.269531 298.601562 105.878906 296.851562 87.261719 C 294.988281 67.480469 278.820312 51.699219 259.011719 50.28125 C 258 50.210938 257 50.171875 256 50.171875 C 233.371094 50.171875 214.960938 68.589844 214.960938 91.210938 C 214.960938 108.171875 225.300781 122.761719 240 129 L 240 153.101562 C 240 160.191406 234.261719 165.929688 227.171875 165.929688 L 213 165.929688 C 204.160156 165.929688 197 173.089844 197 181.929688 C 197 186.351562 198.789062 190.351562 201.679688 193.25 C 204.578125 196.140625 208.578125 197.929688 213 197.929688 L 227.171875 197.929688 C 234.261719 197.929688 240 203.671875 240 210.761719 L 240 387.691406 C 240 396.230469 231.820312 402.308594 223.601562 400 C 173.121094 385.828125 136 339.398438 136 284.460938 L 136 241.398438 C 135.996094 241.402344 135.996094 241.40625 135.992188 241.410156 L 107 272.929688 L 119.460938 272.929688 C 115.394531 284.882812 113.339844 297.34375 113.339844 309.789062 C 113.339844 335.460938 121.988281 361.03125 139.339844 381.789062 C 158.941406 405.238281 185.460938 422.710938 215.730469 431.039062 C 231.441406 435.359375 244.21875 446.769531 249.980469 462.011719 L 256 477.929688 L 262.019531 462.011719 C 267.78125 446.769531 280.558594 435.359375 296.269531 431.039062 C 326.539062 422.710938 353.058594 405.238281 372.660156 381.789062 C 406.230469 341.621094 407.230469 283.421875 376 241.398438 Z M 256 100.25 C 251.019531 100.25 246.960938 96.199219 246.960938 91.210938 C 246.960938 86.230469 251.019531 82.171875 256 82.171875 C 260.980469 82.171875 265.039062 86.230469 265.039062 91.210938 C 265.039062 96.199219 260.980469 100.25 256 100.25 Z M 256 100.25 " style=" stroke:none;fill-rule:nonzero;fill:rgb(32.54902%,36.862745%,53.72549%);fill-opacity:1;" />
<path d="M 405 272.929688 L 376.007812 241.410156 C 376.003906 241.40625 376.003906 241.402344 376 241.398438 L 376 284.460938 C 376 339.398438 338.878906 385.828125 288.398438 400 C 280.179688 402.308594 272 396.230469 272 387.691406 L 272 210.761719 C 272 203.671875 277.738281 197.929688 284.828125 197.929688 L 299 197.929688 C 307.839844 197.929688 315 190.769531 315 181.929688 C 315 177.511719 313.210938 173.511719 310.320312 170.609375 C 307.421875 167.71875 303.421875 165.929688 299 165.929688 L 284.828125 165.929688 C 277.738281 165.929688 272 160.191406 272 153.101562 L 272 129 C 287.828125 122.269531 298.601562 105.878906 296.851562 87.261719 C 294.988281 67.480469 278.820312 51.699219 259.011719 50.28125 C 258 50.210938 257 50.171875 256 50.171875 L 256 82.171875 C 260.980469 82.171875 265.039062 86.230469 265.039062 91.210938 C 265.039062 96.199219 260.980469 100.25 256 100.25 L 256 477.929688 L 262.019531 462.011719 C 267.78125 446.769531 280.558594 435.359375 296.269531 431.039062 C 326.539062 422.710938 353.058594 405.238281 372.660156 381.789062 C 398.421875 350.964844 404.980469 309.53125 392.535156 272.929688 Z M 405 272.929688 " style=" stroke:none;fill-rule:nonzero;fill:rgb(19.607843%,23.137255%,35.294118%);fill-opacity:1;" />
<path d="M 438.070312 435.941406 C 425.421875 448.738281 411.429688 460.21875 396.328125 470.140625 C 385.308594 477.371094 373.699219 483.78125 361.589844 489.269531 C 329.398438 503.871094 293.648438 512 256 512 C 218.351562 512 182.589844 503.871094 150.398438 489.261719 C 138.53125 483.890625 127.148438 477.628906 116.339844 470.578125 C 100.980469 460.558594 86.761719 448.929688 73.921875 435.941406 C 100.941406 437.460938 102.300781 454.050781 131.898438 454.050781 C 162.929688 454.050781 162.929688 435.828125 193.949219 435.828125 C 224.96875 435.828125 224.96875 454.050781 255.988281 454.050781 C 287.011719 454.050781 287.011719 435.828125 318.039062 435.828125 C 349.058594 435.828125 349.058594 454.050781 380.078125 454.050781 C 409.691406 454.050781 411.050781 437.460938 438.070312 435.941406 Z M 438.070312 435.941406 " style=" stroke:none;fill-rule:nonzero;fill:rgb(81.568627%,96.470588%,100%);fill-opacity:1;" />
<path d="M 361.589844 489.269531 C 329.398438 503.871094 293.648438 512 256 512 C 218.351562 512 182.589844 503.871094 150.398438 489.261719 C 164.890625 484.128906 170.730469 473.910156 193.949219 473.910156 C 224.96875 473.910156 224.96875 492.140625 255.988281 492.140625 C 287.011719 492.140625 287.011719 473.910156 318.039062 473.910156 C 341.269531 473.910156 347.101562 484.128906 361.589844 489.269531 Z M 361.589844 489.269531 " style=" stroke:none;fill-rule:nonzero;fill:rgb(51.764706%,76.470588%,96.862745%);fill-opacity:1;" />
</g>
</svg>