<svg id="Capa_1" enable-background="new 0 0 512 512" height="512" viewBox="0 0 512 512" width="512" xmlns="http://www.w3.org/2000/svg"><g><g><path d="m256 42.667-11.228 213.333 11.228 213.333c117.821 0 213.333-95.512 213.333-213.333s-95.512-213.333-213.333-213.333z" fill="#63a9ff"/><path d="m42.667 256c0 117.821 95.513 213.333 213.333 213.333v-426.666c-117.821 0-213.333 95.512-213.333 213.333z" fill="#71bdff"/></g><g><path d="m256 160-5.053 96 5.053 96c53.019 0 96-42.981 96-96s-42.981-96-96-96z" fill="#4d88da"/><path d="m160 256c0 53.019 42.981 96 96 96v-192c-53.019 0-96 42.981-96 96z" fill="#499af2"/></g><g><g><path d="m417.456 94.544c-43.127-43.127-100.466-66.877-161.456-66.877l-10.667 15 10.667 15c109.361 0 198.333 88.972 198.333 198.333s-88.972 198.333-198.333 198.333l-10.667 15 10.667 15c60.99 0 118.329-23.751 161.456-66.877 43.126-43.127 66.877-100.466 66.877-161.456s-23.751-118.329-66.877-161.456z" fill="#373c41"/><path d="m57.667 256c0-109.361 88.972-198.333 198.333-198.333v-30c-60.99 0-118.329 23.751-161.456 66.877-43.126 43.127-66.877 100.466-66.877 161.456s23.751 118.33 66.877 161.456c43.127 43.126 100.466 66.877 161.456 66.877v-30c-109.361 0-198.333-88.972-198.333-198.333z" fill="#4b5055"/></g><g><path d="m367 256c0-61.206-49.794-111-111-111l-10.667 15 10.667 15c44.663 0 81 36.336 81 81s-36.337 81-81 81l-10.667 15 10.667 15c61.206 0 111-49.794 111-111z" fill="#f7f0eb"/><path d="m175 256c0-44.664 36.337-81 81-81v-30c-61.206 0-111 49.794-111 111s49.794 111 111 111v-30c-44.663 0-81-36.336-81-81z" fill="#fffbf5"/></g></g><g><path d="m271 241v-241h-15l-10.667 256 10.667 256h15v-241h241v-30z" fill="#a2d2fd"/><path d="m241 0v241h-241v30h241v241h15v-512z" fill="#bedffe"/></g><path d="m99 347.667c-30.143 0-54.666 24.523-54.666 54.667s24.523 54.666 54.666 54.666c30.144 0 54.667-24.523 54.667-54.667s-24.523-54.666-54.667-54.666z" fill="#fdcb02"/><circle cx="402.333" cy="99" fill="#fd8c02" r="68.333"/></g></svg>