<svg id="Capa_1" enable-background="new 0 0 512 512" height="512" viewBox="0 0 512 512" width="512" xmlns="http://www.w3.org/2000/svg"><g><path d="m287.216 503.636 87.406-50.461c51.514-29.74 83.249-84.705 83.249-144.188v-215.404c0-11.096-8.662-20.318-19.744-20.883-93.664-4.77-144.527-42.915-167.236-66.401-8.121-8.399-21.66-8.399-29.781 0-22.709 23.486-73.573 61.631-167.237 66.401-11.082.564-19.744 9.786-19.744 20.883v215.404c0 59.483 31.735 114.447 83.249 144.188l87.406 50.461c19.317 11.152 43.115 11.152 62.432 0z" fill="#e49542"/><path d="m195.647 429.756c-39.337 0-76.689-8.497-110.325-23.749 13.58 18.942 31.195 35.125 52.057 47.169l87.406 50.461c19.317 11.152 43.115 11.152 62.432 0l87.406-50.461c51.515-29.74 83.249-84.705 83.249-144.188v-93.965c-24.474 122.458-132.568 214.733-262.225 214.733z" fill="#e27d47"/><path d="m256 470.377c-3.648 0-7.246-.964-10.406-2.788l-87.406-50.461c-38.512-22.234-62.436-63.671-62.436-108.141v-186.927c0-5.229 3.881-9.664 9.069-10.316 69.374-8.729 116.016-34.524 144.755-57.193 3.769-2.973 9.079-2.973 12.848 0 28.74 22.67 75.381 48.464 144.755 57.193 5.188.653 9.069 5.088 9.069 10.316v186.928c0 44.47-23.924 85.907-62.436 108.141l-87.406 50.461c-3.16 1.823-6.758 2.787-10.406 2.787z" fill="#ffe07d"/><path d="m160.268 394.376c-11.001 0-21.842-.679-32.494-1.97 8.667 9.67 18.88 18.062 30.415 24.721l87.406 50.461c3.159 1.824 6.758 2.788 10.406 2.788s7.246-.964 10.406-2.788l87.406-50.461c38.512-22.235 62.436-63.671 62.436-108.141v-104.451c-33.255 109.857-135.27 189.841-255.981 189.841z" fill="#ffd064"/><g><path d="m224.78 355.008c-7.99 0-15.979-3.047-22.075-9.143l-62.439-62.439c-12.192-12.192-12.192-31.96 0-44.152s31.959-12.192 44.151 0l40.364 40.364 102.803-102.803c12.192-12.192 31.959-12.192 44.151 0s12.192 31.96 0 44.152l-124.879 124.877c-6.096 6.096-14.085 9.144-22.076 9.144z" fill="#95d6a4"/></g><path d="m371.734 176.834c-3.161-3.161-6.833-5.495-10.748-7.017 4.349 11.187 2.015 24.373-7.016 33.405l-124.878 124.878c-6.096 6.096-14.085 9.143-22.075 9.143s-15.979-3.047-22.075-9.143l17.764 17.764c6.096 6.096 14.085 9.143 22.075 9.143s15.979-3.047 22.075-9.143l124.878-124.878c12.192-12.192 12.192-31.96 0-44.152z" fill="#78c2a4"/></g></svg>