<svg id="Capa_1" enable-background="new 0 0 512 512" height="512" viewBox="0 0 512 512" width="512" xmlns="http://www.w3.org/2000/svg"><g><g><path d="m349.867 111.775v-52.041c0-23.564-19.103-42.667-42.667-42.667h-29.867-42.667-29.865c-23.564 0-42.667 19.103-42.667 42.667l.001 52.041z" fill="#eaa96a"/><path d="m277.333 111.775h-42.667v-103.775c0-4.418 3.582-8 8-8h26.667c4.418 0 8 3.582 8 8z" fill="#efd27c"/><g><g><path d="m196.267 110.127c-4.267 0-7.726-3.459-7.726-7.726v-17.067c0-4.268 3.459-7.726 7.726-7.726s7.726 3.459 7.726 7.726v17.066c0 4.268-3.459 7.727-7.726 7.727z" fill="#efd27c"/></g></g><g><g><path d="m315.733 110.127c-4.268 0-7.726-3.459-7.726-7.726v-17.067c0-4.268 3.459-7.726 7.726-7.726 4.268 0 7.726 3.459 7.726 7.726v17.066c.001 4.268-3.458 7.727-7.726 7.727z" fill="#efd27c"/></g></g><path d="m307.2 17.066h-23.694c23.564 0 42.667 19.103 42.667 42.667v52.041h23.694v-52.041c0-23.564-19.102-42.667-42.667-42.667z" fill="#e5935d"/><path d="m170.667 204.801h-17.067c-9.426 0-17.067-7.641-17.067-17.067v-34.134c0-9.426 7.641-17.067 17.067-17.067h17.067 170.666 17.067c9.426 0 17.067 7.641 17.067 17.067v34.134c0 9.426-7.641 17.067-17.067 17.067h-17.067z" fill="#ebb39a"/><path d="m204.799 256v119.468h102.4v-119.453z" fill="#ebb39a"/><path d="m170.667 128.807.001 75.997c0 47.128 38.205 85.332 85.332 85.332s85.332-38.205 85.332-85.332l.001-75.997z" fill="#f4dabd"/><path d="m375.467 119.467c0-9.426-7.641-17.067-17.067-17.067h-204.8c-9.426 0-17.067 7.641-17.067 17.067v8.533c0 4.713 3.82 8.533 8.533 8.533h221.866c4.713 0 8.533-3.82 8.533-8.533v-8.533z" fill="#efd27c"/><g><path d="m256.001 229.596c-8.809 0-17.032-4.745-21.46-12.385-2.14-3.691-.882-8.419 2.81-10.558 3.693-2.14 8.419-.883 10.559 2.81 1.674 2.887 4.774 4.681 8.091 4.681 3.316 0 6.417-1.794 8.092-4.682 2.14-3.692 6.871-4.948 10.559-2.809 3.692 2.141 4.95 6.868 2.809 10.559-4.43 7.638-12.652 12.384-21.46 12.384z" fill="#ebb39a"/></g><g><g><path d="m221.867 186.927c-4.267 0-7.726-3.459-7.726-7.726v-8.533c0-4.268 3.459-7.726 7.726-7.726s7.726 3.459 7.726 7.726v8.533c0 4.267-3.459 7.726-7.726 7.726z" fill="#4c5e71"/></g></g><g><g><path d="m290.133 186.927c-4.268 0-7.726-3.459-7.726-7.726v-8.533c0-4.268 3.459-7.726 7.726-7.726s7.726 3.459 7.726 7.726v8.533c0 4.267-3.459 7.726-7.726 7.726z" fill="#4c5e71"/></g></g><path d="m358.4 102.4h-23.694c9.426 0 17.067 7.641 17.067 17.067v8.533c0 4.713-3.82 8.533-8.533 8.533h23.694c4.713 0 8.533-3.82 8.533-8.533v-8.533c0-9.426-7.641-17.067-17.067-17.067z" fill="#eabc73"/><path d="m51.2 324.267c0-18.852 15.282-34.134 34.134-34.134h42.667c4.713 0 8.533 3.82 8.533 8.533v30.752h-85.333z" fill="#8cbdf9"/><path d="m375.466 329.418v-30.752c0-4.713 3.82-8.533 8.533-8.533h42.667c18.851 0 34.134 15.282 34.134 34.134v5.151z" fill="#8cbdf9"/><path d="m426.667 290.133h-23.694c18.852 0 34.134 15.282 34.134 34.134v5.151h23.694v-5.151c0-18.852-15.283-34.134-34.134-34.134z" fill="#73a2da"/><path d="m51.2 324.266h409.6v187.734h-409.6z" fill="#a6ccfb"/><path d="m437.106 324.266h23.694v187.734h-23.694z" fill="#8cbdf9"/><g><path d="m480 409.6h-20.267c-8.837 0-16 7.164-16 16v78.4c0 4.418 3.582 8 8 8h44.267c8.836 0 16-7.163 16-16v-54.4c0-17.673-14.327-32-32-32z" fill="#f4dabd"/><g fill="#ebb39a"><path d="m443.734 436.007h34.132c4.267 0 7.726 3.459 7.726 7.726 0 4.268-3.459 7.726-7.726 7.726h-34.132z"/><path d="m443.734 470.14h34.132c4.267 0 7.726 3.459 7.726 7.726 0 4.268-3.459 7.726-7.726 7.726h-34.132z"/><path d="m479.034 409.6h-18.818c-.678 0-1.342.053-1.998.133 16.857 1.46 30.087 15.597 30.087 32.833v52.951c0 9.103-7.38 16.483-16.483 16.483h23.694c9.103 0 16.483-7.38 16.483-16.483v-52.951c.001-18.207-14.758-32.966-32.965-32.966z"/></g></g><g><path d="m32 409.6h20.267c8.837 0 16 7.164 16 16v78.4c0 4.418-3.582 8-8 8h-44.267c-8.837 0-16-7.163-16-16v-54.4c0-17.673 14.327-32 32-32z" fill="#f4dabd"/><g fill="#ebb39a"><path d="m68.266 451.46h-34.131c-4.267 0-7.726-3.459-7.726-7.726 0-4.268 3.459-7.726 7.726-7.726h34.132v15.452z"/><path d="m68.266 485.593h-34.131c-4.267 0-7.726-3.459-7.726-7.726 0-4.268 3.459-7.726 7.726-7.726h34.132v15.452z"/></g></g></g><g><g><g><g><path d="m341.334 136.533h.005z" fill="#131213"/></g></g></g></g></g></svg>