<svg height="512" viewBox="0 0 58 58" width="512" xmlns="http://www.w3.org/2000/svg"><g id="Page-1" fill="none" fill-rule="evenodd"><g id="012---media-grid" fill-rule="nonzero"><rect id="Rectangle-path" fill="#ff5364" height="26" rx="6" width="26"/><g fill="#fb7b76"><path id="Shape" d="m4 9c-.55228475 0-1-.44771525-1-1v-2c0-1.65685425 1.34314575-3 3-3h4c.5522847 0 1 .44771525 1 1s-.4477153 1-1 1h-4c-.55228475 0-1 .44771525-1 1v2c0 .55228475-.44771525 1-1 1z"/><path id="Shape" d="m16 5h-2c-.5522847 0-1-.44771525-1-1s.4477153-1 1-1h2c.5522847 0 1 .44771525 1 1s-.4477153 1-1 1z"/><path id="Shape" d="m21 23h-2c-.5522847 0-1-.4477153-1-1s.4477153-1 1-1h2c.5522847 0 1 .4477153 1 1s-.4477153 1-1 1z"/></g><rect id="Rectangle-path" fill="#894b9d" height="26" rx="6" width="26" x="32"/><path id="Shape" d="m53 23h-2c-.5522847 0-1-.4477153-1-1s.4477153-1 1-1h2c.5522847 0 1 .4477153 1 1s-.4477153 1-1 1z" fill="#b49aca"/><rect id="Rectangle-path" fill="#24ae5f" height="26" rx="6" width="26" y="32"/><path id="Shape" d="m4 41c-.55228475 0-1-.4477153-1-1v-2c0-1.6568542 1.34314575-3 3-3h4c.5522847 0 1 .4477153 1 1s-.4477153 1-1 1h-4c-.55228475 0-1 .4477153-1 1v2c0 .5522847-.44771525 1-1 1z" fill="#81ccb8"/><path id="Shape" d="m16 37h-2c-.5522847 0-1-.4477153-1-1s.4477153-1 1-1h2c.5522847 0 1 .4477153 1 1s-.4477153 1-1 1z" fill="#81ccb8"/><path id="Shape" d="m36 9c-.5522847 0-1-.44771525-1-1v-2c0-1.65685425 1.3431458-3 3-3h4c.5522847 0 1 .44771525 1 1s-.4477153 1-1 1h-4c-.5522847 0-1 .44771525-1 1v2c0 .55228475-.4477153 1-1 1z" fill="#b49aca"/><path id="Shape" d="m48 5h-2c-.5522847 0-1-.44771525-1-1s.4477153-1 1-1h2c.5522847 0 1 .44771525 1 1s-.4477153 1-1 1z" fill="#b49aca"/><path id="Shape" d="m21 55h-2c-.5522847 0-1-.4477153-1-1s.4477153-1 1-1h2c.5522847 0 1 .4477153 1 1s-.4477153 1-1 1z" fill="#81ccb8"/><rect id="Rectangle-path" fill="#f29c1f" height="26" rx="6" width="26" x="32" y="32"/><path id="Shape" d="m36 41c-.5522847 0-1-.4477153-1-1v-2c0-1.6568542 1.3431458-3 3-3h4c.5522847 0 1 .4477153 1 1s-.4477153 1-1 1h-4c-.5522847 0-1 .4477153-1 1v2c0 .5522847-.4477153 1-1 1z" fill="#f3d55b"/><path id="Shape" d="m48 37h-2c-.5522847 0-1-.4477153-1-1s.4477153-1 1-1h2c.5522847 0 1 .4477153 1 1s-.4477153 1-1 1z" fill="#f3d55b"/><path id="Shape" d="m53 55h-2c-.5522847 0-1-.4477153-1-1s.4477153-1 1-1h2c.5522847 0 1 .4477153 1 1s-.4477153 1-1 1z" fill="#f3d55b"/></g></g></svg>