<?xml version="1.0" encoding="iso-8859-1"?>
<!-- Generator: Adobe Illustrator 19.0.0, SVG Export Plug-In . SVG Version: 6.00 Build 0)  -->
<svg version="1.1" id="Capa_1" xmlns="http://www.w3.org/2000/svg" xmlns:xlink="http://www.w3.org/1999/xlink" x="0px" y="0px"
	 viewBox="0 0 512 512" style="enable-background:new 0 0 512 512;" xml:space="preserve">
<path style="fill:#5C6777;" d="M404.643,28.001v66.603h-51.414V55.94c0-4.774-3.864-8.638-8.628-8.638H167.398
	c-4.763,0-8.628,3.864-8.628,8.638v38.664h-51.414V28.001C107.357,12.533,119.889,0,135.346,0h241.305
	C392.109,0,404.643,12.533,404.643,28.001z"/>
<path style="fill:#525760;" d="M404.643,28.001v66.603h-28.084V28.001C376.559,12.533,364.026,0,348.568,0h28.084
	C392.109,0,404.643,12.533,404.643,28.001z"/>
<path style="fill:#E1E6E9;" d="M255.999,193.322H58.1l38.714,313.649c0.354,2.865,2.981,5.029,6.106,5.029h153.08h153.08
	c3.125,0,5.753-2.164,6.107-5.029L453.9,193.322H255.999z"/>
<path style="fill:#D2D6D8;" d="M453.897,193.321l-38.716,313.653c-0.351,2.862-2.976,5.022-6.106,5.022h-29.458
	c3.12,0,5.755-2.159,6.106-5.022l38.716-313.653L453.897,193.321L453.897,193.321z"/>
<path style="fill:#5C6777;" d="M474.763,193.322H37.236c-2.885,0-5.223-2.339-5.223-5.223V99.83c0-2.885,2.339-5.223,5.223-5.223
	h437.526c2.885,0,5.223,2.339,5.223,5.223v88.268C479.986,190.984,477.647,193.322,474.763,193.322z"/>
<path style="fill:#525760;" d="M479.987,99.832v88.27c0,2.883-2.335,5.218-5.228,5.218h-32.961c2.883,0,5.218-2.335,5.218-5.218
	v-88.27c0-2.883-2.335-5.228-5.218-5.228h32.961C477.652,94.604,479.987,96.95,479.987,99.832z"/>
<g>
	<path style="fill:#5C6777;" d="M262.328,451.818h-12.656c-9.693,0-17.551-7.858-17.551-17.551v-176.12
		c0-9.693,7.858-17.551,17.551-17.551h12.656c9.693,0,17.551,7.858,17.551,17.551v176.12
		C279.879,443.961,272.021,451.818,262.328,451.818z"/>
	<path style="fill:#5C6777;" d="M357.933,451.995l-12.621-0.95c-9.666-0.728-16.912-9.153-16.184-18.819l13.219-175.623
		c0.728-9.666,9.153-16.912,18.819-16.184l12.621,0.95c9.666,0.728,16.912,9.153,16.184,18.819l-13.219,175.623
		C376.025,445.477,367.599,452.723,357.933,451.995z"/>
	<path style="fill:#5C6777;" d="M154.065,451.995l12.621-0.95c9.666-0.728,16.912-9.153,16.184-18.819l-13.219-175.623
		c-0.728-9.666-9.153-16.912-18.819-16.184l-12.621,0.95c-9.666,0.728-16.912,9.153-16.184,18.819l13.219,175.623
		C135.973,445.477,144.399,452.723,154.065,451.995z"/>
</g>
<g>
	<path style="fill:#525760;" d="M279.878,258.147v176.117c0,9.692-7.853,17.555-17.555,17.555h-12.647
		c-1.023,0-2.035-0.083-3.007-0.258c8.266-1.416,14.558-8.628,14.558-17.297V258.147c0-8.669-6.292-15.881-14.558-17.286
		c0.971-0.186,1.984-0.269,3.007-0.269h12.647C272.025,240.592,279.878,248.455,279.878,258.147z"/>
	<path style="fill:#525760;" d="M389.97,260.192l-13.215,175.621c-0.734,9.661-9.155,16.914-18.826,16.181l-11.696-0.878
		c6.468-2.19,11.324-8.08,11.872-15.302l13.215-175.621c0.723-9.671-6.52-18.092-16.181-18.826l-0.92-0.072
		c2.17-0.744,4.515-1.064,6.943-0.878l12.626,0.951C383.451,242.1,390.704,250.521,389.97,260.192z"/>
	<path style="fill:#525760;" d="M166.686,451.044l-12.616,0.951c-2.439,0.186-4.784-0.134-6.954-0.878l0.92-0.072
		c9.661-0.723,16.914-9.155,16.181-18.815l-13.215-175.621c-0.548-7.243-5.404-13.122-11.872-15.313l11.707-0.878
		c9.661-0.723,18.092,6.52,18.815,16.191l13.215,175.621C183.6,441.889,176.356,450.32,166.686,451.044z"/>
</g>
<g>
</g>
<g>
</g>
<g>
</g>
<g>
</g>
<g>
</g>
<g>
</g>
<g>
</g>
<g>
</g>
<g>
</g>
<g>
</g>
<g>
</g>
<g>
</g>
<g>
</g>
<g>
</g>
<g>
</g>
</svg>
