<svg id="Capa_1" enable-background="new 0 0 512 512" height="512" viewBox="0 0 512 512" width="512" xmlns="http://www.w3.org/2000/svg"><g><g><path d="m261.395 60.417 19.997-46.79c3.532-8.266 11.654-13.627 20.643-13.627h164.486c12.398 0 22.449 10.051 22.449 22.449v340.741c0 12.398-10.051 22.449-22.449 22.449h-421.042c-12.398 0-22.449-10.051-22.449-22.449v-280.324c0-12.398 10.051-22.449 22.449-22.449z" fill="#ffc751"/><path d="m488.97 22.45v340.74c0 12.4-10.05 22.45-22.45 22.45h-421.04c-12.4 0-22.45-10.05-22.45-22.45v-252.33c33.24 79.61 111.84 135.55 203.5 135.55 121.75 0 220.45-98.7 220.45-220.45 0-8.78-.51-17.44-1.52-25.96h21.06c12.4 0 22.45 10.05 22.45 22.45z" fill="#ffaf40"/><path d="m424.533 378.15h-348.291c-12.398 0-22.449-10.051-22.449-22.449v-226.842c0-12.398 10.051-22.449 22.449-22.449h348.291c12.398 0 22.449 10.051 22.449 22.449v226.842c0 12.399-10.051 22.449-22.449 22.449z" fill="#f1eee0"/><path d="m446.98 128.86v226.84c0 12.4-10.05 22.45-22.45 22.45h-348.29c-12.4 0-22.45-10.05-22.45-22.45v-192.77c40.38 50.87 102.75 83.48 172.74 83.48 92.95 0 172.47-57.53 204.88-138.92 9.03 2.9 15.57 11.37 15.57 21.37z" fill="#e8e4d8"/><path d="m250.605 220.451-19.997-46.79c-3.532-8.265-11.654-13.627-20.643-13.627h-164.486c-12.398 0-22.449 10.051-22.449 22.449v307.068c0 12.398 10.05 22.449 22.449 22.449h421.042c12.398 0 22.449-10.051 22.449-22.449v-246.651c0-12.398-10.051-22.449-22.449-22.449z" fill="#73e1ff"/></g><path d="m488.97 242.9v246.65c0 12.4-10.05 22.45-22.45 22.45h-208.26c103.08-57.12 173.49-166 176.14-291.55h32.12c12.4 0 22.45 10.05 22.45 22.45z" fill="#5cceff"/><g><path d="m356.094 156.221h-111.829c-13.755 0-24.906-11.151-24.906-24.906 0-13.755 11.151-24.906 24.906-24.906h111.829c13.755 0 24.906 11.151 24.906 24.906 0 13.756-11.151 24.906-24.906 24.906z" fill="#f9f8f2"/><path d="m331.534 106.41h-14.352c-13.755 0-24.906 11.151-24.906 24.906 0 13.755 11.151 24.906 24.906 24.906h14.352c13.755 0 24.906-11.151 24.906-24.906-.001-13.755-11.151-24.906-24.906-24.906z" fill="#fff"/></g><g><path d="m176.415 160.034h-99.797c-13.027 0-23.588 10.561-23.588 23.588 0 13.027 10.561 23.588 23.588 23.588h99.797c13.027 0 23.588-10.561 23.588-23.588 0-13.027-10.561-23.588-23.588-23.588z" fill="#b6f0ff"/><path d="m70.206 450.363v-149.797c0-13.027-10.561-23.588-23.588-23.588-13.027 0-23.588 10.561-23.588 23.588v149.797c0 13.027 10.561 23.588 23.588 23.588 13.027 0 23.588-10.561 23.588-23.588z" fill="#b6f0ff"/><g fill="#dcfeff"><path d="m70.206 337.184v-11.293c0-13.027-10.561-23.588-23.588-23.588-13.027 0-23.588 10.561-23.588 23.588v11.293c0 13.027 10.561 23.588 23.588 23.588 13.027 0 23.588-10.56 23.588-23.588z"/><path d="m122.133 160.034h-18.792c-13.027 0-23.588 10.561-23.588 23.588 0 13.027 10.561 23.588 23.588 23.588h18.792c13.027 0 23.588-10.561 23.588-23.588 0-13.027-10.56-23.588-23.588-23.588z"/></g></g><g><path d="m418.513 0h-99.797c-13.027 0-23.588 10.561-23.588 23.588 0 13.027 10.561 23.588 23.588 23.588h99.797c13.027 0 23.588-10.561 23.588-23.588 0-13.027-10.56-23.588-23.588-23.588z" fill="#ffe059"/><path d="m386.963 0h-18.792c-13.027 0-23.588 10.561-23.588 23.588 0 13.027 10.561 23.588 23.588 23.588h18.792c13.027 0 23.588-10.561 23.588-23.588 0-13.027-10.561-23.588-23.588-23.588z" fill="#fff370"/></g><g><path d="m436.166 474.9h-115.102c-8.284 0-15-6.716-15-15v-60.9c0-8.284 6.716-15 15-15h115.101c8.284 0 15 6.716 15 15v60.9c.001 8.284-6.715 15-14.999 15z" fill="#f9f8f2"/><path d="m451.165 399v60.9c0 8.28-6.72 15-15 15h-68.12c32.35-18.25 54.91-51.84 57.79-90.9h10.33c8.28 0 15 6.72 15 15z" fill="#f1eee0"/><path d="m419.979 455.061h-82.728c-7.206 0-13.047-5.841-13.047-13.047 0-7.206 5.841-13.047 13.047-13.047h82.728c7.206 0 13.047 5.841 13.047 13.047 0 7.205-5.841 13.047-13.047 13.047z" fill="#ffaf40"/><path d="m374.145 428.967h-14.497c-7.206 0-13.047 5.841-13.047 13.047 0 7.206 5.841 13.047 13.047 13.047h14.497c7.206 0 13.047-5.841 13.047-13.047 0-7.206-5.841-13.047-13.047-13.047z" fill="#ffc751"/></g></g></svg>