<svg height="512pt" viewBox="0 0 512 512" width="512pt" xmlns="http://www.w3.org/2000/svg"><path d="m407 0c-57.890625 0-105 47.109375-105 105 0 15.851562 3.441406 31.085938 10.238281 45.277344l49.484375 49.484375c14.191406 6.796875 29.425782 10.238281 45.277344 10.238281 57.890625 0 105-47.109375 105-105s-47.109375-105-105-105zm0 0" fill="#b4d2d7"/><path d="m407 302c-15.851562 0-31.085938 3.441406-45.277344 10.238281l-49.484375 49.484375c-6.796875 14.191406-10.238281 29.425782-10.238281 45.277344 0 57.890625 47.109375 105 105 105s105-47.109375 105-105-47.109375-105-105-105zm0 0" fill="#b4d2d7"/><path d="m105 0c-57.890625 0-105 47.109375-105 105s47.109375 105 105 105c15.851562 0 31.085938-3.441406 45.277344-10.238281l49.484375-49.484375c6.796875-14.191406 10.238281-29.425782 10.238281-45.277344 0-57.890625-47.109375-105-105-105zm0 0" fill="#e1ebf0"/><path d="m199.761719 361.722656-49.484375-49.484375c-14.191406-6.796875-29.425782-10.238281-45.277344-10.238281-57.890625 0-105 47.109375-105 105s47.109375 105 105 105 105-47.109375 105-105c0-15.851562-3.441406-31.085938-10.238281-45.277344zm0 0" fill="#e1ebf0"/><path d="m372.699219 309.101562c-14.101563-14.101562-21.898438-33.003906-21.898438-53.101562s7.796875-39 21.898438-53.101562l51.300781-51.296876c18.511719-18.511718 16.738281-47.445312 0-63.601562-16.800781-17.101562-46.5-17.101562-63.601562 0l-51.296876 51.300781c-14.101562 14.101563-33.601562 21.300781-53.101562 21.300781s-39-7.203124-53.101562-21.300781l-51.296876-51.300781c-17.101562-17.101562-46.800781-17.101562-63.601562 0-16.746094 16.164062-18.503906 45.097656 0 63.601562l51.300781 51.296876c14.101563 14.101562 21.898438 33.003906 21.898438 53.101562s-7.796875 39-21.898438 53.101562l-51.300781 51.296876c-18.511719 18.511718-16.738281 47.445312 0 63.601562 16.800781 17.101562 46.5 17.101562 63.601562 0l51.296876-51.300781c14.101562-14.101563 33.601562-21.300781 53.101562-21.300781s39 7.203124 53.101562 21.300781l51.296876 51.300781c18.511718 18.511719 47.445312 16.738281 63.601562 0 16.746094-16.164062 18.503906-45.097656 0-63.601562zm0 0" fill="#4a696f"/><path d="m424 360.398438c18.511719 18.511718 16.738281 47.441406 0 63.601562-16.167969 16.746094-45.097656 18.5-63.601562 0l-51.296876-51.300781c-14.101562-14.101563-33.601562-21.300781-53.101562-21.300781v-190.796876c19.5 0 39-7.203124 53.101562-21.300781l51.296876-51.300781c17.101562-17.101562 46.800781-17.101562 63.601562 0 16.746094 16.164062 18.503906 45.097656 0 63.601562l-51.300781 51.296876c-14.101563 14.101562-21.898438 33.003906-21.898438 53.101562s7.796875 39 21.898438 53.101562zm0 0" fill="#293939"/><path d="m256 211c-24.902344 0-45 20.097656-45 45s20.097656 45 45 45 45-20.097656 45-45-20.097656-45-45-45zm0 0" fill="#64e1dc"/><path d="m301 256c0 24.902344-20.097656 45-45 45v-90c24.902344 0 45 20.097656 45 45zm0 0" fill="#00c8c8"/></svg>