<svg id="Capa_1" enable-background="new 0 0 512 512" height="512" viewBox="0 0 512 512" width="512" xmlns="http://www.w3.org/2000/svg"><g><path d="m4.058 301.65c-2.746-15.254-4.14-30.977-4.055-47.04.74-139.224 117.13-254.801 256.356-254.61 141.22.194 255.641 114.735 255.641 256 0 34.945-7.002 68.255-19.679 98.604-17.556 42.026-58.915 69.163-104.461 69.163h-237.538c-71.862 0-133.533-51.391-146.264-122.117z" fill="#24d3b5"/><path d="m416 320c0 88.366-71.634 160-160 160s-160-71.634-160-160 71.634-160 160-160 160 71.634 160 160z" fill="#93e2c6"/><path d="m145 263.319v20c0 2.761 2.239 5 5 5h40c2.761 0 5 2.239 5 5v155h-60l-10-30v-155c0-2.761 2.239-5 5-5h10c2.761 0 5 2.239 5 5zm185-9.096h-30c-2.761 0-5 2.239-5 5v125.867h60v-175.867c0-2.761-2.239-5-5-5h-10c-2.761 0-5 2.239-5 5v40c0 2.761-2.239 5-5 5zm134.894 56.016h-30c-2.761 0-5-2.239-5-5v-60c0-2.761-2.239-5-5-5h-30c-2.761 0-5 2.239-5 5v74.635c0 2.761-2.239 5-5 5h-10c-2.761 0-5 2.239-5 5v85h20l40-24.635h40v-75c0-2.762-2.239-5-5-5zm-211.561-30.686h-23.333c-2.761 0-5 2.239-5 5v175h50v-145c0-2.761-2.239-5-5-5h-6.667c-2.761 0-5-2.239-5-5v-20c0-2.761-2.238-5-5-5zm-173.418 78.512h-30.851c-2.761 0-5-2.239-5-5v-65.491c0-2.761 2.239-5 5-5h30.851c2.761 0 5 2.239 5 5v65.491c0 2.762-2.239 5-5 5z" fill="#20b7a1"/><path d="m204.5 33.63v45c0 4.142-3.358 7.5-7.5 7.5s-7.5-3.358-7.5-7.5v-45c0-4.142 3.358-7.5 7.5-7.5s7.5 3.358 7.5 7.5zm-158.5 112.5c4.142 0 7.5-3.358 7.5-7.5v-45c0-4.142-3.358-7.5-7.5-7.5s-7.5 3.358-7.5 7.5v45c0 4.142 3.358 7.5 7.5 7.5zm97.754-1.11-65.111 65.11h-39.143c-4.142 0-7.5 3.358-7.5 7.5 0 4.142 3.358 7.5 7.5 7.5h77c4.142 0 7.5-3.358 7.5-7.5 0-4.142-3.358-7.5-7.5-7.5h-16.644l54.504-54.504c2.929-2.929 2.929-7.678 0-10.606-2.928-2.929-7.677-2.929-10.606 0zm328.746 65.11h-39.143l-65.111-65.11c-2.929-2.929-7.678-2.929-10.606 0-2.929 2.929-2.929 7.677 0 10.606l54.504 54.504h-16.644c-4.142 0-7.5 3.358-7.5 7.5 0 4.142 3.358 7.5 7.5 7.5h77c4.142 0 7.5-3.358 7.5-7.5 0-4.142-3.358-7.5-7.5-7.5zm-6.5-64c4.142 0 7.5-3.358 7.5-7.5v-45c0-4.142-3.358-7.5-7.5-7.5s-7.5 3.358-7.5 7.5v45c0 4.142 3.358 7.5 7.5 7.5zm-151-120c-4.142 0-7.5 3.358-7.5 7.5v45c0 4.142 3.358 7.5 7.5 7.5s7.5-3.358 7.5-7.5v-45c0-4.142-3.358-7.5-7.5-7.5z" fill="#147d73"/><path d="m336 182.13h-160c-5.523 0-10-4.477-10-10 0-5.523 4.477-10 10-10h160c5.523 0 10 4.477 10 10 0 5.523-4.477 10-10 10zm-100.5-148.5h-77c-4.142 0-7.5 3.358-7.5 7.5 0 4.142 3.358 7.5 7.5 7.5h77c4.142 0 7.5-3.358 7.5-7.5 0-4.142-3.358-7.5-7.5-7.5zm-143.5 67.5c0 4.142-3.358 7.5-7.5 7.5h-77c-4.142 0-7.5-3.358-7.5-7.5 0-4.142 3.358-7.5 7.5-7.5h77c4.142 0 7.5 3.358 7.5 7.5zm420 0c0 4.142-3.358 7.5-7.5 7.5h-77c-4.142 0-7.5-3.358-7.5-7.5 0-4.142 3.358-7.5 7.5-7.5h77c4.142 0 7.5 3.358 7.5 7.5zm-151-60c0 4.142-3.358 7.5-7.5 7.5h-77c-4.142 0-7.5-3.358-7.5-7.5 0-4.142 3.358-7.5 7.5-7.5h77c4.142 0 7.5 3.358 7.5 7.5z" fill="#199a8e"/><path d="m191.968 222.479-12.251 14.523c-1.78 2.111-4.935 2.378-7.046.598-2.111-1.781-2.378-4.935-.598-7.046l12.251-14.523c1.781-2.111 4.935-2.378 7.046-.598 2.11 1.78 2.378 4.935.598 7.046zm-14.127-16.543c-.234-2.751-2.653-4.793-5.405-4.559l-18.932 1.607c-2.751.233-4.793 2.653-4.559 5.405s2.653 4.793 5.405 4.559l18.932-1.606c2.751-.234 4.792-2.654 4.559-5.406zm32.563 45.046-1.607-18.932c-.233-2.751-2.653-4.793-5.405-4.559-2.751.233-4.793 2.653-4.559 5.405l1.607 18.932c.233 2.751 2.653 4.793 5.405 4.559 2.751-.234 4.793-2.654 4.559-5.405z" fill="#e9f3fe"/><path d="m511 149.13c0 9.389-7.611 17-17 17h-476c-9.389 0-17-7.611-17-17 0-9.389 7.611-17 17-17h69.012c22.976 0 44.75-10.27 59.364-28 14.614-17.73 36.388-28 59.364-28h100.52c22.976 0 44.75 10.27 59.364 28 14.614 17.73 36.388 28 59.364 28h69.012c9.389 0 17 7.611 17 17z" fill="#c8e2fd"/><path d="m510.997 149.454c-.173 9.239-7.716 16.676-16.997 16.676h-231.752c-24.853 0-45-20.147-45-45 0-24.853 20.147-45 45-45h44.012c22.976 0 44.75 10.27 59.364 28 14.614 17.73 36.388 28 59.364 28h68.566c9.529 0 17.621 7.797 17.443 17.324z" fill="#e1ebf0"/><path d="m300 206.13h-88c-5.523 0-10-4.477-10-10v-60c0-5.523 4.477-10 10-10h88c5.523 0 10 4.477 10 10v60c0 5.523-4.477 10-10 10z" fill="#3342ae"/><path d="m300 206.13h-69.17c-5.523 0-10-4.477-10-10v-60c0-5.523 4.477-10 10-10h69.17c5.523 0 10 4.477 10 10v60c0 5.523-4.477 10-10 10z" fill="#3d4ec6"/><path d="m300 211.13h-88c-8.271 0-15-6.729-15-15v-60c0-8.271 6.729-15 15-15h88c8.271 0 15 6.729 15 15v60c0 8.271-6.729 15-15 15zm-88-80c-2.757 0-5 2.243-5 5v60c0 2.757 2.243 5 5 5h88c2.757 0 5-2.243 5-5v-60c0-2.757-2.243-5-5-5z" fill="#19305c"/><path d="m230 186.63c0 4.142-3.358 7.5-7.5 7.5s-7.5-3.358-7.5-7.5 3.358-7.5 7.5-7.5 7.5 3.358 7.5 7.5z" fill="#fb5858"/><path d="m250 166.13c0-11.046 8.954-20 20-20 11.046 0 20 8.954 20 20 0 11.046-8.954 20-20 20-11.046 0-20-8.954-20-20z" fill="#3342ae"/><path d="m288.074 174.704c-3.21 6.756-10.096 11.426-18.074 11.426-11.046 0-20-8.954-20-20 0-7.978 4.671-14.863 11.426-18.074-1.235 2.599-1.926 5.505-1.926 8.574 0 11.046 8.954 20 20 20 3.068 0 5.975-.691 8.574-1.926z" fill="#19305c"/><path d="m270 191.13c-13.785 0-25-11.215-25-25s11.215-25 25-25 25 11.215 25 25-11.215 25-25 25zm0-40c-8.271 0-15 6.729-15 15s6.729 15 15 15 15-6.729 15-15-6.729-15-15-15z" fill="#717ed6"/><path d="m292 155.63c0 4.142-3.358 7.5-7.5 7.5s-7.5-3.358-7.5-7.5 3.358-7.5 7.5-7.5 7.5 3.358 7.5 7.5z" fill="#ebe1dc"/><path d="m319.877 358.065h170.967c-18.827 43.259-49.257 80.305-87.36 107.207-8.262 5.833-18.126 9.039-28.239 9.047-.064 0-.127 0-.191 0-64.756 0-123.897-24.044-168.982-63.691 42.574-7.92 81.446-26.377 113.805-52.563z" fill="#717ed6"/><path d="m233.341 431.55c-9.562-6.367-18.67-13.361-27.268-20.921 42.574-7.921 81.445-26.377 113.804-52.563h52.21c-40.564 32.824-87.536 58.041-138.746 73.484z" fill="#5766ce"/><path d="m500.83 359.874c0 4.142-3.358 7.5-7.5 7.5h-187.043c-4.142 0-7.5-3.358-7.5-7.5s3.358-7.5 7.5-7.5h187.043c4.142 0 7.5 3.358 7.5 7.5z" fill="#274c91"/><path d="m379.713 461.826c10.498 0 20.849-.632 31.015-1.86-38.138 28.976-84.65 47.501-135.269 51.306-6.423.483-12.913-1.484-19.46-1.484-121.791 0-190.068-82.836-215.98-196.782-1.206-5.304 2.861-10.35 8.301-10.35h94.338c38.183 93.378 129.936 159.17 237.055 159.17z" fill="#2e5aac"/><path d="m410.729 459.966c-.54.41-1.083.818-1.626 1.224-1.876-.132-3.747-.283-5.611-.455 2.422-.223 4.834-.479 7.237-.769zm-356.802-146.961c-1.206-5.304 2.862-10.35 8.301-10.35h-47.557c-5.44 0-9.507 5.045-8.301 10.35 25.912 113.946 127.839 198.995 249.63 198.995 6.391 0 12.727-.235 19-.695 1.596-.117 3.189-.249 4.777-.395-111.102-10.234-201.644-91.461-225.85-197.905z" fill="#274c91"/><path d="m156.319 305.744c0 4.143-3.358 7.5-7.5 7.5h-142.394c-1.13-4.947-2.117-9.948-2.956-15h145.35c4.142 0 7.5 3.358 7.5 7.5zm-103.819 30.334c0 4.142-3.358 7.5-7.5 7.5s-7.5-3.358-7.5-7.5 3.358-7.5 7.5-7.5 7.5 3.357 7.5 7.5zm42.5-7.5c-4.142 0-7.5 3.358-7.5 7.5s3.358 7.5 7.5 7.5 7.5-3.358 7.5-7.5c0-4.143-3.358-7.5-7.5-7.5zm88.181 145.741c-4.142 0-7.5 3.358-7.5 7.5s3.358 7.5 7.5 7.5 7.5-3.358 7.5-7.5-3.358-7.5-7.5-7.5zm130 0c-4.142 0-7.5 3.358-7.5 7.5s3.358 7.5 7.5 7.5 7.5-3.358 7.5-7.5-3.358-7.5-7.5-7.5z" fill="#203e76"/></g></svg>