<svg height="512" viewBox="0 0 512 512" width="512" xmlns="http://www.w3.org/2000/svg"><g id="BULINE"><path d="m512 256q0 10.26-.8 20.32a256.13 256.13 0 0 1 -363.26 211.82q-10.84-5.06-21.12-11.09a255.92 255.92 0 0 1 -126.02-200.73q-.8-10.06-.8-20.32c0-141.38 114.62-256 256-256s256 114.62 256 256z" fill="#7fadc8"/></g><g id="Icons"><circle cx="258.22" cy="276.32" fill="#6a9db4" r="207.43"/><path d="m511.2 276.32a256.13 256.13 0 0 1 -363.26 211.82q-10.84-5.06-21.12-11.09a255.92 255.92 0 0 1 -126.02-200.73z" fill="#72af7e"/><g fill="#fff"><path d="m407.83 79.61a16 16 0 0 0 -21.87-15 28.48 28.48 0 0 0 -53.25-11.35 21.32 21.32 0 1 0 -4.81 42.3v.06h64.39a16 16 0 0 0 15.54-16.01z"/><path d="m158 123v-.06a21.33 21.33 0 0 0 -1.21-42.62 21.54 21.54 0 0 0 -3.61.32 28.48 28.48 0 0 0 -53.18 11.3 16 16 0 1 0 -6.33 31z"/><path d="m356.15 224.58a15.18 15.18 0 0 0 -2.54.23 20 20 0 0 0 -37.38 8 11.15 11.15 0 0 0 -4.09-.78 11.27 11.27 0 0 0 -.37 22.53h45.23a15 15 0 0 0 -.85-29.94z"/><path d="m182.9 240.74a11.11 11.11 0 0 0 -4.09.78 20 20 0 0 0 -37.39-8 15 15 0 1 0 -3.42 29.73h45.22a11.27 11.27 0 0 0 -.36-22.53z"/></g><path d="m278.21 120.45h-44.16l7.95-45.77a14.35 14.35 0 0 1 14.14-11.9 14.35 14.35 0 0 1 14.14 11.9z" fill="#fcfdff"/><path d="m253.21 223.65h9.86v16.55h-9.86z" fill="#d1d1d1"/><path d="m300.8 134.11v50.24l27.37-3.73 123.36-16.83a11.48 11.48 0 0 0 -1-22.85l-124.31-5.67z" fill="#fcfdff"/><path d="m300.8 134.11v50.24l27.37-3.73c3.87-17.35 1.09-34.17-2-45.35z" fill="#d1d1d1"/><path d="m404.47 184.35a23.31 23.31 0 0 1 -20.67 23.17 21.23 21.23 0 0 1 -2.66.16 23.33 23.33 0 1 1 0-46.66 21.23 21.23 0 0 1 2.66.16 23.31 23.31 0 0 1 20.67 23.17z" fill="#b8b8b8"/><path d="m404.47 184.35a23.31 23.31 0 0 1 -20.67 23.17 23.32 23.32 0 0 1 0-46.34 23.31 23.31 0 0 1 20.67 23.17z" fill="#d1d1d1"/><path d="m395.47 184.35a14.32 14.32 0 0 1 -11.33 14 14.14 14.14 0 0 1 -3 .32 14.33 14.33 0 1 1 0-28.66 14.14 14.14 0 0 1 3 .32 14.32 14.32 0 0 1 11.33 14.02z" fill="#20232f"/><path d="m395.47 184.35a14.32 14.32 0 0 1 -11.33 14 14.32 14.32 0 0 1 0-28 14.32 14.32 0 0 1 11.33 14z" fill="#272b3c"/><path d="m217.14 134.11v50.24l-27.37-3.73-123.36-16.83a11.48 11.48 0 0 1 1-22.85l124.31-5.67z" fill="#fcfdff"/><path d="m217.14 134.11v50.24l-27.37-3.73c-3.87-17.35-1.09-34.17 2-45.35z" fill="#d1d1d1"/><path d="m160.14 184.35a23.34 23.34 0 0 1 -20.83 23.2c-.82.08-1.65.13-2.5.13a23.33 23.33 0 1 1 0-46.66c.85 0 1.68 0 2.5.13a23.34 23.34 0 0 1 20.83 23.2z" fill="#b8b8b8"/><path d="m160.14 184.35a23.34 23.34 0 0 1 -20.83 23.2 23.33 23.33 0 0 1 0-46.4 23.34 23.34 0 0 1 20.83 23.2z" fill="#d1d1d1"/><path d="m151.14 184.35a14.34 14.34 0 0 1 -11.5 14.05 14.68 14.68 0 0 1 -2.83.28 14.33 14.33 0 1 1 0-28.66 14.68 14.68 0 0 1 2.83.28 14.34 14.34 0 0 1 11.5 14.05z" fill="#20232f"/><ellipse cx="139.64" cy="184.35" fill="#272b3c" rx="11.5" ry="14.05"/><path d="m310.7 165.25a64.15 64.15 0 0 1 -.53 8.26c-3.28 25.54-21.57 45.72-44.68 49.3a47.88 47.88 0 0 1 -7.32.56c-26.49 0-48.41-21.67-52-49.86a64.15 64.15 0 0 1 -.53-8.26 62.86 62.86 0 0 1 5.56-26c8.64-19 26.44-32.08 47-32.08a46.77 46.77 0 0 1 7.33.57c17.4 2.68 32.08 14.79 39.67 31.51a62.86 62.86 0 0 1 5.5 26z" fill="#d1d1d1"/><path d="m310.7 165.25a64.15 64.15 0 0 1 -.53 8.26c-3.28 25.54-21.57 45.72-44.68 49.3-23.11-3.58-41.4-23.76-44.68-49.3a64.15 64.15 0 0 1 -.53-8.26 62.86 62.86 0 0 1 5.56-26c7.58-16.72 22.25-28.83 39.66-31.51 17.4 2.68 32.08 14.79 39.67 31.51a62.86 62.86 0 0 1 5.53 26z" fill="#fcfdff"/><path d="m310.7 165.25a64.15 64.15 0 0 1 -.53 8.26q-11.49 2.33-23 3.62c-1.6.19-3.21.36-4.82.5q-8.43.8-16.88 1a254.78 254.78 0 0 1 -32-1.08c-1.6-.14-3.2-.31-4.8-.5q-11.31-1.29-22.61-3.58a64.15 64.15 0 0 1 -.53-8.26 62.86 62.86 0 0 1 5.56-26q11.67-1.2 23.32-1.81c1.64-.09 3.28-.16 4.92-.23q13.11-.54 26.23-.33 4.93.07 9.87.27c1.64.06 3.3.14 4.94.22q12.36.6 24.72 1.88a62.86 62.86 0 0 1 5.61 26.04z" fill="#20232f"/><path d="m310.7 165.25a64.15 64.15 0 0 1 -.53 8.26q-11.49 2.33-23 3.62c-1.6.19-3.21.36-4.82.5q-8.43.8-16.88 1-8.64-.24-17.29-1.08c-1.6-.14-3.2-.31-4.8-.5q-11.31-1.29-22.61-3.58a64.15 64.15 0 0 1 -.53-8.26 62.86 62.86 0 0 1 5.56-26q11.67-1.2 23.32-1.81c1.64-.09 3.28-.16 4.92-.23q5.79-.24 11.56-.33 4.93.07 9.87.27c1.64.06 3.3.14 4.94.22q12.36.6 24.72 1.88a62.86 62.86 0 0 1 5.57 26.04z" fill="#272b3c"/><path d="m239.37 137.17-5.85 40.42c-1.6-.14-3.2-.31-4.8-.5l5.74-39.69c1.64-.09 3.27-.16 4.91-.23z" fill="#31374a"/><path d="m287.17 177.13c-1.6.19-3.21.36-4.82.5l-6.88-40.52c1.65.06 3.3.14 4.95.22z" fill="#31374a"/><rect fill="#20232f" height="18.75" rx="5.02" width="15.88" x="250.2" y="234.56"/><rect fill="#272b3c" height="18.75" rx="5.02" width="12.87" x="253.21" y="234.56"/><path d="m387.89 475.45a256.41 256.41 0 0 1 -239.95 12.69q-10.84-5.06-21.12-11.09l8.34-33.73 38.4-155.47 2.42-9.79h164l2.38 9.79 37.95 156.22z" fill="#41465b"/><path d="m387.89 475.45a256.41 256.41 0 0 1 -239.95 12.69l7.77-31.45 41.71-168.85 2.42-9.79h140.1l2.38 9.79 37.95 156.22z" fill="#4b506d"/><path d="m273.46 349.39h-27.5l2-55h23.5z" fill="#e5e7f2"/><path d="m278.47 445.39h-37.51l5-75.5h27.5z" fill="#e5e7f2"/><rect fill="#41465b" height="13.08" rx="6.54" width="450.1" x="32.41" y="274.76"/></g></svg>