<svg id="Layer_1" enable-background="new 0 0 150 150" height="512" viewBox="0 0 150 150" width="512" xmlns="http://www.w3.org/2000/svg" xmlns:xlink="http://www.w3.org/1999/xlink"><clipPath id="SVGID_2_"><path id="SVGID_1_" d="m136.075 31.635c4.191 5.918 7.507 12.41 9.847 19.274-2.341-6.883-5.67-13.388-9.885-19.312"/></clipPath><g><path d="m.07 75.002c0 41.38 33.545 74.925 74.925 74.925s74.925-33.545 74.925-74.925-33.544-74.926-74.924-74.926c-.006 0-.013 0-.019 0-41.37 0-74.906 33.537-74.906 74.906-.001.007-.001.013-.001.02" fill="#ededed"/><path d="m17.65 121.035c-7.942-8.799-11.98-24.759-12.59-36.453-.944-13.376.878-26.803 5.352-39.443.676-1.541-.026-3.339-1.568-4.014-.17-.075-.347-.133-.527-.176 18.805-36.861 63.931-51.498 100.792-32.692s51.497 63.931 32.692 100.791c-18.678 36.612-63.365 51.342-100.153 33.013-1.257-.609-2.476-1.276-3.676-1.905-3.011-1.692-5.895-3.602-8.628-5.714-2.79-2.12-5.407-4.457-7.828-6.99-.705-.686-1.371-1.39-2.019-2.114l-.914-1.048c.262-1.125-.06-2.306-.857-3.143" fill="#ededed"/><g fill="#4da0dc"><path d="m.051 75.002c-.035 18.577 6.874 36.496 19.369 50.242h.324c.571 0 1.086.533 1.314.952.229.419.267.819.457 1.181 2.398 2.517 4.99 4.841 7.752 6.952h.648c.895 0 1.028.438 1.428 1.105.485.829 1.208 1.493 2.076 1.905.994.356 2.021.612 3.066.762.648.133.914.171 1.143.838.127.423.216.856.267 1.295 1.2.686 2.419 1.352 3.676 1.905 0-1.771-1.219-3.238-1.276-5.028.029-.412.029-.826 0-1.238-.095-.476-.362-.571-.533-.971s-.476-1.524 0-1.905 1.333-.514 1.505-1.447c.038-.265.038-.535 0-.8-.109-.903-.025-1.818.248-2.685.365-.698 1.122-1.099 1.905-1.009.686 0 1.295.457 1.905.21.362-.114.533-.514.876-.629.283-.057.574-.057.857 0h2.628c.66-.06 1.304-.234 1.905-.514.933-.286 1.162-.743 1.657-1.428.495-.686.895-.971 1.257-1.524.133-.19.324-.362.438-.533.139-.31.26-.628.362-.952.286-.552.971-.743 1.181-1.371.124-.577.124-1.175 0-1.752 0-.457-.419-1.181-.21-1.6s1.028-.324 1.409-.324c.709-.005 1.362.384 1.695 1.009.354.441.567.979.609 1.543.066.499.066 1.005 0 1.505-.152.609-.876.762-1.162 1.314s-.152 1.428-.457 2.076c-.216.478-.32.999-.305 1.524-.19 1.238-1.333 1.486-2.381 1.447-.419 0-1.581-.21-1.905.21-.324.419 0 1.6 0 2.076-.057.423-.057.853 0 1.276.198.57.563 1.068 1.048 1.428.602.663 1.335 1.195 2.152 1.562.637.413 1.349.698 2.095.838.746.076 1.484.21 2.209.4.869.061 1.733.169 2.59.324.5.234 1.023.413 1.562.533.336.029.674.029 1.009 0 .311-.018.622-.018.933 0 .576.068 1.157.068 1.733 0 .376-.171.738-.368 1.086-.59.379-.169.786-.265 1.2-.286.848-.085 1.704-.027 2.533.171.819.248 2.038.667 2.857.171.4-.229.324-.267.514-.648.196-.247.412-.476.648-.686.248-.229.819-.705.838-1.048s-.229-.438-.324-.59c-.4-.59-.838-1.162-1.2-1.771-.666-.789-1.142-1.721-1.39-2.724-.088-.677-.029-1.366.171-2.019.247-1.305.324-2.637.229-3.961.115-.789.063-1.594-.152-2.362-.19-.438-.571-.743-.667-1.238-.105-1.058-.105-2.123 0-3.181 0-.8-.381-2.495.533-2.8 1.39-.495 2.114.8 2.057 1.905.104.859.257 1.711.457 2.552-.105.726-.105 1.464 0 2.19.267.686.971.99 1.314 1.581.143.665.143 1.354 0 2.019-.043.721.095 1.441.4 2.095.376.654.689 1.343.933 2.057.133 1.215.133 2.441 0 3.657-.139 1.203.166 2.415.857 3.409.457.533.648.667 0 1.105-.976.607-2.002 1.129-3.066 1.562-.775.237-1.527.543-2.247.914-.6.278-1.245.446-1.905.495-.895.229-1.79.514-2.647.781-.362.133-1.428 0-1.562.419.505.759 1.375 1.194 2.285 1.143.917.073 1.818.292 2.666.648.682.288 1.323.666 1.905 1.124.67.684 1.595 1.057 2.552 1.028 1.017-.083 2.041.008 3.028.267 1.21.543 2.493.902 3.809 1.067h1.905c1.162-.115 2.334-.076 3.485.114 1.558.279 3.142.387 4.723.324h1.238c1.14-.195 2.31-.11 3.409.248l.419.267c12.565-4.895 23.565-13.11 31.825-23.769-.52-.317-.962-.747-1.295-1.257-.17-.34-.28-.708-.324-1.086-.29-.599-.477-1.243-.552-1.905.111-.707.263-1.406.457-2.095 0-.648.152-2.152-.438-2.59s-1.238-.171-1.676-.267c-.477-.157-.931-.375-1.352-.648-1.124-.667-1.067-1.333-.648-2.438.21-.571.248-1.143.4-1.714.249-.693.616-1.337 1.086-1.905.481-.878.81-1.831.971-2.819.082-.48.271-.936.552-1.333.152-.133.4-.248.571-.381.492-.622.872-1.324 1.124-2.076.346-.689.782-1.329 1.295-1.905.762-.8 1.486-1.581 2.19-2.457.457-.533 1.048-.933 1.466-1.447.419-.514.457-1.048.781-1.486.397-.393.725-.85.971-1.352.726-1.371 1.271-2.831 1.619-4.342.095-1.452.095-2.909 0-4.361-.011-.896-.107-1.789-.286-2.666-.128-.583-.347-1.142-.648-1.657-.177-.225-.318-.475-.419-.743 0-.552.152-1.181 0-1.79-.198-.423-.499-.79-.876-1.067-.62-.601-1.205-1.237-1.752-1.905-.325-.606-.587-1.244-.781-1.905-.426-.633-1.038-1.119-1.752-1.39-.465-.33-1.033-.478-1.6-.419-.88.017-1.726-.344-2.324-.99-.445-.356-.83-.781-1.143-1.257-.139-.318-.304-.624-.495-.914-.467-.623-1.143-1.056-1.905-1.219h-.686c-.456.037-.915.037-1.371 0-.552 0-1.105-.21-1.676-.286-.507-.038-1.016-.038-1.524 0h-1.105c-.739-.08-1.486-.035-2.209.133-1.795.968-3.653 1.814-5.561 2.533-1.086.248-2.228.114-3.314.324-.447.085-.906.085-1.352 0-.743-.229-1.486-.571-2.228-.133-.324.19-.571.533-.857.724-.286.19-.724.324-1.048.552-.531.385-.994.854-1.371 1.39-.571.8-1.2 1.543-1.79 2.285-.296.564-.633 1.105-1.009 1.619-.438.476-1.238.533-1.752.952s-.686 1.352-1.524 1.543c-.532.095-1.054.235-1.562.419-.495.171-1.143.229-1.467.667-.59.819-.609 1.905-1.409 2.628s-2.609 2.285-2.228 3.942c.305 1.371 1.447 2.476 1.905 3.809.187.486.227 1.016.114 1.524-.15.308-.277.626-.381.952.038.533.038 1.067 0 1.6-.206.484-.455.95-.743 1.39-.419.724-.762 1.505-1.162 2.247-.411.845-1.18 1.461-2.095 1.676-.282.065-.575.065-.857 0-.313-.117-.658-.117-.971 0-.571.166-1.064.531-1.39 1.028-.035.634-.035 1.27 0 1.905-.079.771-.285 1.524-.609 2.228-.572.85-1.409 1.486-2.381 1.809-.782.208-1.527.536-2.209.971-.529.592-.919 1.295-1.143 2.057-.438.914-1.466 1.105-2.266 1.657-.471.493-1.072.843-1.733 1.009-1.119.143-2.252.143-3.371 0-.724-.095-1.352-.571-2.076-.705-.724-.133-1.657-.438-1.905-1.295-.162-.708-.162-1.444 0-2.152.171-.552.876-.648 1.333-.914.579-.409 1.223-.718 1.905-.914.354-.012.705-.063 1.048-.152.846-.518 1.61-1.16 2.266-1.905.6-.451.958-1.154.971-1.905.134-.685.061-1.394-.21-2.038-1.022-.052-2.047.031-3.047.248-.977.256-1.98.403-2.99.438-.983.133-1.972-.206-2.666-.914-.648-.914 0-2.4-1.086-3.066-.983 1.045-1.858 2.187-2.609 3.409-.59 1.143-1.028 2.171-2.343 2.552-.59.133-3.562.438-3.352-.895 0-.476 1.009-.895 1.257-1.219.811-.913 1.352-2.034 1.562-3.238.171-.971.552-.971 1.295-1.543.743-.571.8-1.067 1.333-1.505.652-.495 1.164-1.152 1.486-1.905.305-.629 0-1.905.59-2.381s1.295-.229 1.752-.229c.548-.105 1.111.083 1.486.495.5.488 1.08.888 1.714 1.181.438.495.229 1.238.229 1.905-.128.641-.054 1.306.21 1.905.818.956 2.018 1.5 3.276 1.486.838-.114.819-.838 1.143-1.447.3-.473.624-.931.971-1.371.407-.659 1.13-1.056 1.905-1.048.316.144.455.517.311.832-.013.028-.028.056-.045.082v.305c.152.457 1.657 1.276 1.733 1.295.667.21 1.39.495 1.562-.324 0-.248 0-.571 0-.819.119-.896-.234-1.789-.933-2.362-.876-.667-1.428-1.009-1.524-2.19-.002-1.022-.136-2.04-.4-3.028 0-.343-.267-.724-.343-1.105-.124-.922-.181-1.851-.171-2.781 0-.648-.248-2.057.438-2.457h.648c.324 0 .457.152.438.419.324.419.19.724.819.914s1.79.438 2.247 0 .171-.514.171-.762v-1.695c0-.476-.229-1.428 0-1.905.229-.476.99-.514 1.6-.495s1.086 0 1.39-.305c.305-.305.133-1.409.552-2s.952-1.447 1.676-1.333c.229 0 .419.267.59.305.387.105.794.105 1.181 0 .228-.057.446-.147.648-.267.428-.114.873-.153 1.314-.114h2.647c.895 0 1.676.381 2.552.438 1.39 0 1.409-.686 2.019-1.714.609-1.028 1.276-1.219 1.733-1.905.628-.996 1.2-2.026 1.714-3.085.424-.79.732-1.636.914-2.514.229-1.143-1.428-.705-2.095-.99-.667-.286-1.409-1.219-2.133-1.505-.693-.196-1.413-.28-2.133-.248-.629 0-1.905-.324-2.381 0-.248.171-.229.438-.343.667-.386.564-.73 1.156-1.028 1.771-.229.667-.495 1.257-.705 1.905-.19.586-.619 1.063-1.181 1.314-.785.215-1.624.083-2.305-.362-.589-.293-1.119-.694-1.562-1.181-.286-.438-.171-.819-.229-1.276-.036-.412-.195-.804-.457-1.124-.381-.667-.8-2.228-1.905-1.905-.533.171-1.124.914-1.619 1.219-.578.398-1.131.831-1.657 1.295-.439.394-.911.751-1.409 1.067-.715.162-1.457.162-2.171 0-.895 0-1.638-.59-2.4 0-.49.482-1.082.846-1.733 1.067-.444.118-.896.207-1.352.267-.743 0-.667 0-.99-.4-.324-.4-.59-.933-1.39-1.124-.671-.138-1.369.029-1.905.457.321.661.69 1.298 1.105 1.905.217.338.169.782-.114 1.067-.248.667-.8 1.276-1.009 1.905-.18.4-.258.838-.229 1.276.068.611-.193 1.213-.686 1.581-.538.578-1.186 1.044-1.905 1.371-.838.343-1.409 0-2.095-.476-1.009-.667-1.467-1.905-2.8-1.905-.914 0-2.457.362-3.238-.248-.781-.609-.381-1.39-.476-2.076-.088-.574-.139-1.153-.152-1.733 0-1.295-1.124-1.676-2.209-2.019-1.619-.514-3.523-1.143-3.809-3.047 1.613-.406 3.316-.237 4.819.476.957.692 1.844 1.477 2.647 2.343.436.48.986.84 1.6 1.048.438.171.857.362 1.314.59.457.229 1.162 1.181 2.019 1.257.526.038 1.055.038 1.581 0 2.8 0 .609-2.781.495-4.228 0-.876 0-1.333.914-1.447s1.905-.324 1.905-1.162-.857-1.009-1.276-1.352c-.665-.779-1.371-1.523-2.114-2.228-1.333-1.086-3.371-.667-5.009-.667-1.028 0-1.905-.229-3.009-.229-.667 0-1.314 0-1.905 0h-1.905c-.272-.038-.547-.038-.819 0-.339.217-.703.389-1.086.514-.55.118-1.116.15-1.676.095-.695-.033-1.391.012-2.076.133-.743.171-.743.609-.648 1.295s.171.914.248 1.371c-.09.373-.341.687-.686.857-.496.622-.918 1.299-1.257 2.019-.135.283-.411.471-.724.495-.44.323-.86.672-1.257 1.048-.419.522-1.003.885-1.657 1.028-1.238 0-2.495 0-3.809 0-.53.086-1.07.086-1.6 0-.319-.098-.568-.348-.667-.667-.361-.317-.742-.61-1.143-.876-.99-1.105 0-2.99-1.105-4.038-.933.629 0 1.79 0 2.514.047.507.047 1.017 0 1.524-.115.652-.451 1.244-.952 1.676-.4.495-1.314 1.39-2.057.971s-.667-1.524-.876-2.076c-.283-.633-.655-1.223-1.105-1.752-1.095-1.092-2.078-2.292-2.933-3.581-.362-.724-.248-1.6-.609-2.305-.21-.381-.476-.552-.59-1.009-.114-1-.114-2.009 0-3.009.013-.423-.032-.846-.133-1.257-.232-.848-.531-1.676-.895-2.476-1.086.229-1.733 1.219-2.762 1.409-.449.057-.903.057-1.352 0h-.857c-.267 0-.705 0-.971 0-.412-.553-.651-1.216-.686-1.905 0-.781 0-1.581 0-2.324s0-1.333 0-1.905c-.042-.575-.239-1.128-.571-1.6-.324-.419-.819-.629-.971-1.162-.124-.935-.124-1.883 0-2.819-.009-.498.217-.97.609-1.276.305-.248.819-.305 1.086-.609.267-.305.305-1.219.286-1.905s0-1.238 0-1.905c-9.552 12.897-14.695 28.526-14.661 44.573"/><path d="m19.173 26.816c.343-.114.648-.381.99-.457.273.019.546.019.819 0 .343-.114.457-.343.648-.629.19-.286 1.028-.819 1.028-1.486.028-.33.028-.661 0-.99 0-.324-.362-.495-.438-.8.229-.476 1.562-.21 1.905 0 .371.205.797.292 1.219.248.609-.114 1.143-.762 1.543-1.2s.381-.686.667-.857 1.067-.286 1.543-.552c.627-.301 1.175-.744 1.6-1.295.248-.343.438-.705.705-1.028.42-.385.879-.723 1.371-1.009.267-.21.495-.495.743-.724s1.143-.438 1.771-.724c.367-.182.713-.405 1.028-.667.391-.298.829-.53 1.295-.686.742-.269 1.447-.634 2.095-1.086.213-.174.45-.315.705-.419.541-.227 1.047-.528 1.505-.895.382-.213.751-.448 1.105-.705.305-.267.571-.343.743-.686.171-.343.152-.743.4-.838s.419 0 .648 0c.376-.224.69-.538.914-.914.229-.324.438-.362.781-.533s.686-.438 1.048-.648.609-.838.762-1.467c0-.229.114-.457.152-.667 12.336-4.643 25.677-5.957 38.682-3.809.267.267.495.4.571.781.019.349.019.699 0 1.048.014.365.163.711.419.971.283.103.577.173.876.21.311.139.595.332.838.571.248.19.571.286.743.552.165.277.257.592.267.914.038.351.192.68.438.933.262.42.262.952 0 1.371-.218.506-.514.975-.876 1.39-.141.149-.24.333-.286.533 0 .229 0 .133-.19.286s-1.067 0-1.524.419c-.171.18-.355.345-.552.495-.19.114-.381.152-.59.267-.209.114-.609.933-.876 1.333s-.133.743-.19 1.219c-.114.838-.8 1.009-1.581 1.067-.393-.038-.788-.038-1.181 0l-.476.4c-.171.152-.571.324-.667.533v.381c0 .305 0 .914.267 1.162l.552.21c.324.152 1.048.324 1.238.629s0 .743-.21 1.028c-.176.438-.564.754-1.028.838-.24.086-.503.086-.743 0-.229-.114-.343-.362-.59-.457-.228-.08-.464-.131-.705-.152-.211-.009-.412-.09-.571-.229l-.324-.4c-.248-.21-1.657-.343-1.771 0-.12.446-.051.921.19 1.314.248.305.476.324.476.743 0 .781-.343 1.143-.609 1.905.85.515 1.858.704 2.838.533.363-.005.72.094 1.028.286.305.229.248.495 0 .781-.227.487-.508.947-.838 1.371-.153.247-.379.44-.648.552-.575.076-1.158.076-1.733 0-.631-.082-1.268-.12-1.905-.114-.457 0-1.181.324-1.581 0s-.19-.438-.362-.59c-.205-.125-.447-.179-.686-.152-.349.066-.707-.048-.952-.305-.552-.495-1.314-.229-1.905-.476-.21 0-.381-.21-.609-.286-.316-.088-.644-.12-.971-.095-.499.082-1.01.036-1.486-.133-.144-.108-.305-.192-.476-.248-.24-.029-.483-.029-.724 0-.288-.024-.575-.069-.857-.133-.499-.068-.982-.223-1.428-.457-.457-.343-.381-.933-.362-1.467-.02-.209-.02-.419 0-.629 0-.248.267-.438.324-.686-1.219-.152-2.476 0-3.809 0-.819-.114-1.905-1.009-1.505-1.905.157-.305.394-.561.686-.743.396-.077.804-.077 1.2 0 .484.087.983.048 1.447-.114.552-.362.781-1.086 1.524-1.162.488-.075.959-.236 1.39-.476.262-.142.479-.352.629-.609.19-.267.229-.362.095-.629-.272-.359-.653-.619-1.086-.743-.28-.129-.587-.188-.895-.171-.32.066-.651.066-.971 0-.248 0-.267-.19-.438-.381-.457-.457-1.771-.248-2.343-.229-.539.038-1.08.038-1.619 0-.192-.058-.39-.096-.59-.114-.324 0-.571.324-.8.495s-.4.343-.724.286c-.347-.126-.717-.178-1.086-.152-.419.114-.514.552-.705.876-.194.294-.432.558-.705.781-.49.368-.774.949-.762 1.562.667.362 1.905.495 2.266 1.124.228.398.321.859.267 1.314-.114 1.028-1.486 1.124-2.305 1.086-.468-.057-.941-.057-1.409 0-.381.133-.514.476-.743.762-.261.337-.659.539-1.086.552.669 1.16 1.899 1.883 3.238 1.905.719.063 1.442-.042 2.114-.305.369-.164.69-.42.933-.743.152-.19.19-.267.457-.286.373-.047.751-.047 1.124 0l.419.343c.324.229.762.267.952.648.162.425.24.878.229 1.333 0 .895-.514 1.162-1.276 1.276-.515.129-1.036.231-1.562.305-.267 0-.552 0-.819 0-.634-.043-1.27-.043-1.905 0-.343 0-.609.267-.971.381-.416.112-.846.157-1.276.133-.412.007-.819.091-1.2.248-.302.123-.626.181-.952.171-1.619 0-3.257 0-4.876 0-.648 0-1.295 0-1.905 0-.19 0-.552-.133-.705 0-.152.133-.248.648-.343.838-.132.205-.205.442-.209.686.028.247.028.496 0 .743-.107.325-.196.656-.267.99 0 .571 0 .609.419 1.048.419.438.724.362 1.067.59.27.232.6.384.952.438h.933 2.171c.41-.025.814-.109 1.2-.248.379-.136.778-.207 1.181-.21.506-.025 1-.161 1.447-.4.472-.264.988-.438 1.524-.514.287-.009.563-.117.781-.305l.419-.305.362-.381c.457-.21.857.21 1.143.533.286.324.838.971 1.295 1.447.18.219.418.383.686.476.348.038.699.038 1.048 0 .381-.139.731-.353 1.028-.629.351-.267.778-.414 1.219-.419h3.923c.362.133.629.819.724 1.143.137 1.108-.328 2.204-1.219 2.876-.142.146-.302.274-.476.381-.258.052-.513.122-.762.21-.533.305-.495 1.028-1.162 1.143s-2.266 0-2.666 1.048c0 .171 0 .419-.152.609-.108.277-.27.529-.476.743-.267.343-.229.762-.514 1.143-.528.601-1.101 1.161-1.714 1.676-.327.372-.758.637-1.238.762-1.064.171-2.145.209-3.219.114-.686 0-1.333-.133-2.038-.133h-8.78c-.381 0-.648 0-.933-.171-.352-.362-.59-.819-.686-1.314-.038-.284-.038-.573 0-.857.069-.341.205-.665.4-.952.179-.664.225-1.356.133-2.038.049-.391-.053-.786-.286-1.105l-.229-.343c-.286-.343-.743-.419-1.105-.686s-.362-.609-.343-1.067v-1.447c.019-.254.019-.508 0-.762 0-.533-.495-.762-.4-1.371.037-.361.147-.711.324-1.028l.571-.19c.381-.171.914-.59.933-1.048.019-.457-.343-1.048-.4-1.486s0-.571 0-.857 0-.838 0-1.276c0-.952 1.067-1.086 1.714-1.6.314-.223.564-.525.724-.876 0-.343-.362-.743-.609-.952-.328-.242-.741-.338-1.143-.267-.362 0-.838-.133-1.162 0-.933.533-.571 2.038-.571 2.895.067.436.067.879 0 1.314-.133.286-.533.552-.743.781-.235.293-.578.478-.952.514-.348.038-.699.038-1.048 0-.457 0-.8-.19-.8-.686.006-.468.232-.905.609-1.181.407-.261.741-.622.971-1.048.16-.452.205-.936.133-1.409 0-.229.133-.838 0-1.009s-.933 0-1.124 0c-.458-.008-.913.083-1.333.267-.248.171-.324.476-.552.609-.552.362-1.352.171-1.905.152-.702.04-1.35.389-1.771.952-.325.256-.581.59-.743.971-.418.705-.999 1.3-1.695 1.733-.571.552-.838 1.257-1.371 1.809-.381 0-.514.133-.895.133-.667 0-.762 0-1.086.648-.152.275-.344.526-.571.743l-.267.4c-.438.248-1.009-.514-1.181-.819-.212-.314-.319-.688-.305-1.067.036-.323.036-.649 0-.971-.305-.724-1.695-.648-2.285-.629-.286 0-.895.171-1.048-.171.346-.377.422-.51.822-.644z"/><path d="m149.521 67.384c-.476.267-.781.171-1.086-.324s-.419-.8-.686-1.162c-.533-.719-1.419-1.086-2.305-.952-.22-.039-.446-.039-.667 0-.305.095-.419.343-.743.4-.863.152-1.746.152-2.609 0-.724-.114-1.086-.724-1.524-1.295-.546-.762-.941-1.622-1.162-2.533-.076-.55-.076-1.107 0-1.657-.018-.562-.154-1.114-.4-1.619-.149-.396-.264-.803-.343-1.219.082-.549.036-1.109-.133-1.638-.171-.305-.438-.533-.59-.857s-.495-.933-.686-1.371l-.114-.514c-.163-.28-.285-.581-.362-.895 0-.305 0-.648 0-.952s-.286-.724-.324-1.105 0-.571 0-.838c-.21-1.193-.562-2.357-1.048-3.466-.172-.487-.459-.925-.838-1.276-.425-.336-.797-.734-1.105-1.181-.196-.536-.362-1.083-.495-1.638-.233-.477-.556-.904-.952-1.257-.346-.371-.629-.795-.838-1.257-.292-.486-.658-.923-1.086-1.295-.417-.328-.772-.728-1.048-1.181-.133-.324-.133-.705-.248-1.028-.1-.322-.164-.654-.19-.99-.112-.597-.324-1.17-.629-1.695-.229-.419-.19-1.028-.495-1.371-.424-.421-.89-.798-1.39-1.124-.479-.388-.937-.801-1.371-1.238-.337-.286-.638-.612-.895-.971-.305-.476-.648-.876-.971-1.314-.324-.438-.343-.857-.705-1.124s-1.086 0-1.276-.495v-.305c-.07-.183-.153-.361-.248-.533-.267-.724 0-1.524-.324-2.266-.093-.372-.247-.726-.457-1.048-.229-.305-.667-.533-.8-.914-.019-.228-.019-.457 0-.686 0-.248-.133-.438-.19-.686-.049-.367-.179-.718-.381-1.028l-.533-.781c-.253-.335-.464-.7-.629-1.086-.234-.437-.376-.916-.419-1.409 0-.248 0-.533 0-.762s-.705-.552-.971-.819c-.267-.267-.648-.686-1.048-1.009-.41-.362-.769-.779-1.067-1.238 20.5 12.138 34.004 33.299 36.381 57.002"/></g><g><g clip-path="url(#SVGID_2_)"><path d="m136.056 31.597h9.904v19.35h-9.904z" fill="#e06b58"/></g></g><path d="" fill="#d1d5d7"/><path d="m41.38 141.966.857.438-.667-.343h-.19m-6.589-3.809c1.733 1.105 3.485 2.114 5.295 3.085l-.267-.152c-1.447-.781-2.876-1.6-4.266-2.457zm-15.999-13.732c4.13 4.69 8.833 8.843 13.999 12.361l-.724-.495c-4.901-3.41-9.377-7.393-13.332-11.865m-.133-.153.114.133zm127.358-73.421v.21z" fill="#e06b58"/><path d="m106.078 143.166c-1.428.648-2.876 1.257-4.342 1.809-.914.362-1.905.686-2.781 1.009 2.423-.812 4.801-1.753 7.123-2.818m-70.468-4.457c1.39.857 2.819 1.676 4.266 2.457l-1.905-1.067-2.343-1.39m-23.616-23.121c1.925 2.989 4.063 5.834 6.399 8.513l.114.114v.114l.114.133c3.955 4.472 8.431 8.456 13.332 11.865-.952-.667-1.905-1.352-2.8-2.076-2.79-2.12-5.407-4.457-7.828-6.99-.705-.686-1.371-1.39-2.019-2.114-2.724-3.009-5.201-6.231-7.409-9.637m136.825-30.243v.248c.008-.082.008-.165 0-.248m0-1.447v.571c0-.19 0-.381 0-.571m.115-1.6c0 .324 0 .667-.095.99-.001-.323-.001-.666.095-.99m.209-2.609c0 .857-.133 1.733-.21 2.59.001-.857.153-1.733.21-2.59m0-1.219v1.2zm0-1.2v.781c0-.267 0-.533 0-.781m0-1.181c.009.159.009.318 0 .476.01-.158.01-.317 0-.476m-.362-8.761c.19 1.905.324 3.809.362 5.714 0-1.905-.171-3.809-.362-5.714" fill="#d1d5d7"/><path d="m41.152 129.148c-.029.501-.029 1.003 0 1.505.038.265.038.535 0 .8-.171.933-.933.933-1.505 1.447-.571.514-.152 1.428 0 1.905.152.476.438.495.533.971.029.412.029.826 0 1.238 0 1.79 1.219 3.257 1.276 5.028h-.19.19l.667.343c17.71 8.567 38.071 9.853 56.718 3.581.933-.324 1.905-.648 2.781-1.009 1.467-.552 2.914-1.162 4.342-1.809-1.428.648-2.876 1.257-4.342 1.809l-.419-.267c-.497-.244-1.048-.355-1.6-.324-.629 0-1.257 0-1.809 0h-1.905c-1.385.044-2.771-.065-4.133-.324-.626-.131-1.265-.188-1.905-.171-.552 0-1.105 0-1.657 0s-1.105 0-1.638 0h-.324c-1.316-.164-2.6-.524-3.809-1.067-.677-.214-1.386-.31-2.095-.286h-.933c-.957.029-1.882-.344-2.552-1.028-.582-.458-1.222-.836-1.905-1.124-.849-.356-1.749-.574-2.666-.648-.911.051-1.78-.383-2.285-1.143.133-.343 1.2-.286 1.562-.419.857-.267 1.752-.552 2.647-.781.659-.049 1.305-.217 1.905-.495.72-.371 1.472-.677 2.247-.914 1.065-.432 2.091-.955 3.066-1.562.667-.438.476-.571 0-1.105-.427-.555-.703-1.211-.8-1.905l-2.781.533c.14.129.228.305.248.495 0 .343-.59.819-.838 1.048-.235.209-.452.439-.648.686-.19.381-.114.419-.514.648-.283.165-.607.244-.933.229-.65-.048-1.29-.182-1.905-.4-.519-.155-1.059-.226-1.6-.21h-.933c-.414.02-.821.117-1.2.286-.347.223-.71.42-1.086.59-.298.031-.598.031-.895 0h-.838-.781-.648c-.171.019-.343.019-.514 0-.538-.121-1.062-.299-1.562-.533-.857-.155-1.722-.263-2.59-.324-.725-.19-1.464-.324-2.209-.4-1.316-.4-2.544-1.047-3.619-1.905-4.783-.659-9.49-1.782-14.056-3.352m-20.967-3.579h-.286c.648.724 1.314 1.428 2.019 2.114 2.408 2.538 5.013 4.881 7.79 7.009.914.724 1.905 1.409 2.8 2.076l.724.495c.648.457 1.333.895 1.905 1.333l.762.476 2.343 1.39 1.905 1.067.267.152-2.19-1.219c-.05-.439-.14-.872-.267-1.295-.229-.667-.495-.705-1.143-.838-1.045-.15-2.072-.405-3.066-.762-.868-.412-1.591-1.076-2.076-1.905-.362-.629-.514-1.105-1.257-1.105h-.171-.648c-2.79-2.12-5.407-4.457-7.828-6.99-.19-.362-.267-.781-.457-1.181-.246-.506-.721-.861-1.276-.952m120.537-60.62c-.259 3.065-.704 6.112-1.333 9.123.305.236.547.543.705.895.171.609 0 1.238 0 1.79.101.268.242.518.419.743.301.515.52 1.074.648 1.657.179.878.274 1.771.286 2.666.095 1.452.095 2.909 0 4.361-.348 1.512-.893 2.972-1.619 4.342-.246.502-.574.959-.971 1.352-.324.438-.419 1.009-.781 1.486-.362.476-1.009.914-1.467 1.447-.705.876-1.428 1.657-2.19 2.457-.513.575-.949 1.216-1.295 1.905-.251.752-.632 1.454-1.124 2.076-.171.133-.419.248-.571.381-.281.397-.47.853-.552 1.333-.098 1.045-.382 2.064-.838 3.009-.469.567-.837 1.212-1.086 1.905-.152.571-.19 1.143-.4 1.714-.419 1.105-.476 1.771.648 2.438.421.273.876.49 1.352.648.438 0 1.314 0 1.676.267s.533 1.905.438 2.59c-.178.664-.318 1.338-.419 2.019.075.661.262 1.305.552 1.905.044.378.154.745.324 1.086.333.51.775.94 1.295 1.257 7.76-9.816 12.922-21.43 15.008-33.768v-.19-.171-.21-.229-.171-.838-.248-.952c0-.19 0-.381 0-.571v-.171-.19-.19c0-.324 0-.667.095-.99 0-.857.152-1.733.21-2.59v-1.2-.571c0-.267 0-.533 0-.781v-.705c.01-.159.01-.318 0-.476v-1.086-1.905c0-1.905-.171-3.809-.362-5.714-.13.085-.282.131-.438.133-.248 0-.438-.133-.629-.457-.19-.324-.419-.8-.686-1.162-.533-.719-1.419-1.086-2.305-.952h-.381c-.094-.02-.192-.02-.286 0-.305.095-.419.343-.743.4-.458.091-.924.135-1.39.133-.406.028-.813.028-1.219 0-.489-.113-.913-.414-1.181-.838" fill="#d1d5d7"/><g fill="#4994c9"><path d="m78.291 132.139c-7.631 1.296-15.417 1.412-23.083.343 1.075.858 2.303 1.504 3.619 1.905.746.076 1.484.21 2.209.4.869.061 1.733.169 2.59.324.5.234 1.023.413 1.562.533.171.019.343.019.514 0h.648.781.838c.298.031.598.031.895 0 .376-.17.738-.368 1.086-.59.379-.169.786-.265 1.2-.286h.933c.541-.016 1.081.055 1.6.21.614.218 1.255.352 1.905.4.327.015.651-.064.933-.229.4-.229.324-.267.514-.648.196-.247.412-.476.648-.686.248-.229.819-.705.838-1.048-.019-.19-.107-.366-.248-.495m-72.813-29.349c1.77 4.423 3.964 8.665 6.552 12.665 2.207 3.406 4.685 6.628 7.409 9.637h.324c.555.092 1.03.447 1.276.952.19.4.267.819.457 1.181 2.409 2.525 5.014 4.855 7.79 6.971h.648.171c.743 0 .895.476 1.257 1.105.485.829 1.208 1.493 2.076 1.905.994.356 2.021.612 3.066.762.648.133.914.171 1.143.838.127.423.216.856.267 1.295l2.19 1.219 1.295.648h.19c0-1.771-1.219-3.238-1.276-5.028.029-.412.029-.826 0-1.238-.095-.476-.362-.571-.533-.971s-.476-1.524 0-1.905 1.333-.514 1.505-1.447c.038-.265.038-.535 0-.8-.029-.501-.029-1.003 0-1.505-14.317-4.945-26.8-14.108-35.807-26.284m133.453-29.216c-6.131 29.045-28.804 51.748-57.841 57.918.097.693.373 1.35.8 1.905.457.533.648.667 0 1.105-.976.607-2.002 1.129-3.066 1.562-.775.237-1.527.543-2.247.914-.6.278-1.245.446-1.905.495-.895.229-1.79.514-2.647.781-.362.133-1.428 0-1.562.419.505.759 1.375 1.194 2.285 1.143.917.073 1.818.292 2.666.648.682.288 1.323.666 1.905 1.124.67.684 1.595 1.057 2.552 1.028h.838c.71-.025 1.418.072 2.095.286 1.21.543 2.493.902 3.809 1.067h.324 1.638 1.657c.639-.017 1.278.041 1.905.171 1.362.259 2.748.368 4.133.324h1.905 1.809c.552-.031 1.103.08 1.6.324l.419.267c1.466-.552 2.914-1.162 4.342-1.809 10.79-5.053 20.218-12.607 27.502-22.036-.52-.317-.962-.747-1.295-1.257-.17-.34-.28-.708-.324-1.086-.29-.599-.477-1.243-.552-1.905.111-.707.263-1.406.457-2.095 0-.648.152-2.152-.438-2.59s-1.238-.171-1.676-.267c-.477-.157-.931-.375-1.352-.648-1.124-.667-1.067-1.333-.648-2.438.21-.571.248-1.143.4-1.714.249-.693.616-1.337 1.086-1.905.481-.878.81-1.831.971-2.819.082-.48.271-.936.552-1.333.152-.133.4-.248.571-.381.492-.622.872-1.324 1.124-2.076.346-.689.782-1.329 1.295-1.905.762-.8 1.486-1.581 2.19-2.457.457-.533 1.048-.933 1.466-1.447.419-.514.457-1.048.781-1.486.397-.393.725-.85.971-1.352.726-1.371 1.271-2.831 1.619-4.342.095-1.452.095-2.909 0-4.361-.011-.896-.107-1.789-.286-2.666-.128-.583-.347-1.142-.648-1.657-.177-.225-.318-.475-.419-.743 0-.552.152-1.181 0-1.79-.158-.352-.4-.659-.705-.895"/><path d="m135.047 30.226c3.613 8.918 5.463 18.451 5.447 28.073 0 2.114 0 4.209-.248 6.285.268.424.692.725 1.181.838.406.028.813.028 1.219 0 .467.002.932-.043 1.39-.133.324 0 .438-.305.743-.4.094-.02.192-.02.286 0h.381c.885-.133 1.772.233 2.305.952.267.362.438.762.686 1.162s.381.457.628.457c.156-.002.308-.048.438-.133-.54-5.516-1.703-10.953-3.466-16.208v-.21c-2.339-6.864-5.655-13.356-9.847-19.274l-1.009-1.371"/></g></g></svg>