<svg id="Capa_1" enable-background="new 0 0 512 512" height="512" viewBox="0 0 512 512" width="512" xmlns="http://www.w3.org/2000/svg"><g><g><path d="m449.678 88.591-30.682-14.924v-15.076c-44.274-36.599-101.066-58.591-162.996-58.591-141.385 0-256 114.615-256 256 0 9.458.522 18.793 1.522 27.984l.008.016 15.803 13.455-10.726 16.536c5.775 24.927 15.185 48.461 27.65 70.009l221.743 64 221.743-64c21.784-37.655 34.257-81.37 34.257-128 0-64.007-23.492-122.526-62.322-167.409z" fill="#ffbb16"/></g><g><path d="m1.53 284h17.264c8.284 0 15-6.716 15-15s6.716-15 15-15h260.229c8.284 0 15 6.716 15 15s-6.716 15-15 15h-74.456c-8.284 0-15 6.716-15 15s6.716 15 15 15h14.728c8.284 0 15 6.716 15 15s-6.716 15-15 15h-139.228c-8.284 0-15-6.716-15-15s-6.716-15-15-15h-73.466c-2.269-9.795-3.962-19.81-5.071-30z" fill="#ff931f"/></g><g><path d="m418.997 58.591h-86.725c-8.284 0-15 6.716-15 15s-6.716 15-15 15h-30.528c-8.284 0-15 6.716-15 15s6.716 15 15 15h122.869c8.284 0 15-6.716 15-15s6.716-15 15-15h25.065c-9.371-10.833-19.637-20.871-30.681-30z" fill="#ff931f"/></g><g><g><path d="m315.568 236.575-9.472 22.867c-.894 2.159-.307 4.648 1.459 6.18 14.921 12.941 33.636 20.693 53.337 22.093 2.331.166 4.507-1.179 5.401-3.338l9.472-22.867c.894-2.159.307-4.649-1.459-6.18-14.921-12.941-33.636-20.693-53.337-22.093-2.331-.166-4.506 1.179-5.401 3.338z" fill="#ccc"/></g><g><path d="m371.62 251.92-15.039 36.306c-1.585 3.827.232 8.214 4.059 9.799 3.827 1.585 8.214-.232 9.799-4.059l15.039-36.306c1.585-3.827-.232-8.214-4.059-9.799-3.827-1.585-8.214.232-9.799 4.059z" fill="#f73e3e"/></g><g><path d="m171.936 138.758-40.627-126.114c-.977-3.033-3.237-5.484-6.181-6.703l-13.335-5.524c-3.319-1.375-7.034.795-7.468 4.361l-14.041 115.439z" fill="#f73e3e"/></g><g><path d="m117.73 2.876-5.936-2.459c-3.319-1.375-7.034.795-7.468 4.361l-14.042 115.439 29-33.654c3.884-4.507 5.749-10.411 5.159-16.332z" fill="#d82525"/></g><g><path d="m496.959 325.105-161.414-66.86c-101.045-41.854-198.691-91.483-292.06-148.44-5.17-3.154-2.078-11.123 3.866-9.965 78.863 15.37 155.989 38.603 230.22 69.351l161.5 66.895c33.532 13.889 59.725 41.172 72.238 75.242 3.262 8.883-5.607 17.399-14.35 13.777z" fill="#e6e6e6"/></g><g><path d="m304.987 180.547-27.416-11.356c-74.231-30.748-151.356-53.981-230.22-69.351-5.944-1.158-9.036 6.811-3.866 9.965 76.868 46.891 156.64 88.802 238.816 125.51l.001-.001c-15.124-6.264-22.305-23.603-16.041-38.726s23.602-22.305 38.726-16.041z" fill="#ccc"/></g><g><path d="m318.049 239.399-112.641-79.825c-3.309-2.345-6.87-4.311-10.616-5.863l-15.127-6.266c-2.161-.895-4.016 1.79-2.413 3.494l82.377 87.615 50.164 20.779z" fill="#d82525"/></g><g><path d="m293.526 270.226-28.614-16.271c-5.393-3.067-7.658-9.669-5.284-15.401 2.374-5.732 8.645-8.799 14.627-7.154l31.739 8.727z" fill="#f73e3e"/></g><g><path d="m284.43 235.432-9.472 22.867c-.894 2.159-.307 4.649 1.459 6.18 14.921 12.941 33.636 20.693 53.337 22.093 2.331.166 4.507-1.179 5.401-3.338l9.472-22.867c.894-2.159.307-4.648-1.459-6.18-14.921-12.941-33.636-20.693-53.337-22.093-2.331-.166-4.507 1.178-5.401 3.338z" fill="#e6e6e6"/></g><g><path d="m340.481 250.777-15.039 36.306c-1.585 3.827.232 8.214 4.059 9.799 3.827 1.585 8.214-.232 9.799-4.059l15.039-36.306c1.585-3.827-.232-8.214-4.059-9.799-3.826-1.586-8.214.232-9.799 4.059z" fill="#f73e3e"/></g><g><path d="m109.437 123.202-99.065-41.034c-3.827-1.585-8.214.232-9.799 4.059-1.585 3.827.232 8.214 4.059 9.799l99.355 41.154c3.898 1.615 8.377-.301 9.884-4.274 1.458-3.838-.64-8.132-4.434-9.704z" fill="#d82525"/></g><g><path d="m491.011 275.233-39.046-16.173c-3.443 8.311.504 17.84 8.816 21.283l45.316 18.77c-4.166-8.533-9.237-16.53-15.086-23.88z" fill="#5d91c9"/></g><g><path d="m472.031 267.371-20.066-8.311c-3.443 8.312.504 17.84 8.816 21.283l20.066 8.312c-8.312-3.444-12.259-12.973-8.816-21.284z" fill="#3d72a3"/></g><g><path d="m305.156 257.756c4.134-9.981 14.796-15.256 24.989-12.971-12.201-7.284-25.993-11.673-40.314-12.691-2.331-.166-4.507 1.179-5.401 3.338l-9.472 22.867c-.894 2.159-.307 4.649 1.459 6.18 10.393 9.014 22.63 15.502 35.757 19.088-7.753-5.868-10.912-16.41-7.018-25.811z" fill="#ccc"/></g></g><g><path d="m434.75 428 17.386-7.49c9.547-11.371 18.128-23.582 25.607-36.51h-443.486c7.479 12.928 16.06 25.139 25.607 36.51l17.386 7.49-3.764 7.494c46.439 47.219 111.053 76.506 182.514 76.506s136.075-29.287 182.514-76.506z" fill="#564d47"/></g><g><path d="m288 384h-253.743c7.479 12.928 16.06 25.139 25.607 36.51l17.386 7.49-3.764 7.494c46.439 47.219 111.053 76.506 182.514 76.506 7.199 0 14.325-.312 21.374-.895-30.286-5.063-53.374-31.381-53.374-63.105 0-35.346 28.654-64 64-64z" fill="#2b2b2b"/></g><g><path d="m308.5 435.5h-105c-4.142 0-7.5-3.358-7.5-7.5 0-4.142 3.358-7.5 7.5-7.5h105c4.142 0 7.5 3.358 7.5 7.5 0 4.142-3.358 7.5-7.5 7.5z" fill="#e6e6e6"/></g><g><path d="m452.145 420.5h-52.645c-4.142 0-7.5 3.358-7.5 7.5s3.358 7.5 7.5 7.5h39.009c4.738-4.818 9.288-9.821 13.636-15z" fill="#e6e6e6"/></g><g><path d="m112.5 420.5h-52.645c4.348 5.179 8.898 10.182 13.636 15h39.009c4.142 0 7.5-3.358 7.5-7.5s-3.358-7.5-7.5-7.5z" fill="#e6e6e6"/></g></g></svg>