<svg viewBox="0 0 1 1" xmlns="http://www.w3.org/2000/svg"><defs/><g stroke-miterlimit="10.433" stroke-width="0"><path d="M.99993.49988L.99926666.525466l-.0019189.025586-.0031984.024876-.0044065.024639-.0055674.024165-.006752.023928-.0078655.023217-.0089789.022743-.010021.022033-.01104.021559-.012059.020848-.013006.020374-.013954.019664-.014854.018953-.015731.018005-.01656.017531-.017366.016347-.018147.015873-.018905.014688-.019616.013978-.02028.01303-.020943.012082-.021559.011135-.022151.0099502-.02272.0090026-.023217.007818-.023715.0066335-.024189.0056859-.024615.0042643-.025018.0033168-.025373.0018953-.025728.00071069c-.27614 0-.49981-.22388-.49981-.50012 0-.276.22367-.49988.49981-.49988.27598 0 .50012.22388.50012.49988z" fill="#a87b00"/><path d="M.9792.49988L.97856027.524519l-.001848.024402-.0030324.023928-.0042169.023691-.0053542.023217L.95764107.6425l-.0075338.02227-.0085761.021796-.0095949.021085-.010566.020611-.011538.020137-.012461.019427-.013362.018953-.014238.018005-.015044.017531-.015873.016584-.016655.015873-.017366.014925-.018124.014452-.018787.013267-.019427.012556-.020066.011372-.020659.010661-.021227.0097133-.021772.0085288-.02227.0075811-.022743.0063966-.02317.005212-.023596.0042644-.023999.0030798-.024331.0018953-.024662.00071069c-.26477 0-.47927-.21488-.47927-.47951s.2145-.47927.47927-.47927c.26468 0 .4792.21464.4792.47927z" fill="#d4b76a"/><path d="M.95984.49964L.95924776.523331l-.0017769.023454-.002914.02298-.0040511.022743-.005141.02227-.0061833.021796-.0072258.021322-.0082445.020848-.0091922.020374-.010163.0199-.011064.01919-.011964.018716-.012817.018005-.013646.017294-.014452.016821-.01521.015873-.015968.015162-.016679.014689-.017389.013504-.018005.012793-.018669.012082-.019237.011135-.019829.0099502-.020374.0092395-.020872.0082918-.021369.0073442-.021819.0061597-.022246.0049751-.022625.0040275-.023028.0030798-.023336.0016584-.023667.00071069c-.25394 0-.45984-.20588-.45984-.46008 0-.25397.2059-.45984.45984-.45984.25394 0 .45975.20588.45975.45984z" fill="#091f62"/><path d="M.49991.18858L.483895.18905394l-.015802.0011845-.015589.0018953-.015328.002606-.015068.0035536-.01476.0042644-.014475.0049751-.01412.005449-.013788.0061596-.013433.0068704-.01303.0075811-.012627.008055-.012201.0087657-.011751.0092394-.011301.0097135-.010803.010424-.010306.010661-.0097844.011372-.0092158.011846-.0086946.012082-.0080787.012793-.0074864.01303-.0068941.013267-.0062307.013741-.0055674.014215-.0048804.014452-.0041933.014925-.0034826.014925-.0027245.015399-.0019901.015636-.0011846.015873-.00042642.015873c0 .172.13928.31154.31123.31154.17195 0 .31132-.13954.31132-.31154s-.13937-.3113-.31132-.3113z" fill="#fff"/><path d="M.73006.66264L.7359828.6538743.7415739.6448717.746857.6356322.7518084.6261558.7564045.6164425.7606689.6067292.7645542.596779l.00353-.010187.0031272-.010424.0027482-.010424.0023691-.010898.0019427-.010661.0015162-.010898.0011135-.011135.00066335-.011135.00023691-.011372h.058943L.83953616.4972759l-.057925-.0052121c-.0023217-.08742-.044421-.16513-.10884-.21535.010187-.0085288.017958-.017295.024994-.026534.0069415-.0092394.0035063-.017768.0035063-.017768-.016844.012082-.033404.021559-.04968.029377-.0038143-.0023691-.0076048-.0049751-.01149-.0071073V.2544446H.63965133c-.041104-.023691-.088676-.037432-.13928-.037669L.50027657.1587326l-.0024165.0011845-.004525.056859c-.15094.0030799-.27328.12485-.27707.27553l-.055342.0049751-.0012082.0023691h.056361c0 .15399.12355.27955.27662.28287l.0049041.056622.0024876.0011846v-.057806c.09403-.0002369.1788-.048804.22997-.11988z" fill="#d4b76a"/><path d="M.77605.49964L.77569463.513855.77462853.52807l-.0017531.013741-.0024165.013504-.0031035.013504-.0037195.01303-.0043355.012793-.0049514.012556-.00552.012319-.0060886.011846-.0066572.011609-.0071784.011372-.0076996.010661-.0081971.010424-.0086946.010187-.0091448.0094764-.0095712.0092395-.010021.0085288-.010448.0082918-.010827.0078182-.011206.0071073-.011561.0066334-.011893.0061597-.012248.0054489-.012533.0049751-.012841.0042644-.013101.0037906-.013362.0030798-.013599.0023691-.013812.0018953-.014025.00094759-.014215.00047379c-.15259 0-.27624-.12367-.27624-.27647 0-.15233.12364-.27624.27624-.27624.15252 0 .27614.1239.27614.27624z" fill="#d4b76a"/><path d="M.090121.40606l.066548.017768.0031509-.011609S.1338069.4051117.1307509.404401C.13158009.401558.1366737.382131.1366737.382131L.1270551.379525S.1218668.398952.1211323.401795C.1184552.40108431.1055913.3977676.1028903.3968199.10374319.393977.1099266.3705229.1099266.3705229L.100308.3681538l-.010187.037906zM.11113.33878l.062568.028903.0172-.037669L.1818243.3257496s-.010922.023691-.012106.026534C.1671123.351099.1533243.3447024.1507413.3437548c.001303-.0028429.0096186-.021085.0096186-.021085L.1511915.3186423s-.0083156.018242-.0095238.020848C.1391801.33854272.1277847.3330937.1252967.3321461c.0012793-.0028429.011372-.024876.011372-.024876L.127595.3030057.11113.3387787zM.15861.25373L.143708.274341.1995.314616.214402.294005C.2195903.2866608.2217225.278843.2204195.271025.2189507.2620224.2131227.253494.2040485.24686.1871095.234778.1705495.2371467.1586095.2537304zm.0063018.0082918L.1654804.26131111l.00059227-.0007107.00063967-.00071069L.16737569.258942.16806273.25823131.16874976.25752048l.00075813-.0004738L.17026599.256336.1710478.25562531.17187699.25515138l.00085287-.0007107.00087658-.00047379L.1745067.2534931.17543065.25325619.17640199.25278241.17737332.25254538l.0010187-.00023691.0010661-.00023689.0010661-.0002369h.0022507l.0011608.0002369h.0012083l.0012082.00023689.0012793.00047394.0012793.00047378.00066335.00023691.00066335.00023689.00066336.0002369.00068704.0002369.00068704.00047379.00068704.0002369.00071073.00047393.00071074.00047379L.1950942.256336l.00071073.00047379.00073443.0004738.0007581.00047392c.0072021.005212.011372.010898.01239.016821.00018953.00094759.00018953.0018953.00018953.002606 0 .005212-.002227.0090026-.0037906.011135 0 0-.0053779.0075811-.0075811.010661-.002606-.0018953-.037029-.026771-.039611-.028429.0015636-.0023691.0060175-.0085288.0060175-.0085288zM.19803.20564l.047477.049988L.2755.227199.2685585.2198548s-.018882.018005-.021109.020137C.2455068.2378596.2350355.2269618.2330925.2248298c.0021322-.0018953.016584-.015873.016584-.015873L.2428298.2018495s-.014452.013741-.016655.015873C.2243032.2155903.2156088.2065875.2137608.2046925c.002227-.0021322.019806-.018953.019806-.018953L.2266253.1786322l-.028595.027008zM.26958.14688L.250509.159673l.038024.057332.010092-.0068704S.285026.1895236.283368.1871546C.2850264.18597.287514.1843117.2884379.1836009c.0016821.00071083.031106.012793.031106.012793l.01258-.0085288s-.03312-.012556-.036366-.013741C.2977953.1705705.2990983.1667799.2990983.1627521c0-.0040275-.0011135-.008055-.0033404-.011372C.2928913.1471157.2891955.1442728.2847419.1433251.2776109.1419037.2713329.1456942.2695799.1468788zm.002298.010424L.27244658.15706709.27299147.1565933l.0005449-.0002369.00056859-.00023689h.00026059l.00028429-.0002369h.00026062l.00028429-.0002369h.0002606L.27573964.15540868h.00080549l.00026062-.0002369h.00132668L.27839304.15493489h.00075811l.00026061.00023689h.00099502c.0020137.00047393.0036958.0016584.004904.0035537.0016584.0023691.0023928.0047382.0023928.0071073 0 .0042644-.0027718.0080549-.0082208.011846 0 0-.00094764.00047379-.0017768.00094758-.0013741-.0021322-.0099976-.015162-.011561-.017531.0018479-.0011846.0057332-.0037906.0057332-.0037906zM.33674.11087l.00075812.073916.010543-.0042644s-.00018953-.017768-.00018953-.0199c.0019427-.00071083.022412-.0090026.024354-.0099504.0014688.0016584.013883.014452.013883.014452l.012106-.0049752-.051173-.053542-.010282.0042644zm.010756.013978l.00040275.0004738.00045012.00047379.00047382.00047379.00049752.0004738.00052121.00047393L.35041.12792781l.00056859.00047378.00061596.0007107.00059229.00071082.00063964.0007107.0012793.0011845.001303.0014215.0013267.0014215.0012793.0014214.00063967.0004738.00061598.00071082.00061595.0007107.00059229.00047378.00056858.00071083.00054489.0004738.00049752.00071069.00049752.0004738L.363061.14119472l.00042643.00047393.00037906.00047379.00035537.0002369.00030798.0002369.0002606.00047379c-.0033404.0011846-.013693.005449-.017034.0068704 0-.0037905-.00018953-.01919-.0002606-.025112zM.3995.089789l.013693.067283.04082-.0082918L.4519756.1390669s-.025729.005212-.028785.0059227C.42255095.1416729.4114396.0871836.4114396.0871836l-.01194.002606zM.50824.14523l.011277.0014215s.0083392-.015873.009358-.017531c.0021322.00023689.024046.002606.026179.002843.00056858.0021321.0051884.01919.0051884.01919l.013054.0016583-.019261-.071547-.010922-.0014214-.034873.065387zM.545719.097374l.00014214.00071069.00016584.00047379.00018952.00071083L.54640604.09998l.0002132.00071069.00018954.00071083.0002369.00094759.00021323.00071069.00023691.00094773.00023692.00094758.00047381.0016584.00049752.0018953.0004975.0018952.00049752.0016584L.549936.11301014l.0002369.00094759.00023691.00071069.00021323.00094772.00021321.00071069.00021323.0007107.00018954.00071082.00018952.00071069.00018954.0007107.00016582.00071069.00014216.00047392.00014214.0004738.00011846.0004738.00009475.00023689c-.003601-.00023689-.014712-.0016584-.018313-.0021322.0017531-.0030798.0089789-.016584.011751-.022033zM.5969.16015l.010637.0033168.043781-.058754L.640396.1013961S.61282.1383541.608105.1447511C.60753641.1366962.6042907.0904981.6042907.0904981L.5918057.0867075l.0050936.073442zm.04765597.01802068L.65554859.1833827.68499651.12107537.67398019.11586335zM.67055.18905l.0094527.0063965s.014712-.010187.016465-.011372c.0017531.0011845.019995.013741.021748.014925-.00045012.0021322-.0042644.019427-.0042644.019427l.010732.0075811.016299-.072258L.7318139.147353l-.061265.041696zM.726082.164174L.72596354.16464779.72582141.16535861l-.00014216.0004738L.72551342.1665431.72534759.16749083.72518175.16820152.72499221.16891221.72480269.16985993l-.00018952.0009476-.00021323.00071069-.00040275.0018953-.00040275.0018953-.00040274.0018953-.00042644.0016583-.00018954.00094773L.7223862.18075773.72217297.18170546.72200714.18241615.72181762.18312684.72165178.18407456.72148593.18478525.7213201.18549595.72117795.18596974.72103581.18668057.72091735.18715436.7207989.18762816.72070414.18810195.72063306.18857574c-.0029614-.0021321-.012225-.0082918-.015186-.010424.0030561-.0021322.015731-.010661.020635-.013978zM.78216.20019L.78204154.20042689H.781852L.78161509.20066378.7813308.20113772.78099913.20137461l-.00037906.0004738L.78019363.2020853.77974349.2025591.77924598.20326993l-.00054489.0004738-.00056858.00047378-.00061597.0007107-.00063967.00071082-.00068704.0007107-.0014215.0014214-.0015399.0014215-.001611.0018953-.0017058.0016584-.0017532.0016583-.0018242.0018953-.0018479.0018953-.0037432.0037905-.0018479.0021322-.0018479.0018953-.0018242.0016584-.0017531.0018953-.0017058.0016583-.0016347.0016584-.0015162.0016584-.0014451.0014214-.00066336.00071083-.00063966.00071069-.00061597.00071069-.00056859.00047393-.00054489.0004738-.00049751.00071068-.00047382.0004738-.00042644.0002369-.00037905.00047393-.00033169.0004738-.00028429.00023689-.0002369.0002369-.00018954.0002369H.74119807L.7411033.24236006H.74107961l.0086946.0085288s.038782-.039801.04108-.04217c.0021322.0021322.016584.01611.016584.01611l.0070363-.0071073-.041838-.040749-.0070362.0071073.01656.01611zM.7747617.27933125l.00748636.00971331.054513-.04216998L.8292747.23739818zM.824.28619C.804834.296614.798366.314382.807606.33144c.0042644.007818.010471.01303.017958.015162.0086946.002606.018977.0011846.028974-.0042644.019237-.010424.025728-.028192.016465-.04525C.8617635.2800296.843332.2757656.824.2861896zM.8164899.326702L.81613454.32599117.81577917.32528048.81547119.32456979.81521059.3238591.81497367.32314828.81476046.32243759.81457092.3217269.81440509.32125296.81428663.32054227.81419188.31983158.81412079.31912089.81407341.31864696.81404972.31793627l.00002369-.0004738.0000237-.00071069.00004738-.00071083.00018952-.0011845.0002606-.00094772.00033169-.0011845.00040275-.0011846.00049751-.00094759.00054489-.00094759.00059227-.00094773.00063967-.00094758.00071073-.00094772.00073441-.0009476.00075812-.00094759.00078182-.00071082.00082918-.0007107.00082919-.00071069.00082918-.00071083.00085289-.00071068.00082918-.00071069.00082919-.0004738L.82641646.2994572l.0008055-.0004738.00075812-.00047379.00075811-.0004738.00071073-.00023689.00066335-.00047394c.0047145-.002606.013883-.0066335.022009-.0042643.0042644.0014214.0076997.0042643.010092.0087656.0016584.0030799.0024166.0061597.0024166.0087657 0 .010424-.010732.017531-.016205.020611-.0068467.0037905-.023691.010661-.031936-.0045013zM.83011.37456l.0031272.010661s.037029-.010898.045724-.013267C.8728488.3790613.8417662.414598.8417662.414598l.0031509.010898.066074-.01919L.907935.395645S.870906.406543.862211.408912C.8683234.4020417.899406.366505.899406.366505L.8962788.35537l-.066169.01919zm-.7398.23596h.00298507L.0940058.61075704h.00326936l.00090026.0002369h.00371949l.00092395.00023689h.00267709l.00085288.00023691h.00395641l.00023691.00023689h.0007818c.00063967.0018953.0081497.024639.0087894.026534-.0016584.0014215-.01611.013504-.01611.013504l.0042644.01303.059867-.049988-.003601-.010898-.07792-.0047382.0036958.011372zm.032196.0018953h.00265339l.00071073.0002369h.00329307l.00092395.00023703h.002914l.0020137.0002369h.0020611l.0020374.00023689h.00298513l.00094764.0002369H.1456995l.0008055.0002369h.00274817c-.0046198.0040275-.017579.014925-.02054.017294-.0011135-.0035536-.0049988-.015162-.006207-.018716zM.12132.69178l.013788.02298c.0048093.0080549.011656.013504.019711.015399.0093343.0023691.019995.00047378.030159-.0056858.009358-.0056859.015376-.012793.017508-.021085.0020137-.008055.0002606-.016584-.0050936-.025586l-.013788-.023217-.062284.037195zM.181187.670695l.00007106.0002369h.00007109l.00014214.0002369.00016584.00023689.00016582.0004738.00018954.00023703.00018953.0002369.00021322.00047379.00021322.00023691.00021322.00047378.00023691.0004738.00045013.00071083.00047383.00071069.00047381.00094759.00021323.00023689.00023691.00047393.00021321.0002369.00021321.0004738.00018954.00023689.00018953.0004738.00018953.00023689.00014214.0002369.00016584.00023704.00007107.00023689h.00004739l.00007108.00023689h.00011844l.00004739.00023691h.00007107l.00002369.00023689H.1867307c.0024165.0040275.0043592.0087657.0043592.013741 0 .0066335-.0034352.013504-.013693.019664-.02054.012319-.030348.0011846-.033594-.0045013 0 0-.0050936-.0085287-.0070362-.011846.0027719-.0016584.041649-.024876.044421-.026534zM.17425.77233l.0081497.0082918s.025349-.025112.034873-.034352c-.0057332.011846-.02054.042407-.02054.042407l.0081497.0082918s.031367-.014215.043213-.019664c-.0093343.0092395-.034968.034589-.034968.034589l.0085051.0085288.051647-.050936-.010187-.010424s-.042478.019427-.049609.022507c.0034352-.0068704.023691-.048804.023691-.048804l-.011277-.011372-.051647.050936zm.07755657.07084705L.2622543.85052126.30380832.79105685.29343166.78371264zM.29344.87041l.010471.0049751s.017768-.037669.021654-.045724c.0012082.0092395.0077707.059701.0077707.059701l.010732.0049751.031106-.065624L.3647027.823738S.3470287.86117.3430487.869462C.3418405.8599856.3353728.809997.3353728.809997L.3245458.804785l-.031106.065624zm.0859663.0355482l.01222455.00355365L.411247.8396234.39892768.83606975zM.42995.86283L.42985524.8637776.42980785.86472532v.00094759l.00007108.0011846.00011845.0007107.00016585.00094758.00021321.00094772.0002606.00094759.00028429.00071069.00035536.00094773.00037906.00071069.00040276.00071083.00045013.00071068.00047381.0009476.00052121.00071083.00054489.00071069.0005686.00047379.00059227.00071069.00061596.00071083.00063966.00071069.00063966.00071069.00068704.0004738.0013741.0011846.0014215.0011845.0014452.0011846.0014688.0011845.0014452.00094772c.0069415.005212.012959.0097133.012035.016584-.00082918.0063966-.0069415.0087657-.012225.0080549-.0067519-.00094759-.012296-.0042644-.017768-.007818l-.0024165-.0014215-.0016584.013267.0011135.0004738c.006752.0030798.01239.0047382.017958.0054489.019806.0026061.026842-.010424.027861-.017768.0015636-.012556-.0079602-.019427-.016394-.025823-.0063729-.0047382-.01194-.0090026-.011182-.014215.00026061-.002606.0034115-.007818.011087-.0066335.004904.00071082.0091684.0028429.013622.005449l.0036958.0018952.0015636-.012082-.0011135-.00047379c-.0049988-.0028429-.010353-.0042644-.016181-.005212-.016299-.0021322-.023975.0092395-.024994.017058zm.0582-.01114l.00056858.010187s.021369-.00094772.024425-.0011846c.00018953.0033168.0032457.062071.0032457.062071l.012675-.00071069s-.0030561-.058754-.0032457-.062071c.0030561-.0002369.024425-.0011846.024425-.0011846l-.0005449-.010424-.061549.0033167zM.58913.83914L.565723.8450628l.017934.070362L.596071.912345S.5894849.886996.5887505.883916C.5906932.88344221.5940336.8824945.5952419.8822576c.0012793.0011846.026558.023454.026558.023454l.015257-.0040275s-.02914-.024402-.031556-.026534C.610784.8706488.6141955.8642521.6141955.8576191c0-.0016584-.00016585-.0033168-.00054491-.0049751C.61225279.8474319.60948099.8434045.60540609.841035.59884369.8370075.59126209.8386659.58913009.8391397zM.5877322.850275L.58841924.85003809H.5890826L.58974593.8498012h.00398011l.00028429.00023689h.00082919L.59512381.850275h.0005212l.00023691.00023689h.0002606l.00023691.00023689h.00023691l.00023691.00023691h.00023692c.0018479.0011846.0031509.0028429.0036958.005212.00037907.0014215.00063967.0028429.00063967.0042644 0 .0021322-.0005449.0040275-.0014689.0054489-.0019427.0035537-.0059228.0059228-.011656.0073442 0 0-.0011135.00023704-.0021322.00023704-.00066335-.0023692-.0048093-.018716-.0055674-.021322.002227-.00071082.007131-.0018953.007131-.0018953zM.64871.81782l.0059228.077707.010661-.005212S.6638013.871599.6637065.869467C.6655544.86851928.6869475.858095.6888905.857148c.0015636.0014214.015541.014215.015541.014215l.012319-.0059228-.057569-.052831-.010471.005212zm.01213.013741l.00045014.00047379.00049751.0002369.00052122.00047379.00056858.00071083.00061596.00047379.00061597.00047379.00066335.00071069.00068704.0004738.00071073.00071083.00071073.00071069.0014925.0014215.0015162.0011845.0015162.0014215.0014925.0014214.00073441.00071083.00073444.00071069.00068703.0004738.00068704.00071083.00063967.00047379.00063965.00071069.00059228.0004738.00056859.00047378.0005212.00047394.00047382.0004738.00045014.00047378.00040273.0004738.00033169.00023689.00028429.00023691c-.0033404.0016584-.014428.0071073-.017768.0087657-.00028429-.0037905-.0015636-.020611-.0020374-.026771zM.6886.79744l.0063018.0082919s.01701-.01303.019427-.014925c.0020374.0028429.037669.049514.037669.049514l.010092-.0078182s-.035537-.046671-.037574-.049277c.0023928-.0018952.019427-.014925.019427-.014925L.737641.7602458.6886.7974408zM.74957817.74746541l.05228604.05022492.00878936-.00923949L.75836753.73822592zM.80993.68183H.80917189L.80843746.68206691.80770303.6823038.80696861.6825407.80623419.6827776.80549977.68301449l-.00071073.0002369-.00071073.00023689-.00068705.00047394-.00071073.00023689-.00068704.0002369L.80133013.6849098.8006431.6853836.79997975.68562049.7993164.68609429.79867674.68656823.79803709.68704201l-.00063967.0004738L.79678145.6879896.79616549.6884634.79557321.68893733.79498094.68964802.79438866.69012181l-.00056858.0004738-.0005686.00071083L.7926829.69178022l-.00054489.0007107L.7916168.69320161.7910719.69367554.7905744.69438623.79007688.69509692.78957937.69580775c-.011585.017058-.006752.036484.012296.049514.0098081.0066335.020469.0094764.029898.0075812.0081497-.0014215.015186-.0063966.020445-.014215.0052831-.0075812.0072258-.01611.0057333-.024165-.0017533-.0092394-.0081261-.018242-.018029-.024876-.0099029-.0068704-.02054-.0097133-.029993-.007818zM.8093851.734187L.80893498.7339501.80846116.7337132.80796365.73323927.80746613.73300237.80694493.73252858.80642372.73205478.80590252.731581.80535762.73134409.80481273.73087017.80424415.73039637.80369925.72968568l-.0005449-.0004738L.80258578.72873796l-.0005449-.0004738L.80149597.72755347.80097478.72707968.80042989.72636885.79993237.72589505.79941116.72518436.79893733.72447367.79846352.72376284.79801339.72305215.79756327.72257836.79716051.72186767.79675776.72091994.7964024.72020925.79607072.71949856.79576274.71878773.79547845.71807705.79524154.71712945.79502832.71641862.79483879.71547104c-.00092396-.0045013.00018953-.0092395.0032457-.013741.0030562-.0045013.0069415-.0071073.011561-.0080549.0088131-.0014215.018053.0035536.022767.0068704.0068467.0047382.021654.017058.011301.03222-.010471.015399-.027482.0061597-.034328.0014215zM.83741.6027L.833809.6117026s.038593.015162.047098.018479C.8716675.6320769.821964.6420276.821964.6420276l-.0043592.011135.067567.026534.0041697-.010898s-.038498-.015162-.047027-.018479c.0091684-.0018952.058967-.011846.058967-.011846l.0042407-.010898-.067448-.026534-.00066335.0016583zM.85990716.48852278h.01978198l.00620704-.0189528.00601752.0189528h.01990044L.89579902.50013137l.00601752.0189528L.88589619.50747558.86988106.51908417l.00611228-.0189528zM.08734365.48875969h.01980567l.00620705-.0189528.00592275.0189528h.0199952L.12316444.50036828l.00627812.0189528-.0160862-.01160859-.01601511.01160859.00601751-.0189528z" fill="#fff"/><path d="M.76968.53542L.76769.5392105.7655341.5430011l-.002298.0035537-.0024402.0035536-.002606.0035537-.0027718.0035536-.0028903.0035537-.0030324.0033167-.0031746.0033167L.743004.5707196.7395451.5740363.7359677.5773531.7322482.5804329l-.003838.0030798-.0039801.0030798-.0040749.002843c.0083156-.029851.011561-.060175.010448-.089789h.04127c0 .012319-.00092395.024165-.0023928.035773zM.7208.65861L.7177439.6624005.7144745.6661911.711063.6699817.707462.6735353.7036951.677089.6997624.6806426.6956875.6839594.6914468.6872761.6870402.6905928l-.004525.0030799-.0046908.0030798-.0048093.0028429-.0049514.0030798-.0050936.0026061-.005212.0028429-.0053305.002606c.029874-.032457.050794-.068941.063374-.10685.020185-.012793.036934-.027245.049349-.043592-.0081497.036011-.02343.069178-.04435.098318zM.60929.74959L.6125357.746984.615734.7446149l.0031509-.002606.0031272-.002606.0030562-.0023691.0030324-.002606.0029614-.002606.0029377-.0028429c.012414-.0045013.024165-.0099504.035181-.015873-.018242.014688-.038308.026771-.059891.036484zm-.03831.0135L.5668341.7642745.5626645.76522222.5584712.76616981.5542779.76711754.5500372.76806512.5457728.76877581.5415084.76948664.5371966.77019733c.005828-.0071073.011395-.014215.016679-.021322.019237-.002606.03774-.0063966.055319-.011609-.011751.0092395-.024426.017768-.038214.025823zM.5.7728V.752426h.00009476c.014072 0 .027861-.00094759.041459-.0021321-.0055437.0071073-.011301.014215-.017294.021322-.0079602.00071069-.016015.0011845-.02426.0011845zM.60272.64842L.6002088.6541058.5975791.6597916.5948309.6654775.591988.6711633.5890503.6768492.5859942.682535.5828196.6882208.5795502.6939067.5761624.6998294.5726798.7055153l-.003601.0056858L.565383.7168869.5615687.7225728l-.003909.0056858-.0040275.0056859L.54951.7396303C.533495.7415256.516935.7424732.50009.7424732H.49999524v-.083156c.035821 0 .070528-.0037905.10272-.010898zM.5.50959h.00009476c.035158 0 .068657-.0035537.099289-.0099502h.030277c.0030562.045724-.0044539.091921-.022483.13788-.033333.007818-.069604.012082-.10718.012082v-.14001zM.52146.22743L.5203228.22814069.519162.22908841l-.0012083.0007107-.0012082.00094758-.0012556.00094773-.0012793.00071069L.5129313.2333527.5116046.23430042l-.0013267.0011845-.0013741.00094772-.0013741.00094759-.0013978.0011846-.0014215.0011845-.0014215.0009476-.0014452.0011846-.0014688.0011845v-.016584c.0071073 0 .014144.00047392.021085.00094772zm.08378.02062L.5990566.24710226.5929206.24639157.5868794.24568074.5808856.24520696.5749391.24473316.5690874.24425936.5632594.24402247.5575262.24378557.5518403.24354868H.5351381L.5296892.24378557l-.0053779.0002369-.0053305.00047379-.0052831.00047379c.010187-.007818.018597-.01303.024165-.015636.023502.0033167.046079.0097133.067377.018716zm.0356.01847L.6359359.2686522.6310082.2707844.6261278.2726797.6212474.2743381l-.004833.0018952-.0048093.0016584-.0047856.0014215-.0047382.0016583c-.0199-.011608-.042028-.021085-.066738-.027482.030633-.00094772.064226.0021322.10088.0099502.0015636.0011846.0030561.0021322.0046198.0030798zm.02388.01659l.00059228.00023691.00061596.00047392.00059227.0004738.00059229.00047379.00059226.00047379.00059229.0004738.00028429.00023703.00030798.0002369.0002843.0002369.0002606.00023689c-.031083.025112-.069486.034826-.072447.0353 0 0-.00018952-.00094772.00045013-.0021322.030633-.013267.051552-.025113.067283-.036721zm.05025.16868l.00090027.0045012.00085287.0042644L.71748127.46482.7181683.4690844l.00061596.0045013.00056858.0042644.00047383.0045012.00042644.0042644-.059702-.005212c.020824-.0082918.039256-.018242.054418-.029614zM.60753.38095L.60786169.38047606.60819336.38000227l.00030798-.0007107.00028429-.00047378.00028429-.0004738.00026061-.00047394.0002606-.00047378.0002606-.0004738.00023691-.00047379.00021323-.0004738.00042644-.00094772.00040275-.00094759.00035535-.00094773L.6118181.37242115.61210239.37147357.61238668.37076274l.0002606-.00094759.00023691-.00071069L.6131211.36839363.61333432.36768294.61354755.36697225c-.022033.010187-.043852.010187-.043852.010187S.56976663.37668547.57014569.37621167c.00073442-.0002369.0032457-.00071083.0032457-.00071083.038308-.007818.065506-.026534.071168-.032931.0035063-.0040274.0051646-.0080549.0060886-.011135.023881.024639.041554.053305.05295.082682.0035063.0090025.0064677.018242.0089789.027718-.019356.015162-.0448.027955-.074508.037669h-.0012082c-.0014688-.011372-.0034115-.022506-.0060886-.033641-.0056622-.023217-.013693-.044776-.023241-.064913zM.54101.29638L.5356558.2975645.5303964.2987491l-.005212.0011845-.0051173.0011846-.0050225.0014214-.0049514.0011846-.0048567.0014215-.0047619.0014214-.00009478-.049988h.0011135c.012201.010661.0258.023928.039517.039801zm.0099-.00214L.5488015.291634.546693.2892649.5445845.2868958.5424997.2845267.5403912.2821576.5383064.2800254.5362216.2776563.5341368.2755241.532052.2733919.5299909.2712597.5279535.2691275.5258924.2672323.5238786.265337.5218412.2632048.5198511.2613095l-.00199-.0018953c.026273.005449.049799.014215.070789.025349-.01303.0035537-.025634.0066335-.03774.0094764zm.09605.03317L.6441644.3293053.6413215.3309637.6384549.332622.6355646.3340435l-.002914.0016584-.0028903.0011845L.62687.3383079.6239797.3394924.6211131.340677.6182939.3418615.6154983.34280923.6127501.34375681.6100493.3447044.6074196.34541523.604861.34636281l-.0024876.0007107-.0023928.00047393-.002298.00071069-.0022033.0004738-.0020848.00047379-.0019664.00047379-.0018479.00047393-.0016821.0002369-.0015636.00047379-.0013978.0002369-.0012556.0002369L.582615.35157482H.58171473L.581004.35181173H.58005636s.0002843-.0014214.00073443-.0014214c.030443-.0087657.050533-.017531.064321-.026297C.64492227.32456712.64466166.32456712.64437737.32480402c.00092396.00094759.0017531.0018953.0025823.002606z" fill="#0a6826"/><path d="M.52777.44729h.00116085L.52954682.4470531h.00158731L.53208177.44681606h.0010424l.0011372-.00023689.0012319-.00023689.001303-.00023691.0013741-.00023689.0014452-.0002369.0014925-.0002369.0015399-.00047379.0015873-.00047393.0016347-.0002369.0016584-.00047379.0016821-.00047379.0016821-.00071069.0017058-.00047394.0017058-.00071069.0016821-.00071069.0017058-.00071069.0016584-.00071083.0016347-.00094759.001611-.00094772.0015873-.00094759.0015162-.00094759.0014688-.0011846.0014215-.0011845c.018692-.014215.017294-.029851.017294-.029851-.021109.0099502-.044326.012082-.044326.012082s.00009476-.0011845.0010187-.0021322c.022293-.0040274.042857-.013741.051647-.019427.0027719-.0018953.0049988-.0037906.0069415-.0056858-.00009478.0002369-.00009478.0002369-.00018953.0004738.0085051.018479.015826.038143.021014.059465.0023928.010187.0041459.020374.0055437.030561l-.085335-.0075811c.015376-.013267.015731-.027245.015731-.027245-.023762.010424-.030159.0035537-.030159.0035537zM.70268.6117L.699766.6190442.6966388.6263884.6932984.6337326.689721.6408399.6859067.6479472.6818792.6550545.6776148.6619249.6731135.6687953.668399.6756657.6634239.6825361.6582355.6891696.6527866.6955661.6471244.7021996.6412016.7083593.6350419.7145189.6286453.7206786c-.020469.0075811-.042857.013504-.066453.017058.021654-.030561.038688-.061123.051267-.091684.03331-.0082919.063492-.019901.089221-.034352zM.61801.63468L.6210661.6263881.6238853.6178594.6264676.6093306.628813.6010388.6309215.59251.6328168.5839812.6344515.5756894.635873.5671606.6370576.5586319.63800525.55034.63871598.5418112.63918979.5332825l.0002606-.0082919.00002369-.0085287L.63926087.50817.63881073.4996413h.08209c.001303.03222-.0027719.065624-.013314.098318-.025184.015399-.055627.027955-.089576.036721zM.67529.2914l.0058991.005212.0057569.005212.0056148.0056859.005449.0054489.0053068.0059227.0051173.0059228L.713409.330964l.0047856.0061596.0045961.0063966.0044302.0063966.0042407.0066334.0040512.0068704.0038616.0068704.0036721.0068704.0034589.0071073.0032694.0073442c-.0046198.015636-.014617.030088-.028974.043355C.7185028.4266761.715802.4186209.7127695.4105659c-.012769-.032694-.03267-.06444-.060152-.091447.0087894-.0063966.014428-.012793.018858-.018953C.6736077.297086.6747212.2942431.6752898.2914002zM.7719.49135L.729967.4875595C.7288535.4731075.7267213.4588935.7234993.4451525c.014333-.012082.025065-.025586.031651-.040275.0099976.027245.015826.056148.01675.086472zM.49168.23738L.49070865.23666931.48978471.23595848.48883707.23524779.48793681.23453711.48701285.23382628.4861126.23311559.48523602.23240489.48433575.2319311.48348288.23122027.48263.23074647.48177713.23003579l-.0008292-.0004738L.48014244.22885116.47933694.22837737.47855514.22790358.47779703.22742978c.004904-.0004738.0098081-.00071069.014712-.00071069l-.00082918.010661zM.47704.77186L.474813.7692539.472586.7666479.4703827.763805.4682268.761199.4660709.758593.4639387.755987.4597454.7505381c.0099976.00094758.02009.0014214.030348.0016583l.0017531.020611C.4868477.77257051.4819436.77233361.4770395.77185982zM.42902.7638L.4240212.7607202.4191408.7578773.4143078.7547974.4095933.7514807.4049499.7484009.4003775.7450841.3959236.7417674.3915408.7384507c.017389.0047382.035821.0082918.055058.010661.0052831.0071073.010827.014215.016655.021322C.4515978.7690122.4402258.7666431.4290198.7638002zM.33213.71571l.0041696.0021322.0042407.0021322.0043355.0018953.0043828.0018952.0044539.0018953.004525.0018953.0045961.0016584.0046434.0018952c.0077707.0068704.01592.013504.024544.019901C.370533.7417706.350372.7299251.33213.7157101zM.28041.66311v.0002369C.257169.6323119.240419.5963009.232009.5572069c.012675.017531.030348.033404.051907.047145.012959.038616.034518.076048.065529.10898-.029069-.01303-.05295-.030088-.069036-.050225zM.22765.53068L.22724725.5268894.22689189.5230989.22658391.5190714.22629961.5152808.22608639.5112534.22594425.5074628.22582578.5034353.2258021.4996448h.043023c-.0011135.029614.002227.060175.010566.090263-.023975-.017058-.041838-.037195-.051552-.059228H.22764957zM.24338.40346l.0013267.0028429.0014215.002843.0015162.002606.0016347.0028429.0017058.002606.0018242.002606.001919.002606.0020138.002606.0021085.002606.0022033.002606.002298.0026061.0023691.0023691.0024876.002606.0025586.0023691.0026534.0023691.0027245.0023691C.2728992.4586603.270767.4731113.2695825.4875633l-.043592.0037905c.00092396-.030798.0070363-.060412.017389-.087894zM.34454.27458L.34432679.27505379.34413726.27576448.34394772.27647531l-.00016583.0004738L.34363975.2776598.3434976.27837049.34335545.27908132.343237.27955511.34311853.2802658.34304747.28097649.34295271.28168732l-.00007109.0004738-.00004738.00071069-.00002368.00071083-.00002369.00071069-.00002369.00047379c0 .0097133.0042644.018479.012035.026771-.031556.028429-.053945.063018-.067828.098555-.0030562.007818-.0056385.015873-.0079602.023928-.014996-.013267-.025444-.027955-.030254-.043828.020635-.046908.054039-.086946.095783-.11561zM.3634.26344L.370223.2620185.3769513.260834.3836085.2594125.3901946.2584649.3967333.25751718.4031773.2565696.4095739.2558589.4158757.25514808l.0062544-.0007107.0061834-.00023689.0061123-.0004738L.4404433.2534898.4464135.25325289h.0117508L.4639212.2534898c-.040441.010424-.074224.028666-.10171.051647C.3560041.2987402.3524979.2918698.3524979.2847628s.0037906-.014452.010898-.021322zM.48567.3113L.4836563.31201083.4817136.31272152.4798183.31343221.4779467.3141429.4761225.31485372l-.0017532.0009476-.0017294.00071069-.0016821.00071083-.0016347.00094758-.0015873.0007107-.0015636.00071082-.0014925.00094759-.0014688.00071069-.0014452.00094772-.0013741.00071069-.0013504.00094773-.001303.00071069-.0012556.00094759-.0012319.00094773-.0011846.00071069-.0011609.00094758-.0011135.00094772-.0021085.0018953-.0019664.0016583-.0018479.0018953-.0016821.0018953-.0015636.0021322C.4380982.33759703.4335495.33688636.4292142.33593876c.019521-.028903.040986-.052594.060246-.070599l-.0037906.045961zm-.0149.21748l.010353.12035C.45068.6479454.42135.6441549.394129.637995.375816.591797.368235.5456.371196.499635h.029685c.027766.0059227.057854.0092395.089315.0097133l-.019427.019427zM.39858.6489l.0049514.0009476.0049751.00094772.0050462.00094759.0050699.00094758.0050936.00071083.0051646.00071069.010377.0014215.010519.0011845.010637.00094759.010732.00071083.010803.00047379.0072258.083393c-.012675-.00023691-.02516-.0009476-.03729-.0023691-.022388-.030325-.040156-.060649-.053305-.090974zM.38692.64629l.0024165.0056858.0025113.0059228.0026297.0056858.0027245.0056858.0028429.0056859.0029377.0059227.0030562.005686.0031746.0056858.0032694.0056858.0033641.0059228.0034826.0056858.003601.0056859.0036958.0056858.0037906.0056859.0039327.0059227.0040275.0056858C.4149471.7348944.3928431.7294455.3726581.7225751c-.035537-.032694-.060341-.070599-.075503-.1104.0258.014452.056266.02606.089765.034115z" fill="#0a6826"/><path d="M.36138.49964L.36095357.5081687.36076404.5164606l.00002369.0085287.0002606.0085288.0005212.0085288.00071073.0082918.00097133.0085288.0011846.0085287.0014452.0085288.0016584.0082918.0018716.0085288.0021322.0085288.0023691.0085287.0025823.0085288.0028192.0082918.0030562.0085288c-.034234-.0087657-.064961-.021322-.090216-.036958-.010566-.032694-.014807-.066098-.013528-.098555h.082753zM.33954.4814L.279388.486612C.2804067.474766.2821598.462921.2846474.451549c.015375.011372.033878.021559.054892.029851zM.41367.3421L.4101874.3477859.4067759.3534717.4034355.3593945.4001898.3653172.3970152.3714769.3939354.3776365.3909503.3840331.3880837.3904297.3853118.3968262.3826584.4034597.3801235.4103301.3777307.4169636.3754564.4240709.3733242.4309413.3713578.4380486.3695099.4453928C.366738.4565278.3647954.4678988.3633265.4792708H.36323172c-.030182-.0099502-.056172-.02298-.075977-.03838.0024876-.0092395.0053542-.018242.0087894-.027245.013409-.034589.035347-.067993.066074-.095475.012296.0097133.030064.018005.051552.023928zM.41921.33333L.415372.33238228.4116288.33119778.4079804.33025005.4044267.32906555.4009441.32764405.39758.32645955.394287.32527495.3911124.32385355.3880563.32243205.3850949.32101055.3822283.31958915.3794801.31793075l-.002606-.0014215-.0025113-.0016583L.37197.31342945.3696957.31177105c.029709-.024402.066904-.043118.11215-.052357-.020161.018716-.042549.043829-.062639.073916zM.438.47145L.4367207.47168689.4354888.4719238.4342569.47216069H.4330723L.4319114.47239758.4307742.47263449.4296844.47287138H.4286183L.4275759.47310841.42658088.47334532H.42560955L.42468559.47358221H.42378533L.42293245.4738191H.42212696L.42134515.47405601H.41989998L.41923665.4742929H.41753089L.41705708.4745298H.415375L.41518548.47476669H.41494857l-.041649.0035537c.0013978-.010187.0031509-.020374.0056622-.030561.009429-.03909.025728-.073442.044421-.10306.0044302.00094773.0090737.0018953.013693.002843-.021748.046671.045534.10922.00092396.1239zM.46243.22909l.00054489.00023691.0005449.00023689.00056858.0002369.00059229.0002369.00061596.00047379.00061597.00023689.00063966.0004738.00066335.00023689.00066335.00047394.00068704.00023689.0013978.0009476.0014925.00094772.0015162.00094758.001611.00094759.0016347.0011846.0017058.0011845.0017295.0011846.0018005.0011845.0018479.0014215.0018953.0014215.0019427.0014214c-.028974-.0028429-.060531-.0018953-.094954.0033168.022127-.0094764.045629-.01611.070244-.01919z" fill="#0a6826"/><path fill="#a87b00" d="M.5025758.16040243l.0124141.14261982-.0145226.00426438L.50027778.15921788zM.47066403.5292713L.16092789.50226356.15971965.50013137H.8408359l-.001303.00213219L.52932294.5292713l-.0273868.3103521L.4999935.84080795V.50013137zM.55719.3267h.00002369L.55723738.32646311h.00009477v-.0002369H.55726107V.32598917H.55709524s-.076996-.0021321-.097157.055911c0 0-.00047382.0014215-.00018952.0033167.00028429.0016584.00045013.0052122.00045013.0052122s.008434-.046435.083393-.055437c0 0 .0089789-.0011845.013599-.0082918z"/><path d="M.53859.35655h.00009477V.3563131H.53849523s-.058659.00047379-.071902.04525c0 0-.00037906.0011846-.00018952.002606.00018952.0011846.00037904.0040275.00037904.0040275s.0064677-.035537.061526-.044302c0 0 .0068467-.0016583.010282-.0073442zm-.01611.0289h.00007107V.38521295h.00002368-.00007106V.38497606H.52248s-.042383.0040275-.04942.036721c0 0-.0002606.00094758-.00009476.0018953l.00028429.0028429s.0040749-.025586.04082-.034352c0 0 .0066572-.0011845.0084103-.0066334z" fill="#a87b00"/></g></svg>