<svg xmlns="http://www.w3.org/2000/svg" viewBox="0 0 90.501 91.468"><defs/><path fill="#1C4178" d="M44.309.016c7.087-.261 17.707 2.757 23.477 5.907 8.264 4.586 19.147 15.732 21.112 28.591 1.316 7.866-.652 16.129-8.389 20.721-10.492 6.288-27.02-2.105-25.051-16.401 1.704-11.668 1.182-20.458-6.559-27.144 0 0-11.015-9.444-25.176-6.028C30.41.412 44.309.016 44.309.016m37.12 73.576c-4.982 6.029-11.808 11.8-20.594 14.95-9.704 3.41-22.292 5.374-34.488-3.015-8.394-5.906-7.213-16.525-5.244-21.117 4.586-9.839 18.093-13.375 27.405-4.59.654.657 11.012 9.182 21.248 6.951 0 0 14.16-3.149 20.584-19.018 1.578 11.147-8.911 25.839-8.911 25.839m-70.428 1.835C3.396 65.722 1.558 59.297.117 50.768c-.915-16.52 3.541-28.851 13.768-37.637 6.555-5.637 14.557-7.078 21.639-3.275 10.101 5.244 12.07 19.147 3.938 26.883-8.921 8.523-21.383 4.982-24.789 22.819 0 0-2.361 12.064 6.293 24.261-5.112-2.882-9.965-8.392-9.965-8.392"/></svg>