<svg id="Capa_1" enable-background="new 0 0 512 512" height="512" viewBox="0 0 512 512" width="512" xmlns="http://www.w3.org/2000/svg"><g><g><path d="m256 0h-15v45h15 15v-45z" fill="#fabe2c"/><path d="m256 0h15v45h-15z" fill="#ff9100"/><path d="m256 437h-75c0 41.353 33.647 75 75 75s75-33.647 75-75z" fill="#fabe2c"/><path d="m331 437h-75v75c41.353 0 75-33.647 75-75z" fill="#ff9100"/><path d="m431.605 381.395c-6.84-6.841-10.605-15.938-10.605-25.606v-160.789c0-90.981-74.019-165-165-165s-165 74.019-165 165v160.789c0 9.668-3.765 18.765-10.605 25.605-12.51 12.51-19.395 29.136-19.395 46.817v23.789h195 195v-23.789c0-17.681-6.885-34.307-19.395-46.816z" fill="#fed843"/><path d="m451 428.211c0-17.681-6.885-34.307-19.395-46.816-6.84-6.841-10.605-15.938-10.605-25.606v-160.789c0-90.981-74.019-165-165-165v422h195z" fill="#fabe2c"/></g><g><path d="m442.899 139.292c-13.931-46.611-44.663-86.191-86.572-111.445l15.498-25.693c48.296 29.121 83.745 74.766 99.814 128.555z" fill="#59c36a"/></g><g><path d="m69.101 139.292-28.74-8.584c16.069-53.789 51.518-99.434 99.814-128.555l15.498 25.693c-41.909 25.255-72.642 64.835-86.572 111.446z" fill="#90e36a"/></g></g></svg>