<svg id="flat" height="512" viewBox="0 0 512 512" width="512" xmlns="http://www.w3.org/2000/svg"><path d="m488 471.03a16.97087 16.97087 0 0 1 -28.97 12l-45.37012-45.37012-11.31982-11.32007-18.34006-18.33981 24-24 18.34009 18.33984 11.31982 11.32007 45.37009 45.37009a16.97809 16.97809 0 0 1 4.97 12z" fill="#486be0"/><path d="m344 72v352h-288a32 32 0 0 1 -32-32v-320z" fill="#f6bb00"/><path d="m24 72v-16a32 32 0 0 1 32-32h256a32 32 0 0 1 32 32v16z" fill="#517ef7"/><circle cx="56" cy="48" fill="#486be0" r="8"/><circle cx="80" cy="48" fill="#486be0" r="8"/><circle cx="104" cy="48" fill="#486be0" r="8"/><path d="m160 160a55.94393 55.94393 0 1 1 -2.32007-16 55.99746 55.99746 0 0 1 2.32007 16z" fill="#de9400"/><path d="m160 160h-12.68994l-13.65015 13.65991a8.01478 8.01478 0 0 1 -11.31982 0l-13.65015-13.65991h-12.68994v55.42993a55.79162 55.79162 0 0 1 -16-4.82007v-50.60986h-32a55.96822 55.96822 0 0 1 2.32007-16h29.67993v-34.60986a55.79162 55.79162 0 0 1 16-4.82007v39.42993h16a8.00745 8.00745 0 0 1 5.65991 2.33984l10.34009 10.3501 10.34009-10.3501a8.00745 8.00745 0 0 1 5.65991-2.33984h13.67993a55.96822 55.96822 0 0 1 2.32007 16z" fill="#cf8300"/><g fill="#de9400"><path d="m208 104h56v16h-56z"/><path d="m48 288h72v16h-72z"/><path d="m48 328h16v16h-16z"/><path d="m80 328h80v16h-80z"/><path d="m48 368h64v16h-64z"/><path d="m128 368h32v16h-32z"/><path d="m224 168h16v16h-16z"/><path d="m256 168h64v16h-64z"/><path d="m208 208h72v16h-72z"/><path d="m296 208h24v16h-24z"/><path d="m208 248h48v16h-48z"/><path d="m48 248h48v16h-48z"/></g><path d="m176 72h16v352h-16z" fill="#eda600"/><circle cx="336" cy="336" fill="#517ef7" r="88"/><path d="m403.029 411.995h33.941v16.009h-33.941z" fill="#3b57c4" transform="matrix(.707 -.707 .707 .707 -173.97 420)"/><path d="m208 288h24v16h-24z" fill="#de9400"/><path d="m208 368h24v16h-24z" fill="#de9400"/><path d="m208 328h16v16h-16z" fill="#de9400"/><circle cx="336" cy="336" fill="#e5e7e9" r="56"/></svg>