<?xml version="1.0" encoding="iso-8859-1"?>
<!-- Generator: Adobe Illustrator 21.0.0, SVG Export Plug-In . SVG Version: 6.00 Build 0)  -->
<svg xmlns="http://www.w3.org/2000/svg" xmlns:xlink="http://www.w3.org/1999/xlink" version="1.1" id="Capa_1" x="0px" y="0px" viewBox="0 0 512 512" style="enable-background:new 0 0 512 512;" xml:space="preserve" width="512" height="512">
<g>
	<g>
		<g>
			<g>
				<g>
					<g>
						<g>
							<g>
								<g>
									<g>
										<g>
											<g>
												<circle style="fill:#FFE670;" cx="256" cy="256" r="256"/>
											</g>
										</g>
									</g>
								</g>
							</g>
						</g>
					</g>
				</g>
			</g>
		</g>
	</g>
	<path style="fill:#FFD400;" d="M512,256c0-14.143-1.165-28.011-3.371-41.53l-93.499-94.165c-6.42-7.602-16.01-12.452-26.679-12.452   l-264.902,0c-19.213,0-34.932,15.719-34.932,34.932v195.642c0,9.732,4.035,18.564,10.512,24.914l149.377,148.541   c2.49,0.072,4.987,0.117,7.494,0.117C397.385,512,512,397.385,512,256z"/>
	<g>
		<path style="fill:#6D76E7;" d="M423.383,142.785c0-19.213-15.719-34.932-34.932-34.932l-264.902,0    c-19.213,0-34.932,15.719-34.932,34.932l0,195.642c0,19.213,15.72,34.932,34.932,34.932h92.693L256,435.333l39.758-61.974h92.693    c19.212,0,34.932-15.719,34.932-34.932L423.383,142.785z"/>
		<path style="fill:#283EE1;" d="M423.38,142.79v195.64c0,19.21-15.72,34.93-34.93,34.93h-92.69L256,435.33V107.85h132.45    C407.66,107.85,423.38,123.57,423.38,142.79z"/>
		<g>
			<path style="fill:#FFFFFF;" d="M332.833,331.707H179.167v-28.913c0-36.762,29.802-66.564,66.564-66.564h20.537     c36.763,0,66.564,29.802,66.564,66.564V331.707z"/>
			<path style="fill:#FFF5CB;" d="M332.83,302.79v28.92H256v-95.48h10.27C303.03,236.23,332.83,266.03,332.83,302.79z"/>
			<circle style="fill:#FFFFFF;" cx="256" cy="185.608" r="41.022"/>
			<g>
				<path style="fill:#FFF5CB;" d="M297.02,185.61c0,22.65-18.36,41.02-41.02,41.02v-82.04      C278.66,144.59,297.02,162.95,297.02,185.61z"/>
			</g>
		</g>
	</g>
</g>















</svg>
