<svg id="Capa_1" enable-background="new 0 0 512 512" height="512" viewBox="0 0 512 512" width="512" xmlns="http://www.w3.org/2000/svg"><g><path d="m512 189.5v322.5l-128.191-44.369-55.51-95.43 51.451-111.451z" fill="#cdf"/><path d="m183.701 372.201-52.955 93.475-130.746 46.324v-322.5l130.578 69.578z" fill="#d9edff"/><path d="m512 189.5-183.701 182.701h-144.598l-183.701-182.701 256-189.5z" fill="#a0e65c"/><path d="m328.299 372.201 183.701-182.701-256-189.5v372.201z" fill="#7acc52"/><g id="Mail_2_"><g><path d="m512 512h-512l183.701-139.799 72.299-55.201 72.299 55.201z" fill="#e6f3ff"/></g></g><g><path d="m301 137c0 15.901-8.699 30.901-22.5 39-4.501 2.701-7.5 7.5-7.5 12.9v23.1h-30v-23.101c0-12.599 5.7-24.899 15-33.3 6.064-6.064 15-7.837 15-18.6 0-8.401-6.599-15-15-15s-15 6.599-15 15h-30c0-24.901 20.099-45 45-45s45 20.1 45 45.001z" fill="#515f66"/></g><g><path d="m241 242h30v30h-30z" fill="#515f66"/></g><path d="m256 242h15v30h-15z" fill="#3e454d"/><path d="m301 137c0 15.901-8.699 30.901-22.5 39-4.501 2.701-7.5 7.5-7.5 12.9v23.1h-15v-56.4c6.064-6.064 15-7.837 15-18.6 0-8.401-6.599-15-15-15v-30c24.901 0 45 20.099 45 45z" fill="#3e454d"/><path d="m512 512-183.701-139.799-72.299-55.201v195z" fill="#d9edff"/></g></svg>