<svg id="Capa_1" enable-background="new 0 0 512 512" height="512" viewBox="0 0 512 512" width="512" xmlns="http://www.w3.org/2000/svg"><g><g><path d="m512 46-45 45h-17.042l-68.22 30-83.029-30h-42.851c-90.901 0-165 74.099-165 165s74.099 165 165 165l-112.277 30-81.822-30c-39.001-45.901-61.759-104.399-61.759-165 0-140.7 115.158-256 255.858-256h211.142z" fill="#ffbe40"/></g><path d="m298.709 91 83.029 30 68.22-30h17.042l45-45-45-46h-211.142v91z" fill="#ff9f40"/><path d="m512 256c0 140.7-115.442 256-256.142 256h-210.858l-45-46 45-45h210.858c90.901 0 165-74.099 165-165s-74.099-165-165-165h194.099c39.002 45.901 62.043 104.399 62.043 165z" fill="#ffdf40"/><g><circle cx="255.858" cy="256" fill="#59abff" r="120"/></g><path d="m375.858 256c0-66.167-53.833-120-120-120v240c66.167 0 120-53.833 120-120z" fill="#4d87ff"/><path d="m255.858 121c-74.443 0-135 60.557-135 135s60.557 135 135 135 135-60.557 135-135-60.556-135-135-135zm103.484 120h-44.061c-1.364-29.685-6.656-58.336-15.941-80.292 31.799 14.579 54.813 44.5 60.002 80.292zm-103.484 120c-8.024 0-26.55-31.644-29.42-90h58.839c-2.868 58.356-21.395 90-29.419 90zm-29.419-120c2.869-58.356 21.396-90 29.42-90s26.55 31.644 29.42 90zm-14.063-80.292c-9.285 21.956-14.577 50.607-15.941 80.292h-44.061c5.19-35.792 28.204-65.713 60.002-80.292zm-60.001 110.292h44.061c1.364 29.685 6.656 58.336 15.941 80.292-31.799-14.579-54.813-44.5-60.002-80.292zm146.965 80.292c9.285-21.956 14.577-50.607 15.941-80.292h44.061c-5.189 35.792-28.203 65.713-60.002 80.292z" fill="#6cf"/><path d="m285.278 241h-29.42v30h29.42c-2.869 58.356-21.396 90-29.42 90v30c74.443 0 135-60.557 135-135s-60.557-135-135-135v30c8.024 0 26.551 31.644 29.42 90zm74.064 0h-44.061c-1.364-29.685-6.656-58.336-15.941-80.292 31.799 14.579 54.813 44.5 60.002 80.292zm-44.06 30h44.061c-5.189 35.792-28.204 65.713-60.002 80.292 9.285-21.956 14.576-50.607 15.941-80.292z" fill="#59abff"/><path d="m255.858 421v91c140.7 0 256.142-115.3 256.142-256 0-60.601-23.041-119.099-62.042-165h-194.1c90.901 0 165 74.099 165 165s-74.099 165-165 165z" fill="#ffbe40"/></g></svg>