<?xml version="1.0" encoding="iso-8859-1"?>
<!-- Generator: Adobe Illustrator 19.0.0, SVG Export Plug-In . SVG Version: 6.00 Build 0)  -->
<svg version="1.1" id="Capa_1" xmlns="http://www.w3.org/2000/svg" xmlns:xlink="http://www.w3.org/1999/xlink" x="0px" y="0px"
	 viewBox="0 0 512.005 512.005" style="enable-background:new 0 0 512.005 512.005;" xml:space="preserve">
<circle style="fill:#647892;" cx="256.033" cy="256.004" r="255.972"/>
<path style="fill:#A4D9F4;" d="M322.276,97.438C205.291,29.897,54.617,81.444,4.47,208.517
	c-27.988,149.182,78.746,288.88,228.23,302.388c68.894-6.755,133.629-45.511,170.882-110.033
	C464.92,294.63,428.519,158.777,322.276,97.438z"/>
<path style="fill:#64C4FF;" d="M311.074,487.799c-126.958,0-229.878-102.92-229.878-229.878c0-77.586,38.44-146.189,97.311-187.818
	C100.274,81.802,33.934,133.856,4.47,208.517c-27.988,149.182,78.746,288.88,228.23,302.388
	c27.584-2.704,54.496-10.552,79.25-23.117C311.657,487.789,311.367,487.799,311.074,487.799z"/>
<g>
	<path style="fill:#48AEF9;" d="M183.853,69.314c9.046,18.033,9.093,17.521,8.635,19.102c-8.363,28.833-8.163,27.201-7.654,28.559
		c8.169,21.797,7.579,21.093,9.043,21.851l21.355,11.046c2.051,1.061,4.495-0.427,4.495-2.736v-25.931
		c0-1.413,0.962-2.645,2.333-2.989c17.398-4.35,16.106-4.004,16.468-4.166c34.885-15.596,35.004-14.815,35.004-17.656
		c0-0.363,0-9.814,0-19.79C244.674,68.173,214.139,65.569,183.853,69.314z"/>
	<path style="fill:#48AEF9;" d="M168.993,361.085c-2.906-0.686-14.413-14.743-17.03-16.375c-20.372-12.631-11.221-8.8-35.647-15.839
		c-1.044-0.305-0.383-0.114-19.264-11.164c-1.974-1.161-1.65-0.441-25.221-0.662c-0.847,0-1.669,0.237-2.398,0.659l-27.449-14.293
		l-5.94-13.71c-3.187-7.356-9.8-6.707-35.446-17.223c0.56,8.819,1.566,17.515,2.998,26.068l13.099,4.854l5.637,13.01
		c2.807,6.481,6.893,5.648,37.512,22.46c1.752,3.633,3.688,5.151,2.994,7.986c-5.612,24.09-4.829,10.724,0.211,33.394
		c0.423,1.622-0.329-0.052,18.865,25.748c1.075,1.433,0.407,0.537,22.988,13.365c2.71,1.52,1.623,2.18,12.403,29.497
		c0.34,0.899-0.901-1.202,23.554,35.788c6.313,3.186,12.774,6.114,19.373,8.78c1.062-1.481,1.329-3.535,0.112-5.394
		c-2.792-4.264,2.029-7.172,8.677-19.454c0.635-1.038,0.243-0.423,6.671-23.227c1.146-4.108,4.781-3.216,20.452-9.355
		c3.024-1.062,2.859-3.465,8.84-14.157c1.545-2.966-0.695-14.215,1.27-17.36l9.538-15.286c2.277-3.647-1.149-6.334-5.224-16.41
		C208.824,369.027,207.575,370.849,168.993,361.085z"/>
	<path style="fill:#48AEF9;" d="M0.064,256.716c0.059-0.036,0.106-0.077,0.168-0.112c17.723-9.492,18.604-11.981,22.182-10.711
		c14.118,4.395,5.44,3.395,17.328,3.541c7.483,0,4.617-13.742,8.26-17.347l16.058-15.882c1.803-1.783,11.552-24.435,13.279-26.055
		l10.883-10.203c2.964-2.779,2.608-11.894,6.707-13.772c15.592-6.892,15.714-7.805,18.105-7.488
		c32.583,3.316,18.008,5.665,38.47-1.747c3.315-1.251,4.174-5.542,1.595-7.972c-10.426-9.865-4.989-3.591-22.884-26.777
		c-1.736-2.245-3.748-1.68-10.915-3.532c-6.36-1.391-3.659-15.067-11.452-14.062c-3.97,0.86-7.621-0.082-9.394,3.244l-11.271,21.133
		c-6.248,11.504-5.963,14.376-9.444,15.333c-4.372,0.689-9.658,4.396-12.597,0.118c-6.444-9.289-7.85-11.795-9.353-13.385
		c-22.794,22.281-40.089,48.877-51.361,77.687c-2.861,15.323-4.374,31.122-4.374,47.275C0.055,256.24,0.064,256.476,0.064,256.716z"
		/>
</g>
<g>
	<path style="fill:#3997EE;" d="M88.888,317.053c-3.519,0.032-8.829,0.07-17.057-0.007c-0.847,0-1.669,0.237-2.398,0.659
		l-27.449-14.293l-5.94-13.71c-3.187-7.356-9.8-6.707-35.446-17.223c0.56,8.819,1.566,17.515,2.998,26.068l13.099,4.854l5.637,13.01
		c2.807,6.481,6.893,5.648,37.512,22.46c1.752,3.633,3.688,5.151,2.994,7.986c-5.612,24.09-4.829,10.724,0.211,33.394
		c0.423,1.622-0.329-0.052,18.865,25.748c1.075,1.433,0.407,0.537,22.988,13.365c2.71,1.52,1.623,2.18,12.403,29.497
		c0.34,0.899-0.901-1.202,23.545,35.774c6.835,3.45,13.144,6.254,19.392,8.779c1.053-1.48,1.316-3.526,0.103-5.379
		c-2.792-4.264,2.029-7.172,8.677-19.454c0.635-1.038,0.243-0.423,6.671-23.227c0.135-0.484,0.307-0.898,0.527-1.263
		C134.018,413.466,102.639,368.854,88.888,317.053z"/>
	<path style="fill:#3997EE;" d="M0.232,256.604c17.723-9.492,18.604-11.981,22.182-10.711c14.118,4.395,5.44,3.395,17.328,3.541
		c7.483,0,4.617-13.742,8.26-17.347l16.058-15.882c1.803-1.783,11.552-24.435,13.279-26.055l10.883-10.203
		c2.964-2.779,2.608-11.894,6.707-13.772c2.629-1.162,4.81-2.151,6.646-2.996c6.91-15.253,15.446-29.608,25.371-42.865
		c-1.623-0.387-3.944-0.7-7.645-1.655c-6.36-1.391-3.659-15.067-11.452-14.062c-3.97,0.86-7.621-0.082-9.394,3.244l-11.271,21.133
		c-6.248,11.504-5.963,14.376-9.444,15.333c-4.372,0.689-9.658,4.396-12.597,0.118c-6.427-9.265-7.843-11.781-9.341-13.372
		c-23.106,22.644-40.299,49.378-51.366,77.66c-0.252,1.351-0.483,2.709-0.716,4.069c-2.402,14.094-3.702,28.726-3.656,43.935
		C0.123,256.68,0.171,256.639,0.232,256.604z"/>
</g>
<path style="fill:#48AEF9;" d="M403.581,178.744c-17.28-29.93-40.475-54.315-67.253-72.536c0.415,1.841,0.291,3.814-0.539,5.66
	c-1.617,2.833-2.139,7.722-7.277,9.623c-28.168,10.847-10.411,1.093-37.641,25.472c-2.475,2.39-3.372,5.981-2.311,9.254
	c1.657,5.113-1.505,10.531-6.774,11.601l-8.745,1.775c-9.193,1.866-6.93,12.276-7.212,13.457c0,4.973,4.031,9.004,9.004,9.004
	c8.15,0,15.08,0,23.202,0c7.294,0,8.571-6.846,17.634-17.697c3.02-4.081,6.499-3.283,20.039-7.543
	c5.767-1.6,8.781,2.611,18.899,7.698c4.438,2.524,10.085,0.858,12.44-3.672l2.186-4.205c4.638-8.92,18.534-4.265,18.534,4.882
	c-0.326,13.108,0.807,15.13-1.243,18.613c-1.495,3.653-8.24,9.628-3.467,16.366l6.26,8.839c5.274,7.444-2.997,13.446-3.637,14.637
	c-2.194,2.507-5.595,3.598-8.838,2.835c-20.467-5.028-21.115-4.457-23.628-6.251c-14.117-9.855-14.319-10.783-17.173-11.496
	c-20.455-4.671-22.37-6.693-26.75-5.128c-29.426,10.882-30.206,9.911-32.881,12.918c-8.086,9.12-13.434,15.125-17.011,19.138
	l-30.708,29.098v22.61l16.9,22.469c20.324,13.568,20.838,15.597,25.451,15.597c16.422,0,29.997,0,45.219,0
	c3.681,0,6.992,2.242,8.359,5.66c2.631,7.247,4.368,9.12,3.908,12.796c-4.442,33.542,0.296,15.663-15.459,48.405
	c-16.755,32.87-13.343,24.816-16.702,36.033c-2.339,7.653,5.722,14.325,12.804,10.598c8.09-4.584-3.992,4.94,46.69-46.206
	c1.032-1.066,24.663-33.29,25.698-34.463c16.054-18.089,5.072-8.074,41.408-36.424c5.229-17.93,8.468-36.185,9.832-54.47
	C430.463,241.24,420.938,208.806,403.581,178.744z"/>
<path style="fill:#2FCC63;" d="M380.706,1.44c-1.893-1.882-4.944-1.882-6.836,0c-25.71,25.561-60.591,37.26-95.014,33.956
	c-2.854-0.274-5.325,1.961-5.325,4.827v104.173c0,80.439,39.943,67.113,101.074,107.722c1.624,1.079,3.742,1.079,5.367,0
	c61.131-40.608,101.074-27.283,101.074-107.722V40.223c0-2.867-2.47-5.101-5.325-4.827C441.286,38.702,406.402,26.987,380.706,1.44z
	"/>
<g>
	<path style="fill:#23B658;" d="M303.558,160.022V37.278c0-0.769,0.174-1.491,0.48-2.138c-8.431,0.977-16.789,1.063-25.182,0.256
		c-2.854-0.274-5.325,1.961-5.325,4.827v104.173c0,55.875,19.278,66.51,51.537,81.404
		C311.25,213.742,303.558,195.908,303.558,160.022z"/>
	<path style="fill:#23B658;" d="M481.045,40.223c0-2.867-2.47-5.101-5.324-4.827c-34.44,3.305-69.32-8.411-95.015-33.957
		c-0.946-0.941-2.182-1.411-3.418-1.411v126.449h103.756V40.223z"/>
	<path style="fill:#23B658;" d="M273.532,144.396c0,80.439,39.943,67.113,101.073,107.722c0.812,0.539,1.748,0.81,2.683,0.81
		V126.478H273.532V144.396z"/>
</g>
<path style="fill:#16A847;" d="M273.532,126.478v17.918c0,15.487,1.38,33.352,8.25,47.31c8.809,17.906,25.058,25.68,43.169,34.039
	c0.039,0.018,0.078,0.036,0.118,0.054c-13.817-12.057-21.511-29.892-21.511-65.778v-33.543L273.532,126.478L273.532,126.478z"/>
<path style="fill:#EFEFEF;" d="M366.046,163.318L366.046,163.318c-4.198,0-8.223-1.667-11.191-4.635l-21.871-21.871
	c-6.18-6.181-6.18-16.201,0-22.381c6.181-6.179,16.202-6.179,22.381,0l10.68,10.679l30.868-30.869c6.181-6.18,16.201-6.18,22.381,0
	s6.18,16.201,0,22.381l-42.06,42.06C374.269,161.651,370.243,163.318,366.046,163.318z"/>
<path style="fill:#DDDDDD;" d="M419.296,94.241c-1.154-1.154-2.442-2.092-3.813-2.814c1.004,4.363-0.179,9.128-3.578,12.527
	l-35.714,35.715c-2.52,2.52-5.939,3.936-9.502,3.936c-3.565,0-6.983-1.416-9.503-3.936l-18.571-18.572
	c-2.283-2.283-3.571-5.185-3.867-8.164c-0.612,0.455-1.206,0.943-1.762,1.497c-6.18,6.18-6.18,16.201,0,22.381l21.871,21.871
	c2.968,2.968,6.993,4.635,11.191,4.635c4.197,0,8.223-1.667,11.191-4.635l42.06-42.06
	C425.477,110.442,425.477,100.422,419.296,94.241z"/>
<g>
</g>
<g>
</g>
<g>
</g>
<g>
</g>
<g>
</g>
<g>
</g>
<g>
</g>
<g>
</g>
<g>
</g>
<g>
</g>
<g>
</g>
<g>
</g>
<g>
</g>
<g>
</g>
<g>
</g>
</svg>
