<svg height="512" viewBox="0 0 128 128" width="512" xmlns="http://www.w3.org/2000/svg"><g id="Circle_Grid" data-name="Circle Grid"><circle cx="64" cy="64" fill="#69b0ee" r="64"/></g><g id="icon"><path d="m23 40.232v57.915a3.526 3.526 0 0 0 3.526 3.526h74.949a3.526 3.526 0 0 0 3.525-3.526v-57.915z" fill="#eeefee"/><path d="m101.474 26.328h-74.948a3.526 3.526 0 0 0 -3.526 3.525v13.8h82v-13.8a3.526 3.526 0 0 0 -3.526-3.525z" fill="#62667c"/><circle cx="72.981" cy="34.913" fill="#2cbfae" r="3.174"/><circle cx="84.205" cy="34.913" fill="#f6c863" r="3.174"/><circle cx="95.428" cy="35.063" fill="#ef5261" r="3.174"/><path d="m96.51 88.207h-65.02a32.51 32.51 0 1 1 65.02 0z" fill="#dbd8dd"/><g fill="#62667c"><path d="m63.46 57.232h1.08v3.396h-1.08z"/><path d="m55.881 58.229h1.08v3.396h-1.08z" transform="matrix(.966 -.259 .259 .966 -13.588 16.645)"/><path d="m48.819 61.154h1.08v3.396h-1.08z" transform="matrix(.866 -.5 .5 .866 -24.813 33.1)"/><path d="m42.755 65.808h1.08v3.396h-1.08z" transform="matrix(.707 -.707 .707 .707 -35.053 50.386)"/><path d="m38.102 71.872h1.08v3.396h-1.08z" transform="matrix(.5 -.866 .866 .5 -44.393 70.25)"/><path d="m35.176 78.934h1.08v3.396h-1.08z" transform="matrix(.259 -.966 .966 .259 -51.412 94.262)"/><path d="m91.743 78.934h1.08v3.396h-1.08z" transform="matrix(.259 .966 -.966 .259 146.283 -29.376)"/><path d="m88.818 71.872h1.08v3.396h-1.08z" transform="matrix(.5 .866 -.866 .5 108.393 -40.602)"/><path d="m84.165 65.808h1.08v3.396h-1.08z" transform="matrix(.707 .707 -.707 .707 72.543 -40.123)"/><path d="m78.101 61.154h1.08v3.396h-1.08z" transform="matrix(.866 .5 -.5 .866 41.962 -30.9)"/><path d="m71.039 58.229h1.08v3.396h-1.08z" transform="matrix(.966 .259 -.259 .966 17.949 -16.484)"/></g><path d="m68.087 84.917-4.627-1.828 9.089-16.233z" fill="#ef5261"/><path d="m70.58 88.207h-13.16a6.58 6.58 0 0 1 13.16 0z" fill="#62667c"/></g></svg>