<svg id="Capa_1" enable-background="new 0 0 512 512" height="512" viewBox="0 0 512 512" width="512" xmlns="http://www.w3.org/2000/svg" xmlns:xlink="http://www.w3.org/1999/xlink"><linearGradient id="lg1"><stop offset="0" stop-color="#fd3a84"/><stop offset="1" stop-color="#ffa68d"/></linearGradient><linearGradient id="SVGID_1_" gradientUnits="userSpaceOnUse" x1="256" x2="256" xlink:href="#lg1" y1="512" y2="301"/><linearGradient id="SVGID_2_" gradientUnits="userSpaceOnUse" x1="256" x2="256" y1="391" y2="181"><stop offset="0" stop-color="#ffc2cc"/><stop offset="1" stop-color="#fff2f4"/></linearGradient><linearGradient id="SVGID_3_" gradientUnits="userSpaceOnUse" x1="256" x2="256" xlink:href="#lg1" y1="271" y2="0"/><g><path d="m256 512c-2.3 0-4.6-.527-6.709-1.582l-241-121c-5.083-2.549-8.291-7.734-8.291-13.418s3.208-10.869 8.291-13.418l121-60c4.219-2.109 9.199-2.109 13.418 0l113.291 56.646 113.291-56.646c4.219-2.109 9.199-2.109 13.418 0l121 60c5.083 2.549 8.291 7.734 8.291 13.418s-3.208 10.869-8.291 13.418l-241 121c-2.109 1.055-4.409 1.582-6.709 1.582z" fill="url(#SVGID_1_)"/><path d="m256 391c-2.3 0-4.6-.527-6.709-1.582l-241-120c-5.083-2.549-8.291-7.734-8.291-13.418s3.208-10.869 8.291-13.418l121-60c4.219-2.109 9.199-2.109 13.418 0l113.291 56.646 113.291-56.646c4.219-2.109 9.199-2.109 13.418 0l121 60c5.083 2.549 8.291 7.734 8.291 13.418s-3.208 10.869-8.291 13.418l-241 120c-2.109 1.055-4.409 1.582-6.709 1.582z" fill="url(#SVGID_2_)"/><path d="m256 271c-2.3 0-4.6-.527-6.709-1.582l-241-120c-5.083-2.549-8.291-7.734-8.291-13.418s3.208-10.869 8.291-13.418l241-121c4.219-2.109 9.199-2.109 13.418 0l241 121c5.083 2.549 8.291 7.734 8.291 13.418s-3.208 10.869-8.291 13.418l-241 120c-2.109 1.055-4.409 1.582-6.709 1.582z" fill="url(#SVGID_3_)"/></g></svg>