<svg id="Capa_1" enable-background="new 0 0 510 510" height="512" viewBox="0 0 510 510" width="512" xmlns="http://www.w3.org/2000/svg" xmlns:xlink="http://www.w3.org/1999/xlink"><linearGradient id="SVGID_1_" gradientUnits="userSpaceOnUse" x1="43.205" x2="135.403" y1="210.284" y2="302.482"><stop offset="0" stop-color="#ffce47"/><stop offset="1" stop-color="#ff9356"/></linearGradient><linearGradient id="SVGID_2_" gradientUnits="userSpaceOnUse" x1="361.984" x2="470.736" y1="194.905" y2="303.657"><stop offset="0" stop-color="#e4e08e"/><stop offset="1" stop-color="#6fa953"/></linearGradient><linearGradient id="SVGID_3_" gradientUnits="userSpaceOnUse" x1="197.595" x2="315.956" y1="17.131" y2="135.492"><stop offset="0" stop-color="#ff755c"/><stop offset="1" stop-color="#ff4181"/></linearGradient><linearGradient id="SVGID_4_" gradientUnits="userSpaceOnUse" x1="221.31" x2="299.169" y1="391.046" y2="468.905"><stop offset="0" stop-color="#7acbff"/><stop offset="1" stop-color="#45a2e0"/></linearGradient><linearGradient id="lg1"><stop offset="0" stop-color="#2f73a0"/><stop offset="1" stop-color="#174461"/></linearGradient><linearGradient id="SVGID_5_" gradientUnits="userSpaceOnUse" x1="52.898" x2="101.728" xlink:href="#lg1" y1="97.102" y2="145.933"/><linearGradient id="SVGID_6_" gradientUnits="userSpaceOnUse" x1="428.648" x2="468.982" xlink:href="#lg1" y1="94.686" y2="135.02"/><linearGradient id="SVGID_7_" gradientUnits="userSpaceOnUse" x1="404.874" x2="467.23" xlink:href="#lg1" y1="389.126" y2="451.482"/><linearGradient id="SVGID_8_" gradientUnits="userSpaceOnUse" x1="58.401" x2="116.215" xlink:href="#lg1" y1="370.932" y2="428.746"/><linearGradient id="SVGID_9_" gradientUnits="userSpaceOnUse" x1="227.914" x2="276.248" xlink:href="#lg1" y1="219.42" y2="267.754"/><g><path d="m167.861 203.512c-2.404-7.727-8.666-13.619-16.505-15.436-42.128-9.761-84.742-9.761-126.869 0-7.839 1.816-14.101 7.708-16.505 15.436-10.643 34.207-10.641 68.772 0 102.975 2.404 7.727 8.666 13.619 16.505 15.435 42.127 9.761 84.741 9.762 126.869 0 7.839-1.816 14.101-7.708 16.505-15.435 10.641-34.203 10.642-68.767 0-102.975z" fill="url(#SVGID_1_)"/><path d="m502.019 203.512c-2.404-7.727-8.666-13.619-16.505-15.436-42.128-9.761-84.742-9.761-126.869 0-7.839 1.816-14.101 7.708-16.505 15.436-10.643 34.207-10.641 68.772 0 102.975 2.404 7.727 8.666 13.619 16.505 15.435 42.127 9.761 84.741 9.762 126.869 0 7.839-1.816 14.101-7.708 16.505-15.435 10.641-34.203 10.642-68.767 0-102.975z" fill="url(#SVGID_2_)"/><path d="m375.12 22.846c-3.613-7.758-13.022-13.673-24.801-15.496-63.303-9.8-127.335-9.8-190.637 0-11.779 1.824-21.188 7.738-24.801 15.496-15.992 34.341-15.99 69.041 0 103.379 3.612 7.758 13.022 13.673 24.801 15.496 63.302 9.8 127.334 9.8 190.637 0 11.779-1.823 21.188-7.738 24.801-15.496 15.99-34.337 15.991-69.037 0-103.379z" fill="url(#SVGID_3_)"/><circle cx="255" cy="424.736" fill="url(#SVGID_4_)" r="85.264"/><path d="m109.224 67.921-24.853-18.65c-5.052-3.791-13.691-1.106-13.691 4.256v10.602c-20.22 3.37-35.686 20.979-35.686 42.141v52.427c0 8.284 6.716 15 15 15s15-6.716 15-15v-52.427c0-4.416 2.262-8.312 5.686-10.596v3.873c0 5.362 8.639 8.047 13.691 4.256l24.852-18.649c6.316-4.739 6.316-12.494.001-17.233z" fill="url(#SVGID_5_)"/><path d="m439.32 64.129v-10.602c0-5.362-8.639-8.047-13.692-4.256l-24.852 18.649c-6.315 4.739-6.315 12.494 0 17.233l24.852 18.649c5.053 3.792 13.692 1.106 13.692-4.256v-3.873c3.424 2.285 5.686 6.18 5.686 10.596v52.427c0 8.284 6.716 15 15 15s15-6.716 15-15v-52.427c0-21.16-15.466-38.769-35.686-42.14z" fill="url(#SVGID_6_)"/><path d="m477.593 377.037-18.649-24.852c-4.739-6.315-12.494-6.315-17.233 0l-18.649 24.852c-3.791 5.052-1.106 13.692 4.256 13.692h6.11c-.063.556-.102 1.12-.102 1.693v2.268c0 7.021-5.711 12.732-12.731 12.732h-52.428c-8.284 0-15 6.716-15 15s6.716 15 15 15h52.428c23.563 0 42.731-19.17 42.731-42.732v-2.268c0-.573-.039-1.136-.102-1.693h10.113c5.363-.001 8.048-8.64 4.256-13.692z" fill="url(#SVGID_7_)"/><path d="m141.833 407.421h-52.428c-7.021 0-12.731-5.712-12.731-12.732v-2.268c0-.573-.039-1.136-.102-1.693h6.11c5.362 0 8.047-8.639 4.256-13.692l-18.649-24.852c-4.739-6.315-12.494-6.315-17.233 0l-18.649 24.852c-3.791 5.052-1.106 13.692 4.256 13.692h10.113c-.063.556-.102 1.12-.102 1.693v2.268c0 23.563 19.169 42.732 42.731 42.732h52.428c8.284 0 15-6.716 15-15s-6.716-15-15-15z" fill="url(#SVGID_8_)"/><path d="m310 240h-40v-30.838h8.01c5.362 0 8.047-8.639 4.256-13.692l-18.649-24.852c-4.739-6.315-12.494-6.315-17.233 0l-18.649 24.852c-3.792 5.052-1.106 13.692 4.256 13.692h8.009v30.838h-40c-8.284 0-15 6.716-15 15s6.716 15 15 15h110c8.284 0 15-6.716 15-15s-6.716-15-15-15z" fill="url(#SVGID_9_)"/><g fill="#843561"><g><path d="m230.374 69.486h-37.593c-2.755 0-4.988-2.233-4.988-4.988v-9.976c0-2.755 2.233-4.988 4.988-4.988h37.593c2.755 0 4.988 2.233 4.988 4.988v9.976c0 2.755-2.233 4.988-4.988 4.988z"/><path d="m317.219 69.486h-65.632c-2.755 0-4.988-2.233-4.988-4.988v-9.976c0-2.755 2.233-4.988 4.988-4.988h65.632c2.755 0 4.988 2.233 4.988 4.988v9.976c0 2.755-2.233 4.988-4.988 4.988z"/></g><g><path d="m279.626 99.538h37.593c2.755 0 4.988-2.233 4.988-4.988v-9.976c0-2.755-2.233-4.988-4.988-4.988h-37.593c-2.755 0-4.988 2.233-4.988 4.988v9.976c0 2.754 2.233 4.988 4.988 4.988z"/><path d="m192.781 99.538h65.632c2.755 0 4.988-2.233 4.988-4.988v-9.976c0-2.755-2.233-4.988-4.988-4.988h-65.632c-2.755 0-4.988 2.233-4.988 4.988v9.976c0 2.754 2.233 4.988 4.988 4.988z"/></g></g><g><g><path d="m25.702 260.05h65.632c2.755 0 4.988 2.233 4.988 4.988v9.976c0 2.755-2.233 4.988-4.988 4.988h-65.632c-2.755 0-4.988-2.233-4.988-4.988v-9.976c0-2.755 2.233-4.988 4.988-4.988z" fill="#ff755c"/></g><g fill="#ff755c"><path d="m63.295 229.998h-37.593c-2.755 0-4.988 2.233-4.988 4.988v9.976c0 2.755 2.233 4.988 4.988 4.988h37.593c2.755 0 4.988-2.233 4.988-4.988v-9.976c0-2.755-2.233-4.988-4.988-4.988z"/><path d="m150.14 229.998h-65.632c-2.755 0-4.988 2.233-4.988 4.988v9.976c0 2.755 2.233 4.988 4.988 4.988h65.632c2.755 0 4.988-2.233 4.988-4.988v-9.976c0-2.755-2.233-4.988-4.988-4.988z"/></g></g><g><g><g fill="#2f73a0"><path d="m230.374 419.686h-37.593c-2.755 0-4.988-2.233-4.988-4.988v-9.976c0-2.755 2.233-4.988 4.988-4.988h37.593c2.755 0 4.988 2.233 4.988 4.988v9.976c0 2.755-2.233 4.988-4.988 4.988z"/><path d="m317.219 419.686h-65.632c-2.755 0-4.988-2.233-4.988-4.988v-9.976c0-2.755 2.233-4.988 4.988-4.988h65.632c2.755 0 4.988 2.233 4.988 4.988v9.976c0 2.755-2.233 4.988-4.988 4.988z"/></g><g><path d="m192.781 449.738h65.632c2.755 0 4.988-2.233 4.988-4.988v-9.976c0-2.755-2.233-4.988-4.988-4.988h-65.632c-2.755 0-4.988 2.233-4.988 4.988v9.976c0 2.754 2.233 4.988 4.988 4.988z" fill="#2f73a0"/></g></g></g><g><g><g fill="#43765a"><path d="m446.705 249.95h37.593c2.755 0 4.988-2.233 4.988-4.988v-9.976c0-2.755-2.233-4.988-4.988-4.988h-37.593c-2.755 0-4.988 2.233-4.988 4.988v9.976c0 2.755 2.233 4.988 4.988 4.988z"/><path d="m359.86 249.95h65.632c2.755 0 4.988-2.233 4.988-4.988v-9.976c0-2.755-2.233-4.988-4.988-4.988h-65.632c-2.755 0-4.988 2.233-4.988 4.988v9.976c0 2.755 2.233 4.988 4.988 4.988z"/></g><g><path d="m397.453 280.002h-37.593c-2.755 0-4.988-2.233-4.988-4.988v-9.976c0-2.755 2.233-4.988 4.988-4.988h37.593c2.755 0 4.988 2.233 4.988 4.988v9.976c0 2.755-2.233 4.988-4.988 4.988z" fill="#43765a"/></g></g></g></g></svg>