<svg height="512" viewBox="0 0 512 512" width="512" xmlns="http://www.w3.org/2000/svg"><g id="BULINE"><circle cx="256" cy="256" fill="#7cc8fb" r="256"/></g><g id="Icons"><path d="m220.09 397.3h71.84v50.78h-71.84z" fill="#32314b"/><path d="m220.09 397.3h71.84v18.12h-71.84z" fill="#27273d"/><path d="m482.82 67.73v295.27a34.27 34.27 0 0 1 -34.28 34.28h-385a34.27 34.27 0 0 1 -34.33-34.28v-295.27a11.6 11.6 0 0 1 6.09-10.22c.33-.19.66-.34 1-.5.35-.15.7-.27 1.06-.39a11.66 11.66 0 0 1 3.47-.53h430.36a11.65 11.65 0 0 1 11.63 11.64z" fill="#3e436d"/><path d="m149 397.29h-85.51a34.27 34.27 0 0 1 -34.28-34.29v-295.27a11.6 11.6 0 0 1 6.09-10.22c.33-.19.66-.34 1-.5.35-.15.7-.27 1.06-.39a11.66 11.66 0 0 1 3.47-.53h85.49a11.63 11.63 0 0 0 -11.62 11.64v295.27a34.27 34.27 0 0 0 34.3 34.29z" fill="#32314b"/><rect fill="#3e436d" height="27.91" rx="13.95" width="209" x="151.51" y="448.07"/><circle cx="256.09" cy="367.92" fill="#27273d" r="13.06"/><path d="m482.82 67.73v274.16h-453.61v-274.16a11.6 11.6 0 0 1 6.09-10.22c.33-.19.66-.34 1-.5.35-.15.7-.27 1.06-.39a11.66 11.66 0 0 1 3.47-.53h430.36a11.65 11.65 0 0 1 11.63 11.64z" fill="#fff"/><path d="m126.33 56.09a11.63 11.63 0 0 0 -11.62 11.64v274.16h-85.5v-274.16a11.6 11.6 0 0 1 6.09-10.22c.33-.19.66-.34 1-.5.35-.15.7-.27 1.06-.39a11.66 11.66 0 0 1 3.47-.53z" fill="#ddd"/><circle cx="342.93" cy="193.35" fill="#f6d372" r="72.66"/><rect fill="#b0d46c" height="53.43" rx="26.71" width="253.08" x="216.39" y="220.17"/><g fill="#32314b"><path d="m261.78 246.88 9.92-9.88a5.4 5.4 0 0 0 -7.64-7.63l-9.91 9.92-9.92-9.92a5.4 5.4 0 0 0 -7.63 7.63l9.91 9.92-9.91 9.92a5.39 5.39 0 0 0 0 7.63 5.4 5.4 0 0 0 7.63 0l9.92-9.92 9.91 9.92a5.4 5.4 0 0 0 7.64-7.63z"/><path d="m306.84 246.88 9.92-9.92a5.4 5.4 0 0 0 -7.63-7.63l-9.92 9.92-9.92-9.92a5.4 5.4 0 0 0 -7.63 7.63l9.92 9.92-9.92 9.92a5.4 5.4 0 0 0 3.82 9.21 5.34 5.34 0 0 0 3.81-1.58l9.92-9.92 9.92 9.92a5.4 5.4 0 0 0 7.63-7.63z"/><path d="m351.91 246.88 9.92-9.92a5.4 5.4 0 0 0 -7.64-7.63l-9.91 9.92-9.92-9.92a5.4 5.4 0 0 0 -7.63 7.63l9.91 9.92-9.91 9.92a5.39 5.39 0 0 0 0 7.63 5.4 5.4 0 0 0 7.63 0l9.92-9.92 9.91 9.92a5.4 5.4 0 0 0 7.64-7.63z"/><path d="m397 246.88 9.92-9.92a5.4 5.4 0 0 0 -7.63-7.63l-9.92 9.92-9.92-9.92a5.4 5.4 0 0 0 -7.63 7.63l9.92 9.92-9.92 9.92a5.4 5.4 0 0 0 3.82 9.21 5.34 5.34 0 0 0 3.81-1.58l9.92-9.92 9.92 9.92a5.4 5.4 0 0 0 7.63-7.63z"/><path d="m442 246.88 10-9.88a5.4 5.4 0 0 0 -7.64-7.63l-9.91 9.92-9.92-9.92a5.4 5.4 0 0 0 -7.63 7.63l9.91 9.92-9.91 9.92a5.39 5.39 0 0 0 0 7.63 5.4 5.4 0 0 0 7.63 0l9.92-9.92 9.91 9.92a5.4 5.4 0 0 0 7.64-7.67z"/><circle cx="344.28" cy="159.86" r="23.03"/><path d="m344.28 182.88a37.29 37.29 0 0 0 -37.28 37.29h74.58a37.3 37.3 0 0 0 -37.3-37.29z"/></g><path d="m133.71 102.81a12.62 12.62 0 0 0 -13.43 0c-22.28 14.43-44.55 20-66.82 26.52-5 1.47-8.41 5.52-8.41 10.07v70.93c0 37 23.84 71.08 62 88.52l13.57 6.2a15.55 15.55 0 0 0 12.74 0l13.57-6.2c38.16-17.44 62-51.47 62-88.52v-70.93c0-4.55-3.38-8.6-8.41-10.07-22.27-6.53-44.52-12.09-66.81-26.52z" fill="#e88032"/><path d="m193 151.88v57.12c0 29.86-19.21 57.28-50 71.33l-10.93 5a12.54 12.54 0 0 1 -10.27 0l-10.94-5c-30.68-14.02-49.86-41.44-49.86-71.33v-57.12c0-3.67 2.73-6.93 6.78-8.12 18-5.26 35.9-9.74 53.84-21.37a10.16 10.16 0 0 1 10.82 0c17.95 11.63 35.89 16.11 53.84 21.37 4.02 1.24 6.72 4.45 6.72 8.12z" fill="#f6d372"/><path d="m127 120.83v165.62a12.26 12.26 0 0 1 -5.13-1.1l-10.94-5c-30.75-14.04-49.93-41.46-49.93-71.35v-57.12c0-3.67 2.73-6.93 6.78-8.12 18-5.26 35.9-9.74 53.84-21.37a10 10 0 0 1 5.38-1.56z" fill="#f7bb38"/><path d="m135.86 298.85 5.54 2.53-8 3.67a15.62 15.62 0 0 1 -12.74 0l-13.57-6.2c-38.16-17.44-62-51.47-62-88.52v-70.93c0-4.55 3.38-8.6 8.41-10.08 22.27-6.52 44.54-12.09 66.82-26.51a12.62 12.62 0 0 1 13.43 0q3.84 2.49 7.69 4.64c-19.71 11.08-39.42 16.1-59.13 21.87-5 1.48-8.41 5.53-8.41 10.08v70.93c0 24.5 10.42 47.67 28.52 65.61a116 116 0 0 0 33.44 22.91z" fill="#d1702f"/><path d="m102.38 275.94c-25.72-14.94-41.38-39.94-41.38-66.94v-57.12c0-3.67 2.73-6.93 6.78-8.12l6.08-1.76v68.35c0 24.48 10.42 47.65 28.52 65.59z" fill="#f6d372"/><path d="m102.38 275.94c-25.72-14.94-41.38-39.94-41.38-66.94v-57.12c0-3.67 2.73-6.93 6.78-8.12l6.08-1.76v68.35c0 24.48 10.42 47.65 28.52 65.59z" fill="#dda32f"/><circle cx="180.85" cy="169.67" fill="#f9df9b" r="7.53"/><circle cx="180.85" cy="153.98" fill="#f9df9b" r="5.33"/><circle cx="448.6" cy="367.92" fill="#4f4f74" r="16.93"/><circle cx="413.33" cy="367.92" fill="#4f4f74" r="11.99"/></g></svg>