<svg id="Layer_1" enable-background="new 0 0 512 512" height="512" viewBox="0 0 512 512" width="512" xmlns="http://www.w3.org/2000/svg"><path d="m364.916 183.489v60.302h13.222c8.534 0 15.478 6.783 15.478 15.12v19.516c0 8.338-6.943 15.122-15.478 15.122h-13.94l-.127.853c-4.639 31.193-28.657 56.905-59.766 63.981l-.778.177v25.79h75.039c21.333 0 38.689 17.13 38.689 38.186v26.489h58.096v-263.458c0-5.666-4.637-10.302-10.303-10.302h-100.543c.267 2.626.411 5.362.411 8.224z" fill="#dde5eb"/><path d="m135.25 422.535c0-21.056 17.356-38.186 38.691-38.186h75.037v-25.78l-.778-.177c-25.367-5.773-46.088-23.593-55.427-47.667l-1.933.361v30.661c0 7.051-5.718 12.787-12.746 12.787h-141.444v94.489h98.6z" fill="#dde5eb"/><path d="m364.916 243.791h13.222c8.534 0 15.478 6.783 15.478 15.12v19.516c0 8.338-6.943 15.122-15.478 15.122h-13.94l-.127.853c-4.639 31.193-28.657 56.905-59.766 63.981l-.778.177v25.79h75.039c21.333 0 38.689 17.13 38.689 38.186v26.489h28.079v-238.41c0-2.832-2.317-5.15-5.151-5.15h-75.266v38.326z" fill="#fff"/><path d="m135.25 422.535c0-21.056 17.356-38.186 38.691-38.186h75.037v-25.78l-.778-.177c-25.367-5.773-46.088-23.593-55.427-47.667l-1.933.361v30.661c0 7.051-5.718 12.787-12.746 12.787h-111.427v94.489h68.583z" fill="#fff"/><path d="m66.667 354.535h32.156v94.489h-32.156z" fill="#dff6fd"/><path d="m276.254 116.533c-39.985 0-73.851 11.865-85.413 42.102v49.262c11.563-30.236 45.428-42.102 85.413-42.102 49.519 0 89.662 18.193 89.662 66.956v-49.262c0-48.762-40.144-66.956-89.662-66.956z" fill="#fda613"/><path d="m276.254 116.533c-39.985 0-73.851 11.865-85.413 42.102v49.245c5.28-13.798 15.208-23.769 28.242-30.53 2.888-39.017 33.505-56.573 73.295-60.123-5.231-.467-10.619-.694-16.124-.694z" fill="#fa8701"/><path d="m378.565 383.35h-75.039v4.865c0 15.108-12.235 27.4-27.274 27.4s-27.274-12.292-27.274-27.4v-4.865h-75.037c-21.884 0-39.691 17.58-39.691 39.186v26.489h284.004v-26.489c0-21.606-17.807-39.186-39.689-39.186z" fill="#fd646f"/><path d="m177.003 449.024v-26.489c0-21.605 17.807-39.186 39.691-39.186h-42.753c-21.884 0-39.691 17.58-39.691 39.186v26.489z" fill="#fc4755"/><path d="m286.699 360.374h-20.893c-6.134 0-12.097-.724-17.827-2.05v29.891c0 15.687 12.658 28.4 28.274 28.4 15.614 0 28.274-12.714 28.274-28.4v-29.891c-5.731 1.326-11.694 2.05-17.828 2.05z" fill="#fdd1a3"/><path d="m274.656 388.215v-27.841h-8.851c-6.134 0-12.097-.724-17.827-2.05v29.891c0 15.687 12.658 28.4 28.274 28.4 4.824 0 9.365-1.216 13.339-3.355-8.889-4.787-14.935-14.204-14.935-25.045z" fill="#ffbb85"/><path d="m378.138 242.791h-13.222v40.271c0 3.902-.301 7.737-.868 11.486h14.09c9.102 0 16.478-7.217 16.478-16.122v-19.516c-.001-8.9-7.377-16.119-16.478-16.119z" fill="#ffbb85"/><path d="m276.254 164.169c-39.985 0-73.851 11.865-85.413 42.102v102.097c10.646 30.826 40.176 53.007 74.965 53.007h20.893c43.75 0 79.217-35.063 79.217-78.311v-51.938c0-48.764-40.144-66.957-89.662-66.957z" fill="#fdd1a3"/><path d="m218.838 283.063v-51.938c0-43.342 31.715-62.531 73.54-66.263-5.231-.467-10.619-.693-16.124-.693-39.985 0-73.851 11.865-85.413 42.102v102.097c10.646 30.826 40.176 53.007 74.965 53.007l26.571-.222c-41.098-2.881-73.539-36.73-73.539-78.09z" fill="#ffbb85"/><g fill="#ab5e2e"><path d="m284.491 275.168h-10.832c-6.922 0-12.553-5.602-12.553-12.486v-20.579c0-4.142 3.357-7.5 7.5-7.5s7.5 3.358 7.5 7.5v18.066h8.385c4.143 0 7.5 3.357 7.5 7.5 0 4.141-3.357 7.499-7.5 7.499z"/><path d="m228.221 260.794c-4.143 0-7.5-3.357-7.5-7.5v-18.024c0-4.143 3.357-7.5 7.5-7.5s7.5 3.357 7.5 7.5v18.024c0 4.142-3.358 7.5-7.5 7.5z"/><path d="m324.283 260.794c-4.143 0-7.5-3.357-7.5-7.5v-18.024c0-4.143 3.357-7.5 7.5-7.5s7.5 3.357 7.5 7.5v18.024c0 4.142-3.357 7.5-7.5 7.5z"/></g><path d="m276.252 331.89c-16.664 0-30.221-13.62-30.221-30.358 0-1.936 1.561-3.503 3.486-3.503h53.47c1.924 0 3.486 1.567 3.486 3.503.001 16.738-13.557 30.358-30.221 30.358z" fill="#ef7280"/><path d="m266.558 301.531c0-1.936 1.561-3.503 3.486-3.503h-20.526c-1.926 0-3.486 1.567-3.486 3.503 0 16.738 13.557 30.358 30.221 30.358 3.601 0 7.057-.639 10.264-1.806-11.628-4.23-19.959-15.431-19.959-28.552z" fill="#fd646f"/><path d="m512 477.117c0 5.666-4.636 10.301-10.302 10.301h-491.396c-5.666 0-10.302-4.635-10.302-10.301v-18.791c0-5.666 4.636-10.302 10.302-10.302h491.396c5.666 0 10.302 4.636 10.302 10.302z" fill="#8c9ba7"/><path d="m41.723 477.117v-18.791c0-5.666 4.636-10.302 10.302-10.302h-41.723c-5.666 0-10.302 4.636-10.302 10.302v18.791c0 5.666 4.636 10.301 10.302 10.301h41.723c-5.667 0-10.302-4.635-10.302-10.301z" fill="#798b97"/><path d="m178.095 24.582h-153.017c-7.559 0-13.746 6.203-13.746 13.784v303.382c0 7.584 6.188 13.787 13.746 13.787h153.017c7.561 0 13.746-6.203 13.746-13.787v-303.382c0-7.581-6.186-13.784-13.746-13.784z" fill="#8c9ba7"/><path d="m43.556 341.748v-303.382c0-7.581 6.187-13.784 13.746-13.784h-32.224c-7.559 0-13.746 6.203-13.746 13.784v303.382c0 7.584 6.188 13.787 13.746 13.787h32.224c-7.56 0-13.746-6.203-13.746-13.787z" fill="#798b97"/><path d="m11.332 53.63h180.509v264.499h-180.509z" fill="#c7eefd"/><path d="m11.332 53.63h32.224v264.499h-32.224z" fill="#98e5fb"/><path d="m121.125 157.357c-5.601 3.673-12.319 5.819-19.539 5.819-7.221 0-13.938-2.146-19.54-5.819-22.118 7.894-37.989 28.78-38.026 53.246-.002.916.366 1.791 1.021 2.436.654.646 1.545 1.011 2.471 1.011h108.15c.928 0 1.814-.365 2.471-1.011.655-.645 1.022-1.52 1.021-2.436-.039-24.465-15.91-45.353-38.029-53.246z" fill="#0181fb"/><path d="m102.223 163.161c-.213.003-.424.016-.637.016-7.221 0-13.938-2.146-19.54-5.819-22.118 7.894-37.989 28.78-38.026 53.246-.002.916.366 1.791 1.021 2.436.654.646 1.545 1.011 2.471 1.011h31.946c-.927 0-1.817-.365-2.471-1.011-.655-.645-1.023-1.52-1.021-2.436.03-19.854 10.494-37.336 26.257-47.443z" fill="#0067c4"/><path d="m137.933 128.376c0 19.77-16.274 35.801-36.347 35.801-20.07 0-36.348-16.03-36.348-35.801 0-19.773 16.277-35.803 36.348-35.803 20.072 0 36.347 16.031 36.347 35.803z" fill="#0592fb"/><path d="m90 128.376c0-15.487 9.987-28.676 23.96-33.666-3.862-1.38-8.027-2.137-12.374-2.137-20.07 0-36.348 16.03-36.348 35.803 0 19.77 16.277 35.801 36.348 35.801 4.347 0 8.513-.756 12.375-2.136-13.974-4.99-23.961-18.18-23.961-33.665z" fill="#0181fb"/><path d="m140.219 254.601h-77.264c-4.143 0-7.5-3.357-7.5-7.5s3.357-7.5 7.5-7.5h77.264c4.143 0 7.5 3.357 7.5 7.5 0 4.142-3.358 7.5-7.5 7.5z" fill="#0067c4"/><path d="m124.766 282.416h-46.359c-4.143 0-7.5-3.357-7.5-7.5s3.357-7.5 7.5-7.5h46.358c4.143 0 7.5 3.357 7.5 7.5.001 4.143-3.357 7.5-7.499 7.5z" fill="#0181fb"/></svg>